<svg width="44" height="44" viewBox="0 0 44 44" fill="none" xmlns="http://www.w3.org/2000/svg">
<path d="M34.0419 20V10C34.0419 8.93913 33.6227 7.92172 32.8765 7.17157C32.1303 6.42143 31.1182 6 30.063 6C29.0077 6 27.9956 6.42143 27.2494 7.17157C26.5032 7.92172 26.084 8.93913 26.084 10M26.084 18V6C26.084 4.93913 25.6647 3.92172 24.9185 3.17157C24.1723 2.42143 23.1603 2 22.105 2C21.0497 2 20.0376 2.42143 19.2914 3.17157C18.5452 3.92172 18.126 4.93913 18.126 6V10M18.126 10V19M18.126 10C18.126 8.93913 17.7067 7.92172 16.9605 7.17157C16.2143 6.42143 15.2023 6 14.147 6C13.0917 6 12.0796 6.42143 11.3334 7.17157C10.5872 7.92172 10.168 8.93913 10.168 10V26" stroke="#FFA63D" stroke-width="3" stroke-linecap="round" stroke-linejoin="round"/>
<path d="M34.042 14C34.042 12.9391 34.4612 11.9217 35.2074 11.1716C35.9536 10.4214 36.9657 10 38.021 10C39.0763 10 40.0884 10.4214 40.8346 11.1716C41.5808 11.9217 42 12.9391 42 14V26C42 30.2435 40.3231 34.3131 37.3383 37.3137C34.3535 40.3143 30.3052 42 26.084 42H22.105C16.5344 42 13.1523 40.28 10.1879 37.32L3.02573 30.12C2.34121 29.3579 1.97445 28.3603 2.00138 27.3339C2.02832 26.3074 2.44688 25.3307 3.17041 24.6059C3.89393 23.8811 4.86701 23.4638 5.88816 23.4404C6.90931 23.417 7.90033 23.7892 8.65601 24.48L12.1575 28" stroke="#FFA63D" stroke-width="3" stroke-linecap="round" stroke-linejoin="round"/>
</svg>
