<svg width="127" height="34" viewBox="0 0 127 34" fill="none" xmlns="http://www.w3.org/2000/svg">
<path d="M11.825 27.435C11.2183 27.435 10.6933 27.2833 10.25 26.98C9.83 26.7 9.50333 26.3267 9.27 25.86C9.01333 25.3 8.71 24.6233 8.36 23.83C8.03333 23.0133 7.68333 22.1383 7.31 21.205C6.96 20.2717 6.59833 19.3033 6.225 18.3C5.875 17.2967 5.56 16.3167 5.28 15.36C5.25667 16.7133 5.245 17.8683 5.245 18.825C5.26833 19.7817 5.29167 20.645 5.315 21.415C5.36167 22.1617 5.40833 22.85 5.455 23.48C5.525 24.0867 5.595 24.7167 5.665 25.37C5.71167 26.0467 5.49 26.595 5 27.015C4.51 27.4583 3.90333 27.715 3.18 27.785C2.36333 27.8783 1.72167 27.7383 1.255 27.365C0.811667 27.015 0.555 26.5367 0.485 25.93C0.415 25.3 0.345 24.4483 0.275 23.375C0.228333 22.2783 0.181667 21.0533 0.135 19.7C0.111667 18.3467 0.0883334 16.9117 0.0650001 15.395C0.0650001 13.8783 0.0766668 12.385 0.1 10.915C0.123333 9.445 0.17 8.045 0.24 6.715C0.31 5.36167 0.403333 4.17167 0.52 3.145C0.613334 2.42167 0.905 1.90833 1.395 1.605C1.90833 1.27833 2.515 1.115 3.215 1.115C4.00833 1.115 4.59167 1.30167 4.965 1.675C5.33833 2.04833 5.595 2.42167 5.735 2.795C6.38833 4.84833 7.03 6.82 7.66 8.71C8.31333 10.6 8.90833 12.3033 9.445 13.82C10.005 15.3367 10.495 16.6317 10.915 17.705C11.335 18.755 11.6383 19.5017 11.825 19.945C12.035 19.5017 12.35 18.755 12.77 17.705C13.19 16.6317 13.6683 15.3367 14.205 13.82C14.765 12.3033 15.3717 10.6 16.025 8.71C16.6783 6.82 17.3317 4.84833 17.985 2.795C18.125 2.42167 18.3817 2.04833 18.755 1.675C19.1283 1.30167 19.6883 1.115 20.435 1.115C21.1817 1.115 21.8 1.27833 22.29 1.605C22.8033 1.90833 23.1067 2.42167 23.2 3.145C23.3167 4.14833 23.41 5.32667 23.48 6.68C23.55 8.03333 23.5967 9.445 23.62 10.915C23.6433 12.385 23.6433 13.8783 23.62 15.395C23.62 16.9117 23.5967 18.3467 23.55 19.7C23.5267 21.0533 23.48 22.2783 23.41 23.375C23.3633 24.4483 23.305 25.3 23.235 25.93C23.165 26.5367 22.8967 27.015 22.43 27.365C21.9633 27.7383 21.3217 27.8783 20.505 27.785C19.805 27.715 19.21 27.4583 18.72 27.015C18.23 26.595 18.0083 26.0467 18.055 25.37C18.125 24.7167 18.1833 24.0867 18.23 23.48C18.3 22.85 18.3467 22.1617 18.37 21.415C18.4167 20.645 18.44 19.7817 18.44 18.825C18.4633 17.8683 18.4633 16.7133 18.44 15.36C18.16 16.3167 17.8333 17.2967 17.46 18.3C17.11 19.3033 16.7483 20.2717 16.375 21.205C16.025 22.1383 15.675 23.0133 15.325 23.83C14.9983 24.6233 14.7067 25.3 14.45 25.86C14.2167 26.3267 13.8783 26.7 13.435 26.98C12.9917 27.2833 12.455 27.435 11.825 27.435ZM26.6981 17.985C26.6981 16.5383 26.9081 15.1967 27.3281 13.96C27.7481 12.7 28.3664 11.615 29.1831 10.705C30.0231 9.795 31.0498 9.08333 32.2631 8.57C33.4764 8.03333 34.8648 7.765 36.4281 7.765C37.5948 7.765 38.7264 7.96333 39.8231 8.36C40.9198 8.75667 41.8881 9.35167 42.7281 10.145C43.5914 10.915 44.2914 11.895 44.8281 13.085C45.3648 14.2517 45.6564 15.6167 45.7031 17.18C45.7264 18.2767 45.4931 19.1283 45.0031 19.735C44.5131 20.3183 43.7548 20.61 42.7281 20.61H36.2531C35.5998 20.61 35.1214 20.365 34.8181 19.875C34.5148 19.385 34.3631 18.8133 34.3631 18.16C34.3631 17.5067 34.5381 16.9233 34.8881 16.41C35.2381 15.8733 35.7164 15.605 36.3231 15.605H39.6481C39.6481 15.325 39.5898 15.0217 39.4731 14.695C39.3798 14.3683 39.2164 14.0767 38.9831 13.82C38.7731 13.54 38.4698 13.3183 38.0731 13.155C37.6764 12.9683 37.1748 12.875 36.5681 12.875C35.3781 12.875 34.4448 13.2833 33.7681 14.1C33.0914 14.8933 32.7531 16.1883 32.7531 17.985C32.7531 19.7117 33.1031 20.9717 33.8031 21.765C34.5031 22.5583 35.4948 22.99 36.7781 23.06C37.4081 23.1067 38.0731 23.0717 38.7731 22.955C39.4964 22.815 40.1964 22.5583 40.8731 22.185C41.2231 22.0217 41.5848 21.9283 41.9581 21.905C42.3314 21.8817 42.6814 21.9283 43.0081 22.045C43.3348 22.1617 43.6148 22.36 43.8481 22.64C44.1048 22.92 44.2914 23.27 44.4081 23.69C44.5248 24.0867 44.5364 24.46 44.4431 24.81C44.3498 25.1367 44.2098 25.4283 44.0231 25.685C43.8598 25.9417 43.6731 26.1517 43.4631 26.315C43.2531 26.5017 43.0781 26.63 42.9381 26.7C42.0748 27.2133 41.0714 27.5983 39.9281 27.855C38.7848 28.1117 37.6181 28.205 36.4281 28.135C34.7014 28.0417 33.2198 27.7033 31.9831 27.12C30.7464 26.56 29.7314 25.825 28.9381 24.915C28.1681 24.005 27.5964 22.955 27.2231 21.765C26.8731 20.575 26.6981 19.315 26.6981 17.985ZM47.5819 17.985C47.5819 16.5383 47.7919 15.1967 48.2119 13.96C48.6319 12.7 49.2502 11.615 50.0669 10.705C50.9069 9.795 51.9335 9.08333 53.1469 8.57C54.3602 8.03333 55.7485 7.765 57.3119 7.765C58.4785 7.765 59.6102 7.96333 60.7069 8.36C61.8035 8.75667 62.7719 9.35167 63.6119 10.145C64.4752 10.915 65.1752 11.895 65.7119 13.085C66.2485 14.2517 66.5402 15.6167 66.5869 17.18C66.6102 18.2767 66.3769 19.1283 65.8869 19.735C65.3969 20.3183 64.6385 20.61 63.6119 20.61H57.1369C56.4835 20.61 56.0052 20.365 55.7019 19.875C55.3985 19.385 55.2469 18.8133 55.2469 18.16C55.2469 17.5067 55.4219 16.9233 55.7719 16.41C56.1219 15.8733 56.6002 15.605 57.2069 15.605H60.5319C60.5319 15.325 60.4735 15.0217 60.3569 14.695C60.2635 14.3683 60.1002 14.0767 59.8669 13.82C59.6569 13.54 59.3535 13.3183 58.9569 13.155C58.5602 12.9683 58.0585 12.875 57.4519 12.875C56.2619 12.875 55.3285 13.2833 54.6519 14.1C53.9752 14.8933 53.6369 16.1883 53.6369 17.985C53.6369 19.7117 53.9869 20.9717 54.6869 21.765C55.3869 22.5583 56.3785 22.99 57.6619 23.06C58.2919 23.1067 58.9569 23.0717 59.6569 22.955C60.3802 22.815 61.0802 22.5583 61.7569 22.185C62.1069 22.0217 62.4685 21.9283 62.8419 21.905C63.2152 21.8817 63.5652 21.9283 63.8919 22.045C64.2185 22.1617 64.4985 22.36 64.7319 22.64C64.9885 22.92 65.1752 23.27 65.2919 23.69C65.4085 24.0867 65.4202 24.46 65.3269 24.81C65.2335 25.1367 65.0935 25.4283 64.9069 25.685C64.7435 25.9417 64.5569 26.1517 64.3469 26.315C64.1369 26.5017 63.9619 26.63 63.8219 26.7C62.9585 27.2133 61.9552 27.5983 60.8119 27.855C59.6685 28.1117 58.5019 28.205 57.3119 28.135C55.5852 28.0417 54.1035 27.7033 52.8669 27.12C51.6302 26.56 50.6152 25.825 49.8219 24.915C49.0519 24.005 48.4802 22.955 48.1069 21.765C47.7569 20.575 47.5819 19.315 47.5819 17.985ZM76.0771 20.435C76.1004 20.855 76.1821 21.17 76.3221 21.38C76.4854 21.59 76.6721 21.73 76.8821 21.8C77.1154 21.87 77.3487 21.8933 77.5821 21.87C77.8387 21.8467 78.0721 21.8117 78.2821 21.765C79.5887 21.4617 80.4871 21.8233 80.9771 22.85C81.3504 23.5967 81.4204 24.32 81.1871 25.02C80.9537 25.72 80.5337 26.2683 79.9271 26.665C79.3904 27.0617 78.7487 27.3533 78.0021 27.54C77.2787 27.7267 76.5087 27.8083 75.6921 27.785C73.7787 27.7383 72.3787 27.1083 71.4921 25.895C70.6287 24.6583 70.1737 23.0017 70.1271 20.925C70.1037 19.7117 70.0804 18.4983 70.0571 17.285C70.0571 16.0483 70.0571 14.8117 70.0571 13.575H69.2521C68.9254 13.575 68.6221 13.4933 68.3421 13.33C68.0854 13.1667 67.8637 12.9567 67.6771 12.7C67.4904 12.4433 67.3387 12.1517 67.2221 11.825C67.1287 11.4983 67.0821 11.1833 67.0821 10.88C67.0821 10.5533 67.1287 10.2267 67.2221 9.9C67.3387 9.57333 67.4904 9.27 67.6771 8.99C67.8637 8.71 68.0854 8.48833 68.3421 8.325C68.6221 8.13833 68.9254 8.045 69.2521 8.045H70.0921C70.1154 7.485 70.1271 6.94833 70.1271 6.435C70.1504 5.89833 70.1737 5.37333 70.1971 4.86C70.1971 4.44 70.2904 4.07833 70.4771 3.775C70.6871 3.47167 70.9437 3.22667 71.2471 3.04C71.5737 2.83 71.9237 2.69 72.2971 2.62C72.6704 2.52666 73.0321 2.49167 73.3821 2.515C74.1287 2.56167 74.7704 2.80667 75.3071 3.25C75.8671 3.67 76.1471 4.25333 76.1471 5C76.1237 5.51333 76.1004 6.02667 76.0771 6.54C76.0771 7.03 76.0771 7.53167 76.0771 8.045H78.2471C78.9937 8.045 79.5537 8.325 79.9271 8.885C80.3004 9.445 80.4871 10.0983 80.4871 10.845C80.4871 11.1483 80.4404 11.4633 80.3471 11.79C80.2537 12.0933 80.1137 12.385 79.9271 12.665C79.7404 12.9217 79.5071 13.1433 79.2271 13.33C78.9471 13.4933 78.6087 13.575 78.2121 13.575H75.9021C75.8787 14.695 75.8787 15.8267 75.9021 16.97C75.9254 18.1133 75.9837 19.2683 76.0771 20.435ZM90.0402 10.74C90.1102 13.0267 90.1568 15.36 90.1802 17.74C90.2035 20.0967 90.1568 22.6633 90.0402 25.44C90.0168 25.7667 89.9002 26.07 89.6902 26.35C89.5035 26.6533 89.2585 26.91 88.9552 27.12C88.6518 27.3533 88.3018 27.5283 87.9052 27.645C87.5318 27.7617 87.1585 27.8083 86.7852 27.785C86.0152 27.7383 85.3502 27.47 84.7902 26.98C84.2535 26.5133 83.9852 25.9183 83.9852 25.195C84.0318 23.8883 84.0552 22.64 84.0552 21.45C84.0785 20.26 84.0902 19.0933 84.0902 17.95C84.0902 16.7833 84.0785 15.6283 84.0552 14.485C84.0552 13.3183 84.0435 12.1167 84.0202 10.88C84.0202 10.18 84.2768 9.60833 84.7902 9.165C85.3268 8.72167 85.9685 8.465 86.7152 8.395C87.1118 8.34833 87.5085 8.37167 87.9052 8.465C88.3018 8.55833 88.6518 8.69833 88.9552 8.885C89.2818 9.07167 89.5385 9.32833 89.7252 9.655C89.9352 9.95833 90.0402 10.32 90.0402 10.74ZM90.0752 4.23C90.0518 4.65 89.9352 5.01167 89.7252 5.315C89.5385 5.61833 89.2935 5.875 88.9902 6.085C88.6868 6.27167 88.3368 6.41167 87.9402 6.505C87.5435 6.575 87.1352 6.59833 86.7152 6.575C85.9452 6.505 85.3152 6.28333 84.8252 5.91C84.3352 5.51333 84.0785 5.035 84.0552 4.475L84.0202 3.11C83.9968 2.73667 84.0785 2.41 84.2652 2.13C84.4518 1.82666 84.6852 1.58167 84.9652 1.395C85.2685 1.20833 85.5835 1.06833 85.9102 0.974999C86.2602 0.858332 86.5868 0.799999 86.8902 0.799999C87.6368 0.799999 88.3368 0.963332 88.9902 1.29C89.6668 1.59333 90.0285 2.07167 90.0752 2.725V4.23ZM101.642 14.625C101.642 16.445 101.654 18.2533 101.677 20.05C101.7 21.8233 101.735 23.55 101.782 25.23C101.782 25.9067 101.537 26.4783 101.047 26.945C100.58 27.435 99.9152 27.715 99.0518 27.785C98.6785 27.8317 98.2935 27.8083 97.8968 27.715C97.5235 27.6217 97.1852 27.47 96.8818 27.26C96.5785 27.05 96.3218 26.7817 96.1118 26.455C95.9252 26.1517 95.8318 25.79 95.8318 25.37C95.7852 23.7133 95.7385 21.9867 95.6918 20.19C95.6452 18.37 95.6218 16.515 95.6218 14.625H94.8868C94.5602 14.625 94.2568 14.5433 93.9768 14.38C93.7202 14.2167 93.4985 14.0067 93.3118 13.75C93.1252 13.47 92.9735 13.1667 92.8568 12.84C92.7635 12.5133 92.7168 12.1983 92.7168 11.895C92.7168 11.5917 92.7635 11.2767 92.8568 10.95C92.9735 10.6233 93.1252 10.32 93.3118 10.04C93.4985 9.76 93.7202 9.53833 93.9768 9.375C94.2568 9.18833 94.5602 9.095 94.8868 9.095H95.7618C95.8318 7.695 96.0418 6.505 96.3918 5.525C96.7418 4.52167 97.1852 3.705 97.7218 3.075C98.2818 2.445 98.9118 1.97833 99.6118 1.675C100.335 1.34833 101.094 1.16167 101.887 1.115C102.424 1.06833 103.007 1.06833 103.637 1.115C104.267 1.16167 104.78 1.24333 105.177 1.36C105.97 1.54667 106.53 1.94333 106.857 2.55C107.207 3.13333 107.312 3.76333 107.172 4.44C107.102 4.79 106.997 5.11667 106.857 5.42C106.74 5.72333 106.554 5.99167 106.297 6.225C106.04 6.435 105.702 6.59833 105.282 6.715C104.885 6.83167 104.384 6.86667 103.777 6.82C103.24 6.77333 102.774 6.93667 102.377 7.31C101.98 7.66 101.759 8.255 101.712 9.095H104.512C105.282 9.095 105.842 9.375 106.192 9.935C106.565 10.4717 106.752 11.1133 106.752 11.86C106.752 12.1633 106.705 12.4783 106.612 12.805C106.542 13.1317 106.414 13.435 106.227 13.715C106.04 13.9717 105.807 14.1933 105.527 14.38C105.247 14.5433 104.909 14.625 104.512 14.625H101.642ZM114.973 18.055C114.973 19.105 115.218 19.8283 115.708 20.225C116.222 20.5983 116.805 20.785 117.458 20.785H117.843C118.497 20.785 118.987 21.03 119.313 21.52C119.64 21.9867 119.803 22.5933 119.803 23.34C119.803 24.0167 119.64 24.6233 119.313 25.16C119.01 25.6967 118.52 25.965 117.843 25.965H117.108C115.755 25.965 114.565 25.7667 113.538 25.37C112.512 24.95 111.66 24.39 110.983 23.69C110.33 22.9667 109.828 22.115 109.478 21.135C109.152 20.1317 108.988 19.0467 108.988 17.88C108.988 17.2967 108.988 16.655 108.988 15.955C108.988 15.255 108.988 14.555 108.988 13.855C109.012 13.155 109.023 12.49 109.023 11.86C109.047 11.2067 109.07 10.6467 109.093 10.18C109.117 9.92333 109.175 9.66667 109.268 9.41C109.385 9.13 109.56 8.885 109.793 8.675C110.027 8.44167 110.33 8.255 110.703 8.115C111.1 7.975 111.578 7.905 112.138 7.905C112.675 7.905 113.13 7.975 113.503 8.115C113.877 8.255 114.18 8.44167 114.413 8.675C114.67 8.885 114.845 9.13 114.938 9.41C115.055 9.66667 115.113 9.935 115.113 10.215C115.113 10.7517 115.102 11.3817 115.078 12.105C115.078 12.805 115.067 13.5167 115.043 14.24C115.02 14.9633 114.997 15.6633 114.973 16.34C114.973 16.9933 114.973 17.565 114.973 18.055ZM120.888 24.285C120.982 22.2317 121.005 20.0733 120.958 17.81C120.935 15.5233 120.888 13.0383 120.818 10.355C120.818 10.075 120.865 9.795 120.958 9.515C121.075 9.235 121.25 8.97833 121.483 8.745C121.74 8.48833 122.055 8.29 122.428 8.15C122.825 7.98667 123.292 7.905 123.828 7.905C124.902 7.905 125.66 8.16167 126.103 8.675C126.57 9.165 126.815 9.73667 126.838 10.39C126.885 12.5833 126.885 14.8233 126.838 17.11C126.792 19.3733 126.792 21.5667 126.838 23.69C126.862 25.4633 126.617 26.9683 126.103 28.205C125.59 29.465 124.902 30.48 124.038 31.25C123.175 32.02 122.183 32.5683 121.063 32.895C119.967 33.245 118.823 33.4083 117.633 33.385C116.537 33.3617 115.498 33.245 114.518 33.035C113.562 32.8483 112.757 32.5333 112.103 32.09C111.893 31.9733 111.672 31.8217 111.438 31.635C111.228 31.4483 111.042 31.2267 110.878 30.97C110.738 30.7133 110.633 30.41 110.563 30.06C110.517 29.7333 110.552 29.36 110.668 28.94C110.785 28.5667 110.96 28.2517 111.193 27.995C111.45 27.7383 111.73 27.54 112.033 27.4C112.36 27.2833 112.698 27.225 113.048 27.225C113.398 27.2483 113.725 27.33 114.028 27.47C114.705 27.7967 115.323 28.0067 115.883 28.1C116.443 28.1933 117.062 28.24 117.738 28.24C119.698 28.24 120.748 26.9217 120.888 24.285Z" fill="#FFA63D"/>
</svg>