<svg width="110" height="29" viewBox="0 0 110 29" fill="none" xmlns="http://www.w3.org/2000/svg">
<path d="M10.85 23.23C10.33 23.23 9.88 23.1 9.5 22.84C9.14 22.6 8.86 22.28 8.66 21.88C8.44 21.4 8.18 20.82 7.88 20.14C7.6 19.44 7.3 18.69 6.98 17.89C6.68 17.09 6.37 16.26 6.05 15.4C5.75 14.54 5.48 13.7 5.24 12.88C5.22 14.04 5.21 15.03 5.21 15.85C5.23 16.67 5.25 17.41 5.27 18.07C5.31 18.71 5.35 19.3 5.39 19.84C5.45 20.36 5.51 20.9 5.57 21.46C5.61 22.04 5.42 22.51 5 22.87C4.58 23.25 4.06 23.47 3.44 23.53C2.74 23.61 2.19 23.49 1.79 23.17C1.41 22.87 1.19 22.46 1.13 21.94C1.07 21.4 1.01 20.67 0.95 19.75C0.91 18.81 0.87 17.76 0.83 16.6C0.81 15.44 0.79 14.21 0.77 12.91C0.77 11.61 0.78 10.33 0.8 9.07C0.82 7.81 0.86 6.61 0.92 5.47C0.98 4.31 1.06 3.29 1.16 2.41C1.24 1.79 1.49 1.35 1.91 1.09C2.35 0.809999 2.87 0.669999 3.47 0.669999C4.15 0.669999 4.65 0.829999 4.97 1.15C5.29 1.47 5.51 1.79 5.63 2.11C6.19 3.87 6.74 5.56 7.28 7.18C7.84 8.8 8.35 10.26 8.81 11.56C9.29 12.86 9.71 13.97 10.07 14.89C10.43 15.79 10.69 16.43 10.85 16.81C11.03 16.43 11.3 15.79 11.66 14.89C12.02 13.97 12.43 12.86 12.89 11.56C13.37 10.26 13.89 8.8 14.45 7.18C15.01 5.56 15.57 3.87 16.13 2.11C16.25 1.79 16.47 1.47 16.79 1.15C17.11 0.829999 17.59 0.669999 18.23 0.669999C18.87 0.669999 19.4 0.809999 19.82 1.09C20.26 1.35 20.52 1.79 20.6 2.41C20.7 3.27 20.78 4.28 20.84 5.44C20.9 6.6 20.94 7.81 20.96 9.07C20.98 10.33 20.98 11.61 20.96 12.91C20.96 14.21 20.94 15.44 20.9 16.6C20.88 17.76 20.84 18.81 20.78 19.75C20.74 20.67 20.69 21.4 20.63 21.94C20.57 22.46 20.34 22.87 19.94 23.17C19.54 23.49 18.99 23.61 18.29 23.53C17.69 23.47 17.18 23.25 16.76 22.87C16.34 22.51 16.15 22.04 16.19 21.46C16.25 20.9 16.3 20.36 16.34 19.84C16.4 19.3 16.44 18.71 16.46 18.07C16.5 17.41 16.52 16.67 16.52 15.85C16.54 15.03 16.54 14.04 16.52 12.88C16.28 13.7 16 14.54 15.68 15.4C15.38 16.26 15.07 17.09 14.75 17.89C14.45 18.69 14.15 19.44 13.85 20.14C13.57 20.82 13.32 21.4 13.1 21.88C12.9 22.28 12.61 22.6 12.23 22.84C11.85 23.1 11.39 23.23 10.85 23.23ZM23.5984 15.13C23.5984 13.89 23.7784 12.74 24.1384 11.68C24.4984 10.6 25.0284 9.67 25.7284 8.89C26.4484 8.11 27.3284 7.5 28.3684 7.06C29.4084 6.6 30.5984 6.37 31.9384 6.37C32.9384 6.37 33.9084 6.54 34.8484 6.88C35.7884 7.22 36.6184 7.73 37.3384 8.41C38.0784 9.07 38.6784 9.91 39.1384 10.93C39.5984 11.93 39.8484 13.1 39.8884 14.44C39.9084 15.38 39.7084 16.11 39.2884 16.63C38.8684 17.13 38.2184 17.38 37.3384 17.38H31.7884C31.2284 17.38 30.8184 17.17 30.5584 16.75C30.2984 16.33 30.1684 15.84 30.1684 15.28C30.1684 14.72 30.3184 14.22 30.6184 13.78C30.9184 13.32 31.3284 13.09 31.8484 13.09H34.6984C34.6984 12.85 34.6484 12.59 34.5484 12.31C34.4684 12.03 34.3284 11.78 34.1284 11.56C33.9484 11.32 33.6884 11.13 33.3484 10.99C33.0084 10.83 32.5784 10.75 32.0584 10.75C31.0384 10.75 30.2384 11.1 29.6584 11.8C29.0784 12.48 28.7884 13.59 28.7884 15.13C28.7884 16.61 29.0884 17.69 29.6884 18.37C30.2884 19.05 31.1384 19.42 32.2384 19.48C32.7784 19.52 33.3484 19.49 33.9484 19.39C34.5684 19.27 35.1684 19.05 35.7484 18.73C36.0484 18.59 36.3584 18.51 36.6784 18.49C36.9984 18.47 37.2984 18.51 37.5784 18.61C37.8584 18.71 38.0984 18.88 38.2984 19.12C38.5184 19.36 38.6784 19.66 38.7784 20.02C38.8784 20.36 38.8884 20.68 38.8084 20.98C38.7284 21.26 38.6084 21.51 38.4484 21.73C38.3084 21.95 38.1484 22.13 37.9684 22.27C37.7884 22.43 37.6384 22.54 37.5184 22.6C36.7784 23.04 35.9184 23.37 34.9384 23.59C33.9584 23.81 32.9584 23.89 31.9384 23.83C30.4584 23.75 29.1884 23.46 28.1284 22.96C27.0684 22.48 26.1984 21.85 25.5184 21.07C24.8584 20.29 24.3684 19.39 24.0484 18.37C23.7484 17.35 23.5984 16.27 23.5984 15.13ZM41.4988 15.13C41.4988 13.89 41.6788 12.74 42.0388 11.68C42.3988 10.6 42.9288 9.67 43.6288 8.89C44.3488 8.11 45.2288 7.5 46.2688 7.06C47.3088 6.6 48.4988 6.37 49.8388 6.37C50.8388 6.37 51.8088 6.54 52.7488 6.88C53.6888 7.22 54.5188 7.73 55.2388 8.41C55.9788 9.07 56.5788 9.91 57.0388 10.93C57.4988 11.93 57.7488 13.1 57.7888 14.44C57.8088 15.38 57.6088 16.11 57.1888 16.63C56.7688 17.13 56.1188 17.38 55.2388 17.38H49.6888C49.1288 17.38 48.7188 17.17 48.4588 16.75C48.1988 16.33 48.0688 15.84 48.0688 15.28C48.0688 14.72 48.2188 14.22 48.5188 13.78C48.8188 13.32 49.2288 13.09 49.7488 13.09H52.5988C52.5988 12.85 52.5488 12.59 52.4488 12.31C52.3688 12.03 52.2288 11.78 52.0288 11.56C51.8488 11.32 51.5888 11.13 51.2488 10.99C50.9088 10.83 50.4788 10.75 49.9588 10.75C48.9388 10.75 48.1388 11.1 47.5588 11.8C46.9788 12.48 46.6888 13.59 46.6888 15.13C46.6888 16.61 46.9888 17.69 47.5888 18.37C48.1888 19.05 49.0388 19.42 50.1388 19.48C50.6788 19.52 51.2488 19.49 51.8488 19.39C52.4688 19.27 53.0688 19.05 53.6488 18.73C53.9488 18.59 54.2588 18.51 54.5788 18.49C54.8988 18.47 55.1988 18.51 55.4788 18.61C55.7588 18.71 55.9988 18.88 56.1988 19.12C56.4188 19.36 56.5788 19.66 56.6788 20.02C56.7788 20.36 56.7888 20.68 56.7088 20.98C56.6288 21.26 56.5088 21.51 56.3488 21.73C56.2088 21.95 56.0487 22.13 55.8687 22.27C55.6888 22.43 55.5388 22.54 55.4188 22.6C54.6788 23.04 53.8188 23.37 52.8388 23.59C51.8588 23.81 50.8588 23.89 49.8388 23.83C48.3588 23.75 47.0888 23.46 46.0288 22.96C44.9688 22.48 44.0988 21.85 43.4188 21.07C42.7588 20.29 42.2688 19.39 41.9488 18.37C41.6488 17.35 41.4988 16.27 41.4988 15.13ZM65.9232 17.23C65.9432 17.59 66.0132 17.86 66.1332 18.04C66.2732 18.22 66.4332 18.34 66.6132 18.4C66.8132 18.46 67.0132 18.48 67.2132 18.46C67.4332 18.44 67.6332 18.41 67.8132 18.37C68.9332 18.11 69.7032 18.42 70.1232 19.3C70.4432 19.94 70.5032 20.56 70.3032 21.16C70.1032 21.76 69.7432 22.23 69.2232 22.57C68.7632 22.91 68.2132 23.16 67.5732 23.32C66.9532 23.48 66.2932 23.55 65.5932 23.53C63.9532 23.49 62.7532 22.95 61.9932 21.91C61.2532 20.85 60.8632 19.43 60.8232 17.65C60.8032 16.61 60.7832 15.57 60.7632 14.53C60.7632 13.47 60.7632 12.41 60.7632 11.35H60.0732C59.7932 11.35 59.5332 11.28 59.2932 11.14C59.0732 11 58.8832 10.82 58.7232 10.6C58.5632 10.38 58.4332 10.13 58.3332 9.85C58.2532 9.57 58.2132 9.3 58.2132 9.04C58.2132 8.76 58.2532 8.48 58.3332 8.2C58.4332 7.92 58.5632 7.66 58.7232 7.42C58.8832 7.18 59.0732 6.99 59.2932 6.85C59.5332 6.69 59.7932 6.61 60.0732 6.61H60.7932C60.8132 6.13 60.8232 5.67 60.8232 5.23C60.8432 4.77 60.8632 4.32 60.8832 3.88C60.8832 3.52 60.9632 3.21 61.1232 2.95C61.3032 2.69 61.5232 2.48 61.7832 2.32C62.0632 2.14 62.3632 2.02 62.6832 1.96C63.0032 1.88 63.3132 1.85 63.6132 1.87C64.2532 1.91 64.8032 2.12 65.2632 2.5C65.7432 2.86 65.9832 3.36 65.9832 4C65.9632 4.44 65.9432 4.88 65.9232 5.32C65.9232 5.74 65.9232 6.17 65.9232 6.61H67.7832C68.4232 6.61 68.9032 6.85 69.2232 7.33C69.5432 7.81 69.7032 8.37 69.7032 9.01C69.7032 9.27 69.6632 9.54 69.5832 9.82C69.5032 10.08 69.3832 10.33 69.2232 10.57C69.0632 10.79 68.8632 10.98 68.6232 11.14C68.3832 11.28 68.0932 11.35 67.7532 11.35H65.7732C65.7532 12.31 65.7532 13.28 65.7732 14.26C65.7932 15.24 65.8432 16.23 65.9232 17.23ZM77.8916 8.92C77.9516 10.88 77.9916 12.88 78.0116 14.92C78.0316 16.94 77.9916 19.14 77.8916 21.52C77.8716 21.8 77.7716 22.06 77.5916 22.3C77.4316 22.56 77.2216 22.78 76.9616 22.96C76.7016 23.16 76.4016 23.31 76.0616 23.41C75.7416 23.51 75.4216 23.55 75.1016 23.53C74.4416 23.49 73.8716 23.26 73.3916 22.84C72.9316 22.44 72.7016 21.93 72.7016 21.31C72.7416 20.19 72.7616 19.12 72.7616 18.1C72.7816 17.08 72.7916 16.08 72.7916 15.1C72.7916 14.1 72.7816 13.11 72.7616 12.13C72.7616 11.13 72.7516 10.1 72.7316 9.04C72.7316 8.44 72.9516 7.95 73.3916 7.57C73.8516 7.19 74.4016 6.97 75.0416 6.91C75.3816 6.87 75.7216 6.89 76.0616 6.97C76.4016 7.05 76.7016 7.17 76.9616 7.33C77.2416 7.49 77.4616 7.71 77.6216 7.99C77.8016 8.25 77.8916 8.56 77.8916 8.92ZM77.9216 3.34C77.9016 3.7 77.8016 4.01 77.6216 4.27C77.4616 4.53 77.2516 4.75 76.9916 4.93C76.7316 5.09 76.4316 5.21 76.0916 5.29C75.7516 5.35 75.4016 5.37 75.0416 5.35C74.3816 5.29 73.8416 5.1 73.4216 4.78C73.0016 4.44 72.7816 4.03 72.7616 3.55L72.7316 2.38C72.7116 2.06 72.7816 1.78 72.9416 1.54C73.1016 1.28 73.3016 1.07 73.5416 0.91C73.8016 0.749999 74.0716 0.629999 74.3516 0.549999C74.6516 0.449999 74.9316 0.399999 75.1916 0.399999C75.8316 0.399999 76.4316 0.539999 76.9916 0.819999C77.5716 1.08 77.8816 1.49 77.9216 2.05V3.34ZM87.8359 12.25C87.8359 13.81 87.8459 15.36 87.8659 16.9C87.8859 18.42 87.9159 19.9 87.9559 21.34C87.9559 21.92 87.7459 22.41 87.3259 22.81C86.9259 23.23 86.3559 23.47 85.6159 23.53C85.2959 23.57 84.9659 23.55 84.6259 23.47C84.3059 23.39 84.0159 23.26 83.7559 23.08C83.4959 22.9 83.2759 22.67 83.0959 22.39C82.9359 22.13 82.8559 21.82 82.8559 21.46C82.8159 20.04 82.7759 18.56 82.7359 17.02C82.6959 15.46 82.6759 13.87 82.6759 12.25H82.0459C81.7659 12.25 81.5059 12.18 81.2659 12.04C81.0459 11.9 80.8559 11.72 80.6959 11.5C80.5359 11.26 80.4059 11 80.3059 10.72C80.2259 10.44 80.1859 10.17 80.1859 9.91C80.1859 9.65 80.2259 9.38 80.3059 9.1C80.4059 8.82 80.5359 8.56 80.6959 8.32C80.8559 8.08 81.0459 7.89 81.2659 7.75C81.5059 7.59 81.7659 7.51 82.0459 7.51H82.7959C82.8559 6.31 83.0359 5.29 83.3359 4.45C83.6359 3.59 84.0159 2.89 84.4759 2.35C84.9559 1.81 85.4959 1.41 86.0959 1.15C86.7159 0.869998 87.3659 0.709999 88.0459 0.669999C88.5059 0.629999 89.0059 0.629999 89.5459 0.669999C90.0859 0.709999 90.5259 0.779998 90.8659 0.879998C91.5459 1.04 92.0259 1.38 92.3059 1.9C92.6059 2.4 92.6959 2.94 92.5759 3.52C92.5159 3.82 92.4259 4.1 92.3059 4.36C92.2059 4.62 92.0459 4.85 91.8259 5.05C91.6059 5.23 91.3159 5.37 90.9559 5.47C90.6159 5.57 90.1859 5.6 89.6659 5.56C89.2059 5.52 88.8059 5.66 88.4659 5.98C88.1259 6.28 87.9359 6.79 87.8959 7.51H90.2959C90.9559 7.51 91.4359 7.75 91.7359 8.23C92.0559 8.69 92.2159 9.24 92.2159 9.88C92.2159 10.14 92.1759 10.41 92.0959 10.69C92.0359 10.97 91.9259 11.23 91.7659 11.47C91.6059 11.69 91.4059 11.88 91.1659 12.04C90.9259 12.18 90.6359 12.25 90.2959 12.25H87.8359ZM99.2628 15.19C99.2628 16.09 99.4728 16.71 99.8928 17.05C100.333 17.37 100.833 17.53 101.393 17.53H101.723C102.283 17.53 102.703 17.74 102.983 18.16C103.263 18.56 103.403 19.08 103.403 19.72C103.403 20.3 103.263 20.82 102.983 21.28C102.723 21.74 102.303 21.97 101.723 21.97H101.093C99.9328 21.97 98.9128 21.8 98.0328 21.46C97.1528 21.1 96.4228 20.62 95.8428 20.02C95.2828 19.4 94.8528 18.67 94.5528 17.83C94.2728 16.97 94.1328 16.04 94.1328 15.04C94.1328 14.54 94.1328 13.99 94.1328 13.39C94.1328 12.79 94.1328 12.19 94.1328 11.59C94.1528 10.99 94.1628 10.42 94.1628 9.88C94.1828 9.32 94.2028 8.84 94.2228 8.44C94.2428 8.22 94.2928 8 94.3728 7.78C94.4728 7.54 94.6228 7.33 94.8228 7.15C95.0228 6.95 95.2828 6.79 95.6028 6.67C95.9428 6.55 96.3528 6.49 96.8328 6.49C97.2928 6.49 97.6828 6.55 98.0028 6.67C98.3228 6.79 98.5828 6.95 98.7828 7.15C99.0028 7.33 99.1528 7.54 99.2328 7.78C99.3328 8 99.3828 8.23 99.3828 8.47C99.3828 8.93 99.3728 9.47 99.3528 10.09C99.3528 10.69 99.3428 11.3 99.3228 11.92C99.3028 12.54 99.2828 13.14 99.2628 13.72C99.2628 14.28 99.2628 14.77 99.2628 15.19ZM104.333 20.53C104.413 18.77 104.433 16.92 104.393 14.98C104.373 13.02 104.333 10.89 104.273 8.59C104.273 8.35 104.313 8.11 104.393 7.87C104.493 7.63 104.643 7.41 104.843 7.21C105.063 6.99 105.333 6.82 105.653 6.7C105.993 6.56 106.393 6.49 106.853 6.49C107.773 6.49 108.423 6.71 108.803 7.15C109.203 7.57 109.413 8.06 109.433 8.62C109.473 10.5 109.473 12.42 109.433 14.38C109.393 16.32 109.393 18.2 109.433 20.02C109.453 21.54 109.243 22.83 108.803 23.89C108.363 24.97 107.773 25.84 107.033 26.5C106.293 27.16 105.443 27.63 104.483 27.91C103.543 28.21 102.563 28.35 101.543 28.33C100.603 28.31 99.7128 28.21 98.8728 28.03C98.0528 27.87 97.3628 27.6 96.8028 27.22C96.6228 27.12 96.4328 26.99 96.2328 26.83C96.0528 26.67 95.8928 26.48 95.7528 26.26C95.6328 26.04 95.5428 25.78 95.4828 25.48C95.4428 25.2 95.4728 24.88 95.5728 24.52C95.6728 24.2 95.8228 23.93 96.0228 23.71C96.2428 23.49 96.4828 23.32 96.7428 23.2C97.0228 23.1 97.3128 23.05 97.6128 23.05C97.9128 23.07 98.1928 23.14 98.4528 23.26C99.0328 23.54 99.5628 23.72 100.043 23.8C100.523 23.88 101.053 23.92 101.633 23.92C103.313 23.92 104.213 22.79 104.333 20.53Z" fill="#FFA63D"/>
</svg>
