<svg width="183" height="47" viewBox="0 0 183 47" fill="none" xmlns="http://www.w3.org/2000/svg">
<path d="M17.75 38.05C16.8833 38.05 16.1333 37.8333 15.5 37.4C14.9 37 14.4333 36.4667 14.1 35.8C13.7333 35 13.3 34.0333 12.8 32.9C12.3333 31.7333 11.8333 30.4833 11.3 29.15C10.8 27.8167 10.2833 26.4333 9.75 25C9.25 23.5667 8.8 22.1667 8.4 20.8C8.36667 22.7333 8.35 24.3833 8.35 25.75C8.38333 27.1167 8.41667 28.35 8.45 29.45C8.51667 30.5167 8.58333 31.5 8.65 32.4C8.75 33.2667 8.85 34.1667 8.95 35.1C9.01667 36.0667 8.7 36.85 8 37.45C7.3 38.0833 6.43333 38.45 5.4 38.55C4.23333 38.6833 3.31667 38.4833 2.65 37.95C2.01667 37.45 1.65 36.7667 1.55 35.9C1.45 35 1.35 33.7833 1.25 32.25C1.18333 30.6833 1.11667 28.9333 1.05 27C1.01667 25.0667 0.983333 23.0167 0.95 20.85C0.95 18.6833 0.966667 16.55 1 14.45C1.03333 12.35 1.1 10.35 1.2 8.45C1.3 6.51667 1.43333 4.81666 1.6 3.35C1.73333 2.31667 2.15 1.58333 2.85 1.15C3.58333 0.683332 4.45 0.449999 5.45 0.449999C6.58333 0.449999 7.41667 0.716665 7.95 1.25C8.48333 1.78333 8.85 2.31667 9.05 2.85C9.98333 5.78333 10.9 8.6 11.8 11.3C12.7333 14 13.5833 16.4333 14.35 18.6C15.15 20.7667 15.85 22.6167 16.45 24.15C17.05 25.65 17.4833 26.7167 17.75 27.35C18.05 26.7167 18.5 25.65 19.1 24.15C19.7 22.6167 20.3833 20.7667 21.15 18.6C21.95 16.4333 22.8167 14 23.75 11.3C24.6833 8.6 25.6167 5.78333 26.55 2.85C26.75 2.31667 27.1167 1.78333 27.65 1.25C28.1833 0.716665 28.9833 0.449999 30.05 0.449999C31.1167 0.449999 32 0.683332 32.7 1.15C33.4333 1.58333 33.8667 2.31667 34 3.35C34.1667 4.78333 34.3 6.46667 34.4 8.4C34.5 10.3333 34.5667 12.35 34.6 14.45C34.6333 16.55 34.6333 18.6833 34.6 20.85C34.6 23.0167 34.5667 25.0667 34.5 27C34.4667 28.9333 34.4 30.6833 34.3 32.25C34.2333 33.7833 34.15 35 34.05 35.9C33.95 36.7667 33.5667 37.45 32.9 37.95C32.2333 38.4833 31.3167 38.6833 30.15 38.55C29.15 38.45 28.3 38.0833 27.6 37.45C26.9 36.85 26.5833 36.0667 26.65 35.1C26.75 34.1667 26.8333 33.2667 26.9 32.4C27 31.5 27.0667 30.5167 27.1 29.45C27.1667 28.35 27.2 27.1167 27.2 25.75C27.2333 24.3833 27.2333 22.7333 27.2 20.8C26.8 22.1667 26.3333 23.5667 25.8 25C25.3 26.4333 24.7833 27.8167 24.25 29.15C23.75 30.4833 23.25 31.7333 22.75 32.9C22.2833 34.0333 21.8667 35 21.5 35.8C21.1667 36.4667 20.6833 37 20.05 37.4C19.4167 37.8333 18.65 38.05 17.75 38.05ZM38.9973 24.55C38.9973 22.4833 39.2973 20.5667 39.8973 18.8C40.4973 17 41.3806 15.45 42.5473 14.15C43.7473 12.85 45.2139 11.8333 46.9473 11.1C48.6806 10.3333 50.6639 9.95 52.8973 9.95C54.5639 9.95 56.1806 10.2333 57.7473 10.8C59.3139 11.3667 60.6973 12.2167 61.8973 13.35C63.1306 14.45 64.1306 15.85 64.8973 17.55C65.6639 19.2167 66.0806 21.1667 66.1473 23.4C66.1806 24.9667 65.8473 26.1833 65.1473 27.05C64.4473 27.8833 63.3639 28.3 61.8973 28.3H52.6473C51.7139 28.3 51.0306 27.95 50.5973 27.25C50.1639 26.55 49.9473 25.7333 49.9473 24.8C49.9473 23.8667 50.1973 23.0333 50.6973 22.3C51.1973 21.5333 51.8806 21.15 52.7473 21.15H57.4973C57.4973 20.75 57.4139 20.3167 57.2473 19.85C57.1139 19.3833 56.8806 18.9667 56.5473 18.6C56.2473 18.2 55.8139 17.8833 55.2473 17.65C54.6806 17.3833 53.9639 17.25 53.0973 17.25C51.3973 17.25 50.0639 17.8333 49.0973 19C48.1306 20.1333 47.6473 21.9833 47.6473 24.55C47.6473 27.0167 48.1473 28.8167 49.1473 29.95C50.1473 31.0833 51.5639 31.7 53.3973 31.8C54.2973 31.8667 55.2473 31.8167 56.2473 31.65C57.2806 31.45 58.2806 31.0833 59.2473 30.55C59.7473 30.3167 60.2639 30.1833 60.7973 30.15C61.3306 30.1167 61.8306 30.1833 62.2973 30.35C62.7639 30.5167 63.1639 30.8 63.4973 31.2C63.8639 31.6 64.1306 32.1 64.2973 32.7C64.4639 33.2667 64.4806 33.8 64.3473 34.3C64.2139 34.7667 64.0139 35.1833 63.7473 35.55C63.5139 35.9167 63.2473 36.2167 62.9473 36.45C62.6473 36.7167 62.3973 36.9 62.1973 37C60.9639 37.7333 59.5306 38.2833 57.8973 38.65C56.2639 39.0167 54.5973 39.15 52.8973 39.05C50.4306 38.9167 48.3139 38.4333 46.5473 37.6C44.7806 36.8 43.3306 35.75 42.1973 34.45C41.0973 33.15 40.2806 31.65 39.7473 29.95C39.2473 28.25 38.9973 26.45 38.9973 24.55ZM68.8313 24.55C68.8313 22.4833 69.1313 20.5667 69.7313 18.8C70.3313 17 71.2146 15.45 72.3813 14.15C73.5813 12.85 75.0479 11.8333 76.7813 11.1C78.5146 10.3333 80.4979 9.95 82.7313 9.95C84.3979 9.95 86.0146 10.2333 87.5813 10.8C89.1479 11.3667 90.5313 12.2167 91.7313 13.35C92.9646 14.45 93.9646 15.85 94.7313 17.55C95.4979 19.2167 95.9146 21.1667 95.9813 23.4C96.0146 24.9667 95.6813 26.1833 94.9813 27.05C94.2813 27.8833 93.1979 28.3 91.7313 28.3H82.4813C81.5479 28.3 80.8646 27.95 80.4313 27.25C79.9979 26.55 79.7813 25.7333 79.7813 24.8C79.7813 23.8667 80.0313 23.0333 80.5313 22.3C81.0313 21.5333 81.7146 21.15 82.5813 21.15H87.3313C87.3313 20.75 87.2479 20.3167 87.0813 19.85C86.9479 19.3833 86.7146 18.9667 86.3813 18.6C86.0813 18.2 85.6479 17.8833 85.0813 17.65C84.5146 17.3833 83.7979 17.25 82.9313 17.25C81.2313 17.25 79.8979 17.8333 78.9313 19C77.9646 20.1333 77.4813 21.9833 77.4813 24.55C77.4813 27.0167 77.9813 28.8167 78.9813 29.95C79.9813 31.0833 81.3979 31.7 83.2313 31.8C84.1313 31.8667 85.0813 31.8167 86.0813 31.65C87.1146 31.45 88.1146 31.0833 89.0813 30.55C89.5813 30.3167 90.0979 30.1833 90.6313 30.15C91.1646 30.1167 91.6646 30.1833 92.1313 30.35C92.5979 30.5167 92.9979 30.8 93.3313 31.2C93.6979 31.6 93.9646 32.1 94.1313 32.7C94.2979 33.2667 94.3146 33.8 94.1813 34.3C94.0479 34.7667 93.8479 35.1833 93.5813 35.55C93.3479 35.9167 93.0812 36.2167 92.7812 36.45C92.4813 36.7167 92.2313 36.9 92.0313 37C90.7979 37.7333 89.3646 38.2833 87.7313 38.65C86.0979 39.0167 84.4313 39.15 82.7313 39.05C80.2646 38.9167 78.1479 38.4333 76.3813 37.6C74.6146 36.8 73.1646 35.75 72.0313 34.45C70.9313 33.15 70.1146 31.65 69.5813 29.95C69.0813 28.25 68.8313 26.45 68.8313 24.55ZM109.539 28.05C109.572 28.65 109.689 29.1 109.889 29.4C110.122 29.7 110.389 29.9 110.689 30C111.022 30.1 111.355 30.1333 111.689 30.1C112.055 30.0667 112.389 30.0167 112.689 29.95C114.555 29.5167 115.839 30.0333 116.539 31.5C117.072 32.5667 117.172 33.6 116.839 34.6C116.505 35.6 115.905 36.3833 115.039 36.95C114.272 37.5167 113.355 37.9333 112.289 38.2C111.255 38.4667 110.155 38.5833 108.989 38.55C106.255 38.4833 104.255 37.5833 102.989 35.85C101.755 34.0833 101.105 31.7167 101.039 28.75C101.005 27.0167 100.972 25.2833 100.939 23.55C100.939 21.7833 100.939 20.0167 100.939 18.25H99.7887C99.322 18.25 98.8887 18.1333 98.4887 17.9C98.122 17.6667 97.8053 17.3667 97.5387 17C97.272 16.6333 97.0553 16.2167 96.8887 15.75C96.7553 15.2833 96.6887 14.8333 96.6887 14.4C96.6887 13.9333 96.7553 13.4667 96.8887 13C97.0553 12.5333 97.272 12.1 97.5387 11.7C97.8053 11.3 98.122 10.9833 98.4887 10.75C98.8887 10.4833 99.322 10.35 99.7887 10.35H100.989C101.022 9.55 101.039 8.78333 101.039 8.05C101.072 7.28333 101.105 6.53333 101.139 5.8C101.139 5.2 101.272 4.68333 101.539 4.25C101.839 3.81667 102.205 3.46667 102.639 3.2C103.105 2.9 103.605 2.7 104.139 2.6C104.672 2.46666 105.189 2.41666 105.689 2.45C106.755 2.51667 107.672 2.86667 108.439 3.5C109.239 4.1 109.639 4.93333 109.639 6C109.605 6.73333 109.572 7.46667 109.539 8.2C109.539 8.9 109.539 9.61667 109.539 10.35H112.639C113.705 10.35 114.505 10.75 115.039 11.55C115.572 12.35 115.839 13.2833 115.839 14.35C115.839 14.7833 115.772 15.2333 115.639 15.7C115.505 16.1333 115.305 16.55 115.039 16.95C114.772 17.3167 114.439 17.6333 114.039 17.9C113.639 18.1333 113.155 18.25 112.589 18.25H109.289C109.255 19.85 109.255 21.4667 109.289 23.1C109.322 24.7333 109.405 26.3833 109.539 28.05ZM129.486 14.2C129.586 17.4667 129.653 20.8 129.686 24.2C129.719 27.5667 129.653 31.2333 129.486 35.2C129.453 35.6667 129.286 36.1 128.986 36.5C128.719 36.9333 128.369 37.3 127.936 37.6C127.503 37.9333 127.003 38.1833 126.436 38.35C125.903 38.5167 125.369 38.5833 124.836 38.55C123.736 38.4833 122.786 38.1 121.986 37.4C121.219 36.7333 120.836 35.8833 120.836 34.85C120.903 32.9833 120.936 31.2 120.936 29.5C120.969 27.8 120.986 26.1333 120.986 24.5C120.986 22.8333 120.969 21.1833 120.936 19.55C120.936 17.8833 120.919 16.1667 120.886 14.4C120.886 13.4 121.253 12.5833 121.986 11.95C122.753 11.3167 123.669 10.95 124.736 10.85C125.303 10.7833 125.869 10.8167 126.436 10.95C127.003 11.0833 127.503 11.2833 127.936 11.55C128.403 11.8167 128.769 12.1833 129.036 12.65C129.336 13.0833 129.486 13.6 129.486 14.2ZM129.536 4.9C129.503 5.5 129.336 6.01667 129.036 6.45C128.769 6.88333 128.419 7.25 127.986 7.55C127.553 7.81666 127.053 8.01666 126.486 8.15C125.919 8.25 125.336 8.28333 124.736 8.25C123.636 8.15 122.736 7.83333 122.036 7.3C121.336 6.73333 120.969 6.05 120.936 5.25L120.886 3.3C120.853 2.76667 120.969 2.3 121.236 1.9C121.503 1.46666 121.836 1.11666 122.236 0.85C122.669 0.583332 123.119 0.383332 123.586 0.249998C124.086 0.0833318 124.553 -1.43051e-06 124.986 -1.43051e-06C126.053 -1.43051e-06 127.053 0.233332 127.986 0.699998C128.953 1.13333 129.469 1.81667 129.536 2.75V4.9ZM146.06 19.75C146.06 22.35 146.076 24.9333 146.11 27.5C146.143 30.0333 146.193 32.5 146.26 34.9C146.26 35.8667 145.91 36.6833 145.21 37.35C144.543 38.05 143.593 38.45 142.36 38.55C141.826 38.6167 141.276 38.5833 140.71 38.45C140.176 38.3167 139.693 38.1 139.26 37.8C138.826 37.5 138.46 37.1167 138.16 36.65C137.893 36.2167 137.76 35.7 137.76 35.1C137.693 32.7333 137.626 30.2667 137.56 27.7C137.493 25.1 137.46 22.45 137.46 19.75H136.41C135.943 19.75 135.51 19.6333 135.11 19.4C134.743 19.1667 134.426 18.8667 134.16 18.5C133.893 18.1 133.676 17.6667 133.51 17.2C133.376 16.7333 133.31 16.2833 133.31 15.85C133.31 15.4167 133.376 14.9667 133.51 14.5C133.676 14.0333 133.893 13.6 134.16 13.2C134.426 12.8 134.743 12.4833 135.11 12.25C135.51 11.9833 135.943 11.85 136.41 11.85H137.66C137.76 9.85 138.06 8.15 138.56 6.75C139.06 5.31667 139.693 4.15 140.46 3.25C141.26 2.35 142.16 1.68333 143.16 1.25C144.193 0.783331 145.276 0.516665 146.41 0.449999C147.176 0.383331 148.01 0.383331 148.91 0.449999C149.81 0.516665 150.543 0.633331 151.11 0.799997C152.243 1.06666 153.043 1.63333 153.51 2.5C154.01 3.33333 154.16 4.23333 153.96 5.2C153.86 5.7 153.71 6.16667 153.51 6.6C153.343 7.03333 153.076 7.41667 152.71 7.75C152.343 8.05 151.86 8.28333 151.26 8.45C150.693 8.61667 149.976 8.66667 149.11 8.6C148.343 8.53333 147.676 8.76667 147.11 9.3C146.543 9.8 146.226 10.65 146.16 11.85H150.16C151.26 11.85 152.06 12.25 152.56 13.05C153.093 13.8167 153.36 14.7333 153.36 15.8C153.36 16.2333 153.293 16.6833 153.16 17.15C153.06 17.6167 152.876 18.05 152.61 18.45C152.343 18.8167 152.01 19.1333 151.61 19.4C151.21 19.6333 150.726 19.75 150.16 19.75H146.06ZM165.105 24.65C165.105 26.15 165.455 27.1833 166.155 27.75C166.888 28.2833 167.721 28.55 168.655 28.55H169.205C170.138 28.55 170.838 28.9 171.305 29.6C171.771 30.2667 172.005 31.1333 172.005 32.2C172.005 33.1667 171.771 34.0333 171.305 34.8C170.871 35.5667 170.171 35.95 169.205 35.95H168.155C166.221 35.95 164.521 35.6667 163.055 35.1C161.588 34.5 160.371 33.7 159.405 32.7C158.471 31.6667 157.755 30.45 157.255 29.05C156.788 27.6167 156.555 26.0667 156.555 24.4C156.555 23.5667 156.555 22.65 156.555 21.65C156.555 20.65 156.555 19.65 156.555 18.65C156.588 17.65 156.605 16.7 156.605 15.8C156.638 14.8667 156.671 14.0667 156.705 13.4C156.738 13.0333 156.821 12.6667 156.955 12.3C157.121 11.9 157.371 11.55 157.705 11.25C158.038 10.9167 158.471 10.65 159.005 10.45C159.571 10.25 160.255 10.15 161.055 10.15C161.821 10.15 162.471 10.25 163.005 10.45C163.538 10.65 163.971 10.9167 164.305 11.25C164.671 11.55 164.921 11.9 165.055 12.3C165.221 12.6667 165.305 13.05 165.305 13.45C165.305 14.2167 165.288 15.1167 165.255 16.15C165.255 17.15 165.238 18.1667 165.205 19.2C165.171 20.2333 165.138 21.2333 165.105 22.2C165.105 23.1333 165.105 23.95 165.105 24.65ZM173.555 33.55C173.688 30.6167 173.721 27.5333 173.655 24.3C173.621 21.0333 173.555 17.4833 173.455 13.65C173.455 13.25 173.521 12.85 173.655 12.45C173.821 12.05 174.071 11.6833 174.405 11.35C174.771 10.9833 175.221 10.7 175.755 10.5C176.321 10.2667 176.988 10.15 177.755 10.15C179.288 10.15 180.371 10.5167 181.005 11.25C181.671 11.95 182.021 12.7667 182.055 13.7C182.121 16.8333 182.121 20.0333 182.055 23.3C181.988 26.5333 181.988 29.6667 182.055 32.7C182.088 35.2333 181.738 37.3833 181.005 39.15C180.271 40.95 179.288 42.4 178.055 43.5C176.821 44.6 175.405 45.3833 173.805 45.85C172.238 46.35 170.605 46.5833 168.905 46.55C167.338 46.5167 165.855 46.35 164.455 46.05C163.088 45.7833 161.938 45.3333 161.005 44.7C160.705 44.5333 160.388 44.3167 160.055 44.05C159.755 43.7833 159.488 43.4667 159.255 43.1C159.055 42.7333 158.905 42.3 158.805 41.8C158.738 41.3333 158.788 40.8 158.955 40.2C159.121 39.6667 159.371 39.2167 159.705 38.85C160.071 38.4833 160.471 38.2 160.905 38C161.371 37.8333 161.855 37.75 162.355 37.75C162.855 37.7833 163.321 37.9 163.755 38.1C164.721 38.5667 165.605 38.8667 166.405 39C167.205 39.1333 168.088 39.2 169.055 39.2C171.855 39.2 173.355 37.3167 173.555 33.55Z" fill="#FFA63D"/>
</svg>
