<svg width="218" height="57" viewBox="0 0 218 57" fill="none" xmlns="http://www.w3.org/2000/svg">
<path d="M20.6399 46.46C18.5999 46.46 17.0399 45.32 16.2599 43.76C14.4599 39.92 11.3999 32.36 9.41985 25.76C9.23985 35 9.65985 38.42 10.0799 42.92C10.2599 45.2 8.27985 46.82 5.81985 47.06C2.99985 47.36 1.43985 45.92 1.19985 43.88C0.47985 37.4 -0.00014998 15.26 1.25985 4.82C1.55985 2.36 3.47985 1.34 5.87985 1.34C8.57985 1.34 9.71985 2.96 10.1999 4.22C14.6999 18.38 19.3199 30.62 20.6399 33.62C22.0799 30.62 26.6399 18.38 31.1999 4.22C31.6799 2.96 32.8199 1.34 35.3999 1.34C37.9199 1.34 39.8399 2.36 40.1399 4.82C41.3399 15.26 40.9199 37.4 40.1999 43.88C39.9599 45.92 38.3399 47.36 35.5199 47.06C33.1199 46.82 31.1399 45.2 31.3199 42.92C31.7399 38.42 32.1599 35 31.9799 25.76C29.9998 32.36 26.9398 39.92 25.1399 43.76C24.3599 45.32 22.7999 46.46 20.6399 46.46ZM46.1366 30.26C46.1366 20.3 52.0166 12.74 62.8166 12.74C70.8566 12.74 78.3566 18.2 78.7166 28.88C78.7766 32.6 77.0966 34.76 73.6166 34.76H62.5166C60.2966 34.76 59.2766 32.78 59.2766 30.56C59.2766 28.34 60.5966 26.18 62.6366 26.18H68.3366C68.2766 24.2 67.1966 21.5 63.0566 21.5C59.0366 21.5 56.5166 24.14 56.5166 30.26C56.5166 36.14 59.0366 38.72 63.4166 38.96C65.5766 39.08 68.0966 38.72 70.4366 37.46C72.8366 36.32 75.7166 37.1 76.4966 40.04C77.2166 42.8 74.9366 44.66 73.9766 45.2C71.0366 46.94 66.8366 47.9 62.8166 47.66C50.9366 46.94 46.1366 39.44 46.1366 30.26ZM81.9373 30.26C81.9373 20.3 87.8174 12.74 98.6174 12.74C106.657 12.74 114.157 18.2 114.517 28.88C114.577 32.6 112.897 34.76 109.417 34.76H98.3174C96.0974 34.76 95.0774 32.78 95.0774 30.56C95.0774 28.34 96.3974 26.18 98.4374 26.18H104.137C104.077 24.2 102.997 21.5 98.8574 21.5C94.8374 21.5 92.3174 24.14 92.3174 30.26C92.3174 36.14 94.8374 38.72 99.2174 38.96C101.377 39.08 103.897 38.72 106.237 37.46C108.637 36.32 111.517 37.1 112.297 40.04C113.017 42.8 110.737 44.66 109.777 45.2C106.837 46.94 102.637 47.9 98.6174 47.66C86.7374 46.94 81.9373 39.44 81.9373 30.26ZM130.786 34.46C130.966 37.28 133.126 37.1 134.566 36.74C136.906 36.2 138.346 36.8 139.186 38.6C140.446 41.18 139.426 43.76 137.386 45.14C135.526 46.52 132.946 47.12 130.126 47.06C123.586 46.94 120.706 42.38 120.586 35.3C120.526 31.16 120.466 26.9 120.466 22.7H119.086C116.806 22.7 115.366 20.24 115.366 18.08C115.366 15.92 116.806 13.22 119.086 13.22H120.526C120.586 11.3 120.646 9.5 120.706 7.76C120.706 4.88 123.826 3.62 126.166 3.74C128.686 3.86 130.906 5.48 130.906 8C130.846 9.74 130.786 11.48 130.786 13.22H134.506C137.086 13.22 138.346 15.5 138.346 18.02C138.346 20.06 137.146 22.7 134.446 22.7H130.486C130.426 26.54 130.486 30.5 130.786 34.46ZM154.723 17.84C154.963 25.7 155.083 33.5 154.723 43.04C154.603 45.32 151.723 47.18 149.143 47.06C146.503 46.94 144.343 45.08 144.343 42.62C144.583 33.68 144.523 26.54 144.403 18.08C144.403 15.68 146.503 14.06 149.023 13.82C151.783 13.58 154.723 14.96 154.723 17.84ZM154.783 4.1V6.68C154.603 9.5 151.903 10.94 149.023 10.7C146.383 10.46 144.523 9.02 144.463 7.1L144.403 4.76C144.283 2.18 147.283 0.799998 149.323 0.799998C151.843 0.799998 154.663 1.88 154.783 4.1ZM179.532 24.5H174.612C174.612 30.74 174.732 36.92 174.852 42.68C174.852 45.02 173.112 46.82 170.172 47.06C167.592 47.3 164.712 45.74 164.652 42.92C164.472 37.28 164.292 30.98 164.292 24.5H163.032C160.752 24.5 159.312 21.98 159.312 19.82C159.312 17.72 160.752 15.02 163.032 15.02H164.532C165.012 5.36 169.632 1.7 175.032 1.34C176.832 1.22 179.292 1.4 180.672 1.76C183.372 2.42 184.572 4.7 184.092 7.04C183.612 9.44 182.472 11.42 178.272 11.12C176.412 11 174.912 12.14 174.732 15.02H179.532C182.172 15.02 183.372 17.24 183.372 19.76C183.372 21.8 182.232 24.5 179.532 24.5ZM197.465 30.38C197.465 33.98 199.505 35.06 201.725 35.06H202.385C204.605 35.06 205.745 36.92 205.745 39.44C205.745 41.78 204.665 43.94 202.385 43.94H201.125C191.765 43.94 187.205 38.06 187.205 30.08C187.205 26.06 187.205 20.06 187.385 16.88C187.505 15.08 188.765 12.98 192.605 12.98C196.265 12.98 197.705 15.08 197.705 16.94C197.705 20.66 197.465 27.08 197.465 30.38ZM207.605 41.06C207.905 34.1 207.725 26.36 207.485 17.18C207.425 15.32 208.985 12.98 212.645 12.98C216.305 12.98 217.745 15.02 217.805 17.24C217.985 24.74 217.685 32.78 217.805 40.04C217.985 52.22 210.125 56.84 202.025 56.66C198.305 56.6 194.765 55.94 192.545 54.44C191.105 53.66 189.245 51.92 190.085 49.04C190.865 46.52 193.685 45.5 195.845 46.52C198.185 47.66 199.865 47.84 202.205 47.84C205.625 47.84 207.365 45.68 207.605 41.06Z" fill="url(#paint0_linear_205_2968)"/>
<defs>
<linearGradient id="paint0_linear_205_2968" x1="-13.7269" y1="-100.116" x2="125.709" y2="184.22" gradientUnits="userSpaceOnUse">
<stop offset="0.283719" stop-color="#FF935A"/>
<stop offset="1" stop-color="#FFDC78"/>
</linearGradient>
</defs>
</svg>
