<svg width="20" height="20" viewBox="0 0 20 20" fill="none" xmlns="http://www.w3.org/2000/svg">
<path d="M5.6364 8.34362C5.6364 8.58974 5.663 8.78929 5.70957 8.93563C5.76278 9.08197 5.8293 9.24162 5.92242 9.41456C5.95568 9.46778 5.96899 9.52099 5.96899 9.56755C5.96899 9.63407 5.92908 9.70059 5.8426 9.76711L5.42354 10.0465C5.36367 10.0864 5.30381 10.1063 5.25059 10.1063C5.18407 10.1063 5.11756 10.0731 5.05104 10.0132C4.95791 9.91345 4.87809 9.80702 4.81157 9.70059C4.74506 9.58751 4.67854 9.46112 4.60537 9.30813C4.08653 9.9201 3.43465 10.2261 2.64974 10.2261C2.09099 10.2261 1.64532 10.0664 1.31938 9.74715C0.993443 9.42787 0.827148 9.00215 0.827148 8.47001C0.827148 7.9046 1.0267 7.44563 1.43246 7.09974C1.83822 6.75384 2.37702 6.5809 3.06215 6.5809C3.28831 6.5809 3.52113 6.60085 3.76724 6.63411C4.01336 6.66737 4.26613 6.72058 4.5322 6.78045V6.29487C4.5322 5.78933 4.42577 5.43679 4.21956 5.23058C4.00671 5.02438 3.64751 4.9246 3.13532 4.9246C2.90251 4.9246 2.66304 4.95121 2.41693 5.01107C2.17081 5.07094 1.93135 5.14411 1.69853 5.23723C1.5921 5.2838 1.51228 5.3104 1.46572 5.32371C1.41916 5.33701 1.3859 5.34366 1.35929 5.34366C1.26617 5.34366 1.2196 5.27714 1.2196 5.13746V4.81152C1.2196 4.70509 1.23291 4.62527 1.26617 4.57871C1.29943 4.53214 1.35929 4.48558 1.45242 4.43902C1.68523 4.31929 1.96461 4.21951 2.29054 4.13969C2.61648 4.05321 2.96237 4.0133 3.32822 4.0133C4.11979 4.0133 4.69849 4.1929 5.07099 4.5521C5.43684 4.9113 5.62309 5.45674 5.62309 6.18844V8.34362H5.6364ZM2.93577 9.3547C3.15528 9.3547 3.38144 9.31479 3.6209 9.23496C3.86037 9.15514 4.07322 9.0088 4.25282 8.80925C4.35925 8.68286 4.43907 8.54318 4.47898 8.38353C4.51889 8.22389 4.5455 8.03099 4.5455 7.80483V7.52545C4.3526 7.47889 4.14639 7.43898 3.93354 7.41237C3.72068 7.38576 3.51447 7.37246 3.30827 7.37246C2.8626 7.37246 2.53666 7.45893 2.31715 7.63853C2.09764 7.81813 1.99121 8.0709 1.99121 8.40349C1.99121 8.71612 2.07103 8.94894 2.23733 9.10858C2.39697 9.27487 2.62978 9.3547 2.93577 9.3547ZM8.27716 10.0731C8.15743 10.0731 8.07761 10.0531 8.02439 10.0066C7.97118 9.96666 7.92461 9.87354 7.8847 9.74715L6.32153 4.60531C6.28162 4.47228 6.26167 4.3858 6.26167 4.33924C6.26167 4.23281 6.31488 4.17295 6.42131 4.17295H7.07318C7.19957 4.17295 7.28604 4.1929 7.3326 4.23946C7.38582 4.27938 7.42573 4.3725 7.46564 4.49888L8.58314 8.90237L9.62082 4.49888C9.65408 4.36585 9.69399 4.27938 9.7472 4.23946C9.80042 4.19955 9.89354 4.17295 10.0133 4.17295H10.5454C10.6718 4.17295 10.7583 4.1929 10.8115 4.23946C10.8647 4.27938 10.9113 4.3725 10.9379 4.49888L11.9889 8.95559L13.1396 4.49888C13.1795 4.36585 13.2261 4.27938 13.2727 4.23946C13.3259 4.19955 13.4123 4.17295 13.5321 4.17295H14.1507C14.2571 4.17295 14.317 4.22616 14.317 4.33924C14.317 4.3725 14.3103 4.40576 14.3037 4.44567C14.297 4.48558 14.2837 4.5388 14.2571 4.61197L12.654 9.7538C12.6141 9.88684 12.5676 9.97331 12.5144 10.0132C12.4611 10.0531 12.3747 10.0797 12.2616 10.0797H11.6895C11.5631 10.0797 11.4767 10.0598 11.4235 10.0132C11.3702 9.96666 11.3237 9.88019 11.2971 9.74715L10.266 5.45674L9.24167 9.7405C9.20841 9.87354 9.1685 9.96001 9.11528 10.0066C9.06207 10.0531 8.96895 10.0731 8.84921 10.0731H8.27716ZM16.8247 10.2527C16.4788 10.2527 16.1329 10.2128 15.8003 10.133C15.4677 10.0531 15.2083 9.96666 15.0354 9.86688C14.929 9.80702 14.8558 9.7405 14.8292 9.68063C14.8026 9.62077 14.7893 9.55425 14.7893 9.49438V9.15514C14.7893 9.01545 14.8425 8.94894 14.9423 8.94894C14.9822 8.94894 15.0221 8.95559 15.062 8.96889C15.1019 8.9822 15.1618 9.0088 15.2283 9.03541C15.4544 9.13519 15.7006 9.21501 15.96 9.26822C16.2261 9.32144 16.4855 9.34804 16.7515 9.34804C17.1706 9.34804 17.4965 9.27487 17.7227 9.12853C17.9489 8.9822 18.0686 8.76934 18.0686 8.49661C18.0686 8.31036 18.0087 8.15737 17.889 8.03099C17.7693 7.9046 17.5431 7.79152 17.2172 7.6851L16.2527 7.38576C15.7671 7.23277 15.4079 7.00661 15.1884 6.70728C14.9689 6.4146 14.8558 6.08866 14.8558 5.74277C14.8558 5.4634 14.9156 5.21728 15.0354 5.00442C15.1551 4.79156 15.3148 4.60531 15.5143 4.45897C15.7139 4.30598 15.94 4.1929 16.2061 4.11308C16.4722 4.03326 16.7515 4 17.0442 4C17.1906 4 17.3436 4.00665 17.4899 4.02661C17.6429 4.04656 17.7826 4.07317 17.9223 4.09978C18.0553 4.13304 18.1817 4.16629 18.3014 4.20621C18.4211 4.24612 18.5143 4.28603 18.5808 4.32594C18.6739 4.37915 18.7404 4.43237 18.7803 4.49223C18.8203 4.54545 18.8402 4.61862 18.8402 4.71174V5.02438C18.8402 5.16406 18.787 5.23723 18.6872 5.23723C18.634 5.23723 18.5475 5.21063 18.4344 5.15741C18.0553 4.98447 17.6296 4.89799 17.1573 4.89799C16.7782 4.89799 16.4788 4.95786 16.2726 5.08424C16.0664 5.21063 15.96 5.40353 15.96 5.67625C15.96 5.8625 16.0265 6.02215 16.1595 6.14853C16.2926 6.27491 16.5387 6.4013 16.8912 6.51438L17.8358 6.81371C18.3147 6.9667 18.6606 7.17956 18.8668 7.45228C19.073 7.72501 19.1728 8.03764 19.1728 8.38353C19.1728 8.66956 19.1129 8.92898 18.9999 9.15514C18.8801 9.3813 18.7205 9.58086 18.5143 9.7405C18.3081 9.9068 18.0619 10.0265 17.7759 10.113C17.4766 10.2061 17.164 10.2527 16.8247 10.2527Z" fill="#252F3E"/>
<path fill-rule="evenodd" clip-rule="evenodd" d="M18.0817 13.485C15.8933 15.1014 12.7137 15.9595 9.97981 15.9595C6.14838 15.9595 2.6961 14.5427 0.0886029 12.1879C-0.117602 12.0017 0.0686476 11.7489 0.314764 11.8953C3.13512 13.5316 6.61401 14.5227 10.2126 14.5227C12.6405 14.5227 15.3079 14.0172 17.7624 12.9795C18.1283 12.8132 18.4409 13.219 18.0817 13.485Z" fill="#FF9900"/>
<path fill-rule="evenodd" clip-rule="evenodd" d="M18.9929 12.4477C18.7135 12.0885 17.1437 12.2747 16.432 12.3612C16.2191 12.3878 16.1858 12.2016 16.3787 12.0619C17.6293 11.1838 19.6847 11.4366 19.9241 11.7293C20.1636 12.0286 19.8576 14.084 18.6869 15.0685C18.5073 15.2215 18.3343 15.1417 18.4142 14.9421C18.6802 14.2836 19.2722 12.8002 18.9929 12.4477Z" fill="#FF9900"/>
</svg>
