<svg width="20" height="20" viewBox="0 0 20 20" fill="none" xmlns="http://www.w3.org/2000/svg">
<path d="M19.8028 8.4175C19.7485 8.37442 19.2421 7.99208 18.1743 7.99208C17.8923 7.99331 17.6109 8.01749 17.3329 8.0644C17.1262 6.64777 15.955 5.95709 15.9025 5.92611L15.6157 5.76074L15.4271 6.03289C15.1909 6.39847 15.0185 6.80147 14.9173 7.22476C14.7261 8.03342 14.8424 8.79295 15.2531 9.44229C14.7571 9.71872 13.9614 9.78677 13.8004 9.79279H0.626053C0.281944 9.79326 0.0027155 10.0713 0.000840169 10.4154C-0.0145263 11.5696 0.181012 12.7168 0.577826 13.8007C1.03166 14.9909 1.70683 15.8675 2.58524 16.4041C3.56956 17.0069 5.16877 17.3513 6.98154 17.3513C7.80048 17.3539 8.61787 17.2798 9.423 17.13C10.5422 16.9245 11.6192 16.5333 12.6094 15.9726C13.4252 15.5001 14.1595 14.8991 14.7838 14.1925C15.8276 13.011 16.4494 11.6951 16.9118 10.5256H17.0961C18.2389 10.5256 18.9416 10.0683 19.3291 9.68514C19.5867 9.44073 19.7877 9.143 19.9182 8.81277L20 8.57337L19.8028 8.4175Z" fill="#2496ED"/>
<path d="M1.84701 9.40707H3.61242C3.69757 9.40707 3.76657 9.33805 3.76657 9.25293V7.6804C3.76704 7.59525 3.69841 7.52587 3.61329 7.52539C3.61301 7.52539 3.6127 7.52539 3.61242 7.52539H1.84701C1.76187 7.52539 1.69287 7.59441 1.69287 7.67953V7.6804V9.25291C1.69287 9.33805 1.76187 9.40707 1.84701 9.40707Z" fill="#2496ED"/>
<path d="M4.28004 9.40707H6.04545C6.13059 9.40707 6.19959 9.33805 6.19959 9.25293V7.6804C6.20007 7.59525 6.13144 7.52587 6.04629 7.52539C6.04601 7.52539 6.0457 7.52539 6.04542 7.52539H4.28001C4.19439 7.52539 4.125 7.59478 4.125 7.6804V9.25291C4.1255 9.33819 4.19475 9.40707 4.28004 9.40707Z" fill="#2496ED"/>
<path d="M6.74987 9.40707H8.51529C8.60043 9.40707 8.66943 9.33805 8.66943 9.25293V7.6804C8.6699 7.59525 8.60127 7.52587 8.51612 7.52539C8.51584 7.52539 8.51554 7.52539 8.51526 7.52539H6.74984C6.6647 7.52539 6.5957 7.59441 6.5957 7.67953V7.6804V9.25291C6.59573 9.33805 6.66475 9.40707 6.74987 9.40707Z" fill="#2496ED"/>
<path d="M9.19027 9.40707H10.9557C11.041 9.40707 11.1102 9.33822 11.1107 9.25293V7.6804C11.1107 7.59478 11.0413 7.52539 10.9557 7.52539H9.19027C9.10513 7.52539 9.03613 7.59441 9.03613 7.67953V7.6804V9.25291C9.03613 9.33805 9.10516 9.40707 9.19027 9.40707Z" fill="#2496ED"/>
<path d="M4.28001 7.14533H6.04542C6.13068 7.14485 6.19956 7.07558 6.19956 6.99032V5.41781C6.19956 5.33267 6.13054 5.26367 6.04542 5.26367H4.28001C4.19475 5.26367 4.12548 5.33253 4.125 5.41781V6.99032C4.12548 7.07574 4.19458 7.14485 4.28001 7.14533Z" fill="#2496ED"/>
<path d="M6.74984 7.14533H8.51526C8.60051 7.14485 8.6694 7.07558 8.6694 6.99032V5.41781C8.6694 5.33267 8.60037 5.26367 8.51526 5.26367H6.74984C6.6647 5.26367 6.5957 5.3327 6.5957 5.41781V6.99032C6.5957 7.07558 6.66459 7.14485 6.74984 7.14533Z" fill="#2496ED"/>
<path d="M9.19027 7.14533H10.9557C11.0411 7.14485 11.1102 7.07574 11.1107 6.99032V5.41781C11.1102 5.33253 11.041 5.26367 10.9557 5.26367H9.19027C9.10513 5.26367 9.03613 5.3327 9.03613 5.41781V6.99032C9.03613 7.07558 9.10502 7.14485 9.19027 7.14533Z" fill="#2496ED"/>
<path d="M9.19027 4.88168H10.9557C11.041 4.88168 11.1102 4.8128 11.1107 4.72754V3.15414C11.1102 3.06886 11.041 3 10.9557 3H9.19027C9.10513 3 9.03613 3.069 9.03613 3.15414V4.72751C9.03613 4.81266 9.10516 4.88168 9.19027 4.88168Z" fill="#2496ED"/>
<path d="M11.6527 9.40707H13.4181C13.5034 9.40707 13.5726 9.33822 13.5731 9.25293V7.6804C13.5731 7.59478 13.5037 7.52539 13.4181 7.52539H11.6527C11.5676 7.52539 11.4985 7.59441 11.4985 7.67953V7.6804V9.25291C11.4985 9.33805 11.5676 9.40707 11.6527 9.40707Z" fill="#2496ED"/>
</svg>
