<svg width="92" height="103" viewBox="0 0 92 103" fill="none" xmlns="http://www.w3.org/2000/svg">
<path d="M81.6665 83H84.9999C86.8399 83 88.3332 84.4933 88.3332 86.3334C88.3332 88.1734 86.8399 89.6667 84.9999 89.6667H81.6665V83Z" fill="#FF7262"/>
<path d="M78.3334 103C80.1734 103 81.6667 101.506 81.6667 99.6664V96.333H78.3334C76.4933 96.333 75 97.8263 75 99.6664C75 101.506 76.4933 103 78.3334 103Z" fill="#0ACF83"/>
<path d="M75 93.0003C75 91.1603 76.4933 89.667 78.3334 89.667H81.6667V96.3337H78.3334C76.4933 96.3337 75 94.8404 75 93.0003Z" fill="#A259FF"/>
<path d="M75 86.3334C75 84.4933 76.4933 83 78.3334 83H81.6667V89.6667H78.3334C76.4933 89.6667 75 88.1734 75 86.3334Z" fill="#F24E1E"/>
<path d="M88.3332 93.0003C88.3332 94.8404 86.8399 96.3337 84.9999 96.3337C83.1599 96.3337 81.6665 94.8404 81.6665 93.0003C81.6665 91.1603 83.1599 89.667 84.9999 89.667C86.8399 89.667 88.3332 91.1603 88.3332 93.0003Z" fill="#1ABCFE"/>
</svg>
