<svg width="20" height="20" viewBox="0 0 20 20" fill="none" xmlns="http://www.w3.org/2000/svg">
<path d="M12.4816 7.22443L10.4813 9.08687L8.62451 5.34009L9.58371 3.18576C9.82614 2.75603 10.2226 2.75035 10.4651 3.18576L12.4816 7.22443Z" fill="#FFA000"/>
<path d="M10.4822 9.08581L3 16.045L8.62545 5.33984L10.4822 9.08581Z" fill="#F57F17"/>
<path d="M14.6749 4.37593C15.0333 4.03457 15.4022 4.14971 15.4955 4.63458L17.4406 15.9511L10.989 19.8244C10.7628 19.9509 10.1627 20.0004 10.1627 20.0004C10.1627 20.0004 9.61707 19.9339 9.40788 19.8187L3 16.0452L14.6749 4.37593Z" fill="#FFCA28"/>
<path d="M8.62544 5.33962L3 16.0448L5.50704 0.397702C5.6011 -0.0871656 5.87596 -0.136625 6.12407 0.293107L8.62544 5.33962Z" fill="#FFA000"/>
</svg>
