<svg width="20" height="20" viewBox="0 0 20 20" fill="none" xmlns="http://www.w3.org/2000/svg">
<path d="M19.6228 9.1089L10.8906 0.377169C10.3881 -0.125723 9.57244 -0.125723 9.06924 0.377169L7.25595 2.19045L9.55619 4.49069C10.0907 4.31007 10.7037 4.43124 11.1298 4.85733C11.5579 5.28616 11.6782 5.90437 11.4932 6.44062L13.71 8.6575C14.2464 8.47273 14.8652 8.59226 15.2935 9.02133C15.8922 9.61976 15.8922 10.5897 15.2935 11.1885C14.6947 11.7874 13.7248 11.7874 13.1256 11.1885C12.6753 10.7377 12.5641 10.0764 12.7921 9.52164L10.7247 7.45429L10.7245 12.8947C10.8743 12.9688 11.0112 13.0667 11.1298 13.1845C11.7285 13.783 11.7285 14.753 11.1298 15.3523C10.531 15.9509 9.56056 15.9509 8.96259 15.3523C8.36392 14.753 8.36392 13.7831 8.96259 13.1846C9.10606 13.0411 9.27656 12.9274 9.46424 12.8502V7.35906C9.27629 7.28233 9.10569 7.16859 8.96259 7.0246C8.509 6.57163 8.39994 5.90609 8.63236 5.34913L6.36486 3.08139L0.377344 9.06851C-0.125781 9.57187 -0.125781 10.3876 0.377344 10.8905L9.1097 19.6224C9.61244 20.1254 10.4279 20.1254 10.9313 19.6224L19.6228 10.9311C20.1257 10.428 20.1258 9.6118 19.6228 9.1089Z" fill="#DE4C36"/>
</svg>
