<svg width="20" height="20" viewBox="0 0 20 20" fill="none" xmlns="http://www.w3.org/2000/svg">
<path d="M10 19.4236L13.6826 8.08984H6.31738L9.99997 19.4236H10Z" fill="#E24329"/>
<path d="M9.99988 19.4236L6.31722 8.08984H1.15625L9.99988 19.4236Z" fill="#FC6D26"/>
<path d="M1.15639 8.08984L0.0373228 11.5341C-0.0124342 11.6873 -0.0124411 11.8522 0.0373032 12.0053C0.0870476 12.1584 0.183989 12.2919 0.314235 12.3865L10 19.4237L1.15631 8.08992L1.15639 8.08984Z" fill="#FCA326"/>
<path d="M1.15625 8.08969H6.31722L4.09933 1.26342C3.98519 0.912155 3.48828 0.912233 3.37421 1.26342L1.15625 8.08969Z" fill="#E24329"/>
<path d="M18.8436 8.08984L19.9627 11.5341C20.0124 11.6873 20.0124 11.8522 19.9627 12.0053C19.9129 12.1585 19.8159 12.2919 19.6857 12.3865L10 19.4237L18.8436 8.08992V8.08984Z" fill="#FCA326"/>
<path d="M18.8437 8.08969H13.6826L15.9006 1.26342C16.0147 0.912155 16.5116 0.912233 16.6257 1.26342L18.8437 8.08969Z" fill="#E24329"/>
<path d="M10.0001 19.9022L13.6827 7.59863H18.8437L10 19.9022H10.0001Z" fill="#FC6D26"/>
</svg>
