<svg width="20" height="20" viewBox="0 0 20 20" fill="none" xmlns="http://www.w3.org/2000/svg">
<path d="M1.50934 8.26248C1.47039 8.26248 1.46065 8.24301 1.48013 8.2138L1.68462 7.95088C1.70409 7.92167 1.75278 7.90219 1.79173 7.90219H5.26809C5.30704 7.90219 5.31678 7.9314 5.2973 7.96062L5.13176 8.2138C5.11228 8.24301 5.0636 8.27222 5.03438 8.27222L1.50934 8.26248ZM0.0389507 9.15835C0 9.15835 -0.00973768 9.13888 0.00973768 9.10966L0.214229 8.84675C0.233704 8.81753 0.282393 8.79806 0.321344 8.79806H4.76173C4.80068 8.79806 4.82015 8.82727 4.81042 8.85648L4.73251 9.09019C4.72278 9.12914 4.68383 9.14861 4.64488 9.14861L0.0389507 9.15835ZM2.39547 10.0542C2.35652 10.0542 2.34678 10.025 2.36626 9.99579L2.50258 9.75235C2.52206 9.72314 2.56101 9.69392 2.59996 9.69392H4.5475C4.58645 9.69392 4.60592 9.72314 4.60592 9.76209L4.58645 9.99579C4.58645 10.0347 4.5475 10.064 4.51829 10.064L2.39547 10.0542ZM12.5032 8.08721C11.8897 8.24301 11.471 8.35986 10.8673 8.51566C10.7212 8.55462 10.7115 8.56435 10.5849 8.41829C10.4388 8.25275 10.3317 8.14563 10.1272 8.04826C9.51372 7.74639 8.91972 7.83403 8.36467 8.19432C7.70251 8.62278 7.36169 9.25573 7.37143 10.0445C7.38116 10.8235 7.91674 11.4662 8.68601 11.5733C9.34818 11.6609 9.90322 11.4272 10.3414 10.9306C10.4291 10.8235 10.507 10.7066 10.6043 10.5703H8.72496C8.52047 10.5703 8.47178 10.4437 8.53995 10.2782C8.66654 9.97632 8.90024 9.46996 9.03657 9.21678C9.06578 9.15835 9.13395 9.06097 9.28001 9.06097H12.8245C12.8051 9.32389 12.8051 9.58681 12.7661 9.84973C12.659 10.5508 12.3961 11.1935 11.9676 11.7583C11.2665 12.6834 10.3512 13.2579 9.19237 13.4137C8.23808 13.5403 7.35195 13.3553 6.57294 12.771C5.85235 12.2257 5.44336 11.5051 5.33625 10.6093C5.20966 9.54786 5.52127 8.59357 6.16395 7.75613C6.85533 6.85052 7.77067 6.276 8.8905 6.07151C9.80585 5.90597 10.6822 6.01308 11.471 6.54865C11.9871 6.88947 12.3571 7.35688 12.6006 7.92167C12.659 8.00931 12.62 8.05799 12.5032 8.08721Z" fill="#00ACD7"/>
<path d="M15.7262 13.4718C14.8401 13.4523 14.0319 13.1992 13.3502 12.6149C12.7757 12.1183 12.4154 11.4853 12.2986 10.7355C12.1233 9.63517 12.4251 8.6614 13.0873 7.79475C13.7982 6.85993 14.6551 6.37305 15.8139 6.16856C16.8071 5.99328 17.7419 6.09066 18.5891 6.66518C19.3584 7.19101 19.8355 7.90186 19.9621 8.83668C20.1276 10.1513 19.7479 11.2224 18.8423 12.1378C18.1996 12.7902 17.4108 13.1992 16.5052 13.3842C16.2423 13.4329 15.9794 13.4426 15.7262 13.4718ZM18.0438 9.53779C18.034 9.4112 18.034 9.31383 18.0146 9.21645C17.8393 8.25242 16.9532 7.70711 16.0281 7.92134C15.1225 8.12583 14.5382 8.70035 14.324 9.6157C14.1487 10.3752 14.5187 11.1445 15.2199 11.4561C15.7554 11.6898 16.291 11.6606 16.8071 11.3977C17.5764 10.9984 17.9951 10.3752 18.0438 9.53779Z" fill="#00ACD7"/>
</svg>
