<svg width="20" height="20" viewBox="0 0 20 20" fill="none" xmlns="http://www.w3.org/2000/svg">
<path fill-rule="evenodd" clip-rule="evenodd" d="M11.6087 2.29193L15.7211 4.66639C15.8399 4.54077 15.9761 4.43295 16.1256 4.34628C16.9785 3.85595 18.0664 4.14707 18.5618 5C19.0521 5.85293 18.761 6.94073 17.9081 7.43614C17.7596 7.52162 17.5997 7.58531 17.4331 7.62526V12.3759C17.5978 12.4159 17.7561 12.4792 17.903 12.5638C18.761 13.0592 19.0521 14.1471 18.5567 15C18.0664 15.8529 16.9734 16.144 16.1205 15.6537C15.9553 15.5589 15.8064 15.4381 15.6797 15.2959L11.5923 17.6557C11.6521 17.837 11.6825 18.0266 11.6823 18.2175C11.6823 19.1981 10.8856 20 9.8999 20C8.91417 20 8.11749 19.2032 8.11749 18.2175C8.11749 18.0423 8.14266 17.8731 8.18959 17.7132L4.07827 15.3394C3.96084 15.4626 3.82651 15.5684 3.6793 15.6537C2.8213 16.144 1.73342 15.8529 1.2431 15C0.752838 14.1471 1.04396 13.0592 1.89682 12.5638C2.04374 12.4792 2.20196 12.4159 2.36671 12.3759V7.62526C2.20014 7.58531 2.04018 7.52162 1.89174 7.43614C1.03882 6.94588 0.747692 5.85293 1.23802 5C1.72835 4.14707 2.82123 3.85595 3.67416 4.34628C3.82289 4.43249 3.95846 4.53961 4.07674 4.66438L8.19036 2.28929C8.14187 2.1247 8.11733 1.95399 8.11749 1.78241C8.11749 0.796818 8.91417 0 9.8999 0C10.8856 0 11.6823 0.796749 11.6823 1.78241C11.6823 1.95958 11.6566 2.13055 11.6087 2.29193ZM11.1802 3.02353L15.3025 5.40355C15.2368 5.63301 15.218 5.87332 15.2471 6.1102C15.2762 6.34707 15.3527 6.57568 15.4719 6.78241C15.7229 7.21892 16.1316 7.50831 16.5853 7.62109V12.3777C16.5622 12.3833 16.5391 12.3895 16.5163 12.396L11.1323 3.07116C11.1486 3.05558 11.1646 3.03966 11.1802 3.02353ZM8.66859 3.0722L3.28472 12.3969C3.26144 12.3902 3.23802 12.3839 3.21449 12.3781V7.62109C3.66818 7.50831 4.07694 7.21892 4.32788 6.78241C4.44736 6.57528 4.52388 6.3462 4.55288 6.10884C4.58187 5.87148 4.56274 5.63071 4.49663 5.40091L8.61769 3.02158C8.63431 3.03876 8.65128 3.05572 8.66859 3.0722ZM10.3979 3.4946L15.7806 12.8172C15.6573 12.9349 15.5516 13.0697 15.4668 13.2175C15.3822 13.3644 15.3189 13.5227 15.2789 13.6874H4.52103C4.48097 13.5227 4.41766 13.3644 4.33302 13.2175C4.24792 13.0707 4.14244 12.9367 4.01972 12.8195L9.40339 3.49501C9.56479 3.54149 9.73194 3.56499 9.8999 3.56482C10.0728 3.56482 10.2399 3.54035 10.3979 3.4946ZM11.2181 17.0167L15.3135 14.6521C15.3013 14.6135 15.2903 14.5745 15.2806 14.5352H4.51874C4.51304 14.5583 4.50685 14.5813 4.50025 14.6042L8.61575 16.9804C8.78194 16.8075 8.98139 16.6702 9.20208 16.5764C9.42277 16.4827 9.66014 16.4347 9.8999 16.4351C10.148 16.4347 10.3935 16.4862 10.6206 16.5864C10.8476 16.6865 11.0511 16.8331 11.2181 17.0167Z" fill="#E535AB"/>
</svg>
