<svg width="21" height="20" viewBox="0 0 21 20" fill="none" xmlns="http://www.w3.org/2000/svg">
<path d="M18.9756 9.84757C18.9756 8.81949 18.1421 7.98599 17.1141 7.98599C17.0479 7.98599 16.9827 7.98954 16.9183 7.99634L19.4752 0.455078H8.60935L11.1627 7.98975C11.125 7.98737 11.0873 7.98615 11.0495 7.98606C10.0214 7.98606 9.18794 8.81941 9.18794 9.84764C9.18794 10.6787 9.7326 11.3823 10.4842 11.6216C10.0873 12.3093 9.58768 12.9287 9.02049 13.4639C8.24922 14.1914 7.36655 14.7432 6.41188 15.0831C5.27523 14.4992 4.73852 13.2006 5.22279 12.062C5.2775 11.9334 5.33334 11.8031 5.3867 11.6734C6.21013 11.4812 6.82381 10.743 6.82381 9.86096C6.82381 8.83281 5.99031 7.99939 4.96216 7.99939C3.93401 7.99939 3.10058 8.83281 3.10058 9.86096C3.10058 10.4914 3.41422 11.0483 3.89376 11.3851C3.433 12.4341 2.75569 13.5321 2.54466 14.8046C2.29175 16.3296 2.54381 17.9484 3.86279 18.8626C6.93457 20.9916 10.269 17.5427 13.7846 16.6757C15.0587 16.3616 16.4574 16.4122 17.5799 15.7621C18.4229 15.2738 18.9787 14.4647 19.1364 13.5563C19.2923 12.6589 19.0651 11.7653 18.5427 11.0408C18.8229 10.7064 18.9762 10.2839 18.9756 9.84757Z" fill="#99425B"/>
<path d="M18.6883 13.478C18.5514 14.2667 18.0643 14.9556 17.352 15.3682C16.6879 15.7528 15.8922 15.8676 15.0496 15.9891C14.5983 16.0541 14.1316 16.1215 13.6757 16.2339C12.4701 16.5312 11.3024 17.1112 10.1733 17.6721C7.91348 18.7945 5.96191 19.7638 4.12173 18.4884C2.77377 17.5542 2.83599 15.8257 2.99302 14.8786C3.13858 14.001 3.53208 13.1928 3.91255 12.4113C3.97736 12.2784 4.04166 12.1454 4.10543 12.012C4.29722 12.0887 4.49846 12.1392 4.70373 12.1621C4.31639 13.4404 4.92553 14.8303 6.20398 15.4871L6.37901 15.577L6.56425 15.511C7.57497 15.151 8.50632 14.5735 9.33237 13.7941C9.86633 13.2903 10.3255 12.733 10.7028 12.1374C10.8175 12.1548 10.9334 12.1634 11.0494 12.1635C12.2228 12.1635 13.1945 11.2862 13.3449 10.1533C13.8252 10.1357 14.3353 10.1356 14.8184 10.1531C14.9686 11.2862 15.9404 12.1635 17.1139 12.1635C17.6045 12.1635 18.0596 12.0098 18.4345 11.7485C18.6948 12.2814 18.792 12.8809 18.6883 13.478ZM4.9621 8.45362C5.73791 8.45362 6.36902 9.0848 6.36902 9.86061C6.36902 10.1392 6.28724 10.3991 6.14686 10.6179C5.91301 10.9827 5.51547 11.2327 5.05876 11.2638C5.0268 11.266 4.99455 11.2675 4.9621 11.2675C4.78919 11.2675 4.62359 11.236 4.47045 11.1787C4.16204 11.0628 3.90378 10.8428 3.74021 10.5568C3.61875 10.3449 3.55493 10.1049 3.55511 9.86061C3.55511 9.0848 4.18629 8.45362 4.9621 8.45362ZM9.64254 9.84722C9.64254 9.14234 10.1636 8.55708 10.8406 8.45589C10.9088 8.44562 10.9785 8.4403 11.0495 8.4403C11.5005 8.4403 11.9021 8.65395 12.1596 8.98503C12.2241 9.06758 12.2792 9.15706 12.3239 9.25183C12.4113 9.43812 12.4566 9.64142 12.4564 9.84722C12.4564 9.95968 12.4428 10.069 12.4178 10.1739C12.2806 10.7479 11.7912 11.1867 11.1914 11.2471C11.1448 11.2517 11.0974 11.2541 11.0495 11.2541C10.7788 11.2544 10.514 11.1761 10.287 11.0287C9.89963 10.7778 9.64254 10.3421 9.64254 9.84722ZM15.5146 8.17414C15.2085 8.46638 14.9881 8.83684 14.8775 9.24538C14.3472 9.22583 13.8163 9.22583 13.286 9.24538C13.167 8.80376 12.9202 8.41415 12.5883 8.11823L14.0441 5.17443L15.5146 8.17414ZM9.24337 0.909458H18.8409L16.574 7.59505C16.4765 7.6184 16.3806 7.64811 16.287 7.68398L14.0477 3.11593L11.802 7.6567C11.7041 7.62309 11.6041 7.59613 11.5026 7.57598L9.24337 0.909458ZM18.5208 9.84729C18.5208 9.98831 18.4997 10.1245 18.461 10.2531C18.369 10.5559 18.178 10.8191 17.9187 11.0004C17.6829 11.1658 17.4019 11.2545 17.1139 11.2542C16.4643 11.2542 15.9163 10.8115 15.7551 10.212C15.7231 10.0931 15.7069 9.97046 15.7069 9.84729C15.7069 9.65497 15.7458 9.47157 15.8159 9.30448C15.8521 9.21898 15.8967 9.13728 15.949 9.06057C16.2022 8.68683 16.6294 8.44037 17.1139 8.44037C17.1583 8.44037 17.2021 8.44264 17.2455 8.44675C17.9598 8.51329 18.5208 9.11584 18.5208 9.84729H18.5208ZM19.4302 9.84729C19.4302 8.71646 18.6154 7.77291 17.5422 7.57138L20.1093 0H7.97506L10.5461 7.58668C9.51024 7.8172 8.73323 8.74289 8.73323 9.84722C8.73323 10.6765 9.17144 11.4048 9.8282 11.8141C9.5123 12.2848 9.13771 12.7277 8.70842 13.1327C8.02757 13.775 7.26912 14.2621 6.45143 14.5826C5.62779 14.0652 5.27964 13.0895 5.64118 12.2396L5.66953 12.1729L5.72267 12.0479C6.62731 11.7324 7.27833 10.8714 7.27833 9.86061C7.27833 8.58337 6.23927 7.54431 4.9621 7.54431C3.68493 7.54431 2.64572 8.58337 2.64572 9.86061C2.64572 10.5053 2.91075 11.089 3.33721 11.5094C3.25767 11.6779 3.17693 11.8459 3.095 12.0132C2.70504 12.814 2.26313 13.7217 2.09597 14.7298C1.76404 16.7316 2.29949 18.332 3.60372 19.2358C4.39512 19.7843 5.19885 20 6.00762 20C7.53047 20 9.07103 19.2349 10.5778 18.4864C11.6629 17.9475 12.785 17.3902 13.8934 17.1168C14.3058 17.0151 14.7302 16.9539 15.1794 16.8891C16.0704 16.7606 16.9916 16.6277 17.8077 16.1551C18.7536 15.6072 19.4011 14.6881 19.5842 13.6337C19.7414 12.7284 19.5523 11.8217 19.0909 11.0527C19.3132 10.6899 19.4306 10.2727 19.4302 9.84722V9.84729Z" fill="white"/>
</svg>
