<svg width="9" height="20" viewBox="0 0 9 20" fill="none" xmlns="http://www.w3.org/2000/svg">
<path d="M4.42929 0.0546875L4.96301 1.05711C5.083 1.2421 5.21299 1.40584 5.3661 1.55832C5.815 2.00162 6.23342 2.47475 6.61851 2.97447C7.52282 4.16188 8.13278 5.48053 8.56838 6.90667C8.82961 7.77786 8.97147 8.67154 8.9821 9.57522C9.02584 12.2769 8.09966 14.5967 6.23229 16.5247C5.92854 16.8304 5.6004 17.1109 5.25111 17.3634C5.06612 17.3634 4.97863 17.2215 4.90239 17.0909C4.76354 16.8487 4.67113 16.5827 4.62991 16.3066C4.56429 15.9797 4.52116 15.6529 4.54241 15.3154V15.1629C4.52741 15.1304 4.3643 0.131557 4.42929 0.0546875Z" fill="#599636"/>
<path d="M4.4291 0.0215003C4.40723 -0.0222465 4.38535 0.0108761 4.36348 0.0321245C4.3741 0.250858 4.29786 0.445844 4.17849 0.63208C4.04725 0.817066 3.87352 0.958931 3.69915 1.11142C2.73047 1.95011 1.96803 2.96316 1.35745 4.0962C0.545008 5.62109 0.126289 7.25534 0.0075474 8.97584C-0.0468236 9.59642 0.203783 11.7863 0.399394 12.4181C0.933105 14.0955 1.89178 15.501 3.13357 16.7209C3.43855 17.0146 3.76477 17.2871 4.10225 17.549C4.20037 17.549 4.21099 17.4615 4.23349 17.3965C4.27651 17.2574 4.3093 17.1154 4.33161 16.9715L4.55034 15.3379L4.4291 0.0215003Z" fill="#6CAC48"/>
<path d="M4.9631 18.028C4.98498 17.778 5.10497 17.5705 5.23558 17.3636C5.10434 17.3093 5.00685 17.2012 4.9306 17.0805C4.86486 16.9663 4.81044 16.846 4.76812 16.7212C4.61563 16.2637 4.58313 15.7838 4.53938 15.3163V15.0332C4.48501 15.0769 4.47376 15.4469 4.47376 15.5019C4.44196 15.996 4.3764 16.4873 4.27753 16.9724C4.24503 17.1687 4.22316 17.3643 4.10254 17.5386C4.10254 17.5605 4.10254 17.5824 4.11316 17.6149C4.3094 18.1923 4.36315 18.7804 4.39627 19.3797V19.5985C4.39627 19.8597 4.38564 19.8047 4.6025 19.8922C4.69 19.9247 4.78749 19.9359 4.87498 20.0009C4.9406 20.0009 4.95123 19.9466 4.95123 19.9028L4.91873 19.5435V18.5411C4.90811 18.3661 4.9406 18.1923 4.96248 18.0286L4.9631 18.028Z" fill="#C2BFBF"/>
</svg>
