<svg width="20" height="20" viewBox="0 0 20 20" fill="none" xmlns="http://www.w3.org/2000/svg">
<path d="M19.2943 11.9804C19.178 11.6273 18.8735 11.3813 18.4796 11.3223C18.2938 11.2945 18.0811 11.3064 17.8294 11.3584C17.3906 11.4492 17.0651 11.4837 16.8276 11.4904C17.7242 9.97237 18.4533 8.24126 18.8731 6.6117C19.5518 3.97674 19.1891 2.77636 18.7653 2.2334C17.6437 0.796247 16.0072 0.0241953 14.033 0.000571951C12.9799 -0.0123411 12.0554 0.196167 11.5731 0.346111C11.124 0.266658 10.6412 0.222297 10.1346 0.214094C9.18489 0.198902 8.3458 0.406499 7.62883 0.833163C7.2319 0.698563 6.59485 0.508816 5.85916 0.387737C4.12888 0.102889 2.73433 0.324843 1.71428 1.04744C0.479099 1.92234 -0.0934944 3.44244 0.012404 5.56551C0.0460369 6.23957 0.42206 8.29048 1.01412 10.2355C1.35439 11.3535 1.71723 12.2818 2.09257 12.9951C2.62487 14.0065 3.19443 14.6021 3.83384 14.816C4.19221 14.9357 4.84336 15.0196 5.52821 14.4476C5.61502 14.553 5.73084 14.6578 5.88454 14.7551C6.07975 14.8785 6.31843 14.9794 6.55682 15.0392C7.4159 15.2545 8.22059 15.2007 8.90711 14.8988C8.91135 15.0212 8.91461 15.1382 8.91734 15.2392C8.92188 15.4031 8.92643 15.5637 8.93241 15.714C8.97309 16.7299 9.04202 17.5198 9.24624 18.0725C9.25745 18.1028 9.27253 18.1492 9.28844 18.1983C9.39032 18.5111 9.56068 19.0348 9.99412 19.4449C10.4429 19.8697 10.9858 20 11.4831 20C11.7324 20 11.9704 19.9672 12.1791 19.9224C12.9229 19.7625 13.7678 19.5189 14.3789 18.6463C14.9567 17.8214 15.2376 16.5789 15.2884 14.6212C15.295 14.5659 15.3011 14.513 15.3069 14.4626L15.319 14.3592L15.4552 14.3712L15.4902 14.3735C16.2479 14.4082 17.1743 14.2471 17.7433 13.982C18.1928 13.7728 19.6335 13.0101 19.2943 11.9804Z" fill="black"/>
<path d="M17.9986 12.1809C15.7458 12.6469 15.5909 11.882 15.5909 11.882C17.9695 8.34285 18.9638 3.85037 18.1058 2.75086C15.7648 -0.2484 11.7126 1.17007 11.6449 1.20683L11.6232 1.21078C11.1781 1.11811 10.68 1.06296 10.1202 1.05377C9.10087 1.03706 8.32762 1.32176 7.74086 1.76794C7.74086 1.76794 0.512037 -1.21833 0.848291 5.52369C0.919799 6.95795 2.89839 16.3762 5.2583 13.5315C6.12087 12.4912 6.95435 11.6117 6.95435 11.6117C7.36825 11.8874 7.8638 12.0281 8.3833 11.9776L8.42367 11.9433C8.4111 12.0724 8.41685 12.1987 8.4398 12.3483C7.83184 13.0294 8.01053 13.149 6.7952 13.3999C5.56539 13.654 6.28782 14.1064 6.75952 14.2248C7.33136 14.3681 8.65425 14.5712 9.5481 13.3164L9.5125 13.4596C9.75066 13.651 9.91791 14.7041 9.88989 15.6588C9.86186 16.6135 9.84315 17.2689 10.0308 17.7809C10.2186 18.2929 10.4056 19.4448 12.0033 19.1015C13.3383 18.8146 14.0301 18.0712 14.1264 16.8311C14.1946 15.9495 14.3492 16.0799 14.3589 15.2916L14.4829 14.9185C14.6259 13.7234 14.5056 13.3379 15.3281 13.5172L15.528 13.5348C16.1333 13.5624 16.9256 13.4371 17.3907 13.2204C18.3919 12.7545 18.9858 11.9764 17.9985 12.1809H17.9986Z" fill="#336791"/>
<path d="M8.16412 6.16489C7.96111 6.13656 7.77727 6.16276 7.68424 6.23341C7.63198 6.27313 7.61577 6.31916 7.61137 6.35084C7.59971 6.43477 7.65834 6.52759 7.6944 6.57545C7.79635 6.71096 7.94528 6.80408 8.09269 6.82459C8.11405 6.82763 8.13534 6.829 8.15647 6.829C8.40228 6.829 8.62582 6.63705 8.64551 6.49539C8.67013 6.31795 8.41326 6.19968 8.16412 6.16497V6.16489ZM14.8895 6.17051C14.8701 6.03143 14.6233 5.99178 14.3891 6.02444C14.1552 6.0571 13.9284 6.16299 13.9473 6.30238C13.9625 6.41077 14.1577 6.59581 14.3887 6.59581C14.4083 6.59581 14.428 6.59451 14.4478 6.5917C14.602 6.57028 14.7152 6.47207 14.769 6.41548C14.8508 6.32919 14.8982 6.23303 14.8895 6.17051Z" fill="white"/>
<path d="M18.7484 12.1281C18.6625 11.8676 18.386 11.7838 17.9267 11.8789C16.5628 12.1612 16.0744 11.9657 15.914 11.8472C16.9741 10.2278 17.8463 8.27014 18.3167 6.4437C18.5396 5.57852 18.6627 4.77502 18.6728 4.12009C18.6839 3.40129 18.5618 2.87306 18.31 2.55039C17.2948 1.24958 15.8048 0.551815 14.0012 0.532673C12.7612 0.518696 11.7136 0.836891 11.5105 0.926371C11.0828 0.819724 10.6166 0.754247 10.109 0.745892C9.17817 0.730776 8.37355 0.954249 7.70741 1.40978C7.41804 1.30176 6.67024 1.04434 5.75571 0.896595C4.17465 0.641371 2.91826 0.834764 2.02168 1.47169C0.951862 2.23174 0.457971 3.59035 0.553644 5.5097C0.585837 6.15543 0.952771 8.14192 1.5318 10.0443C2.294 12.5483 3.12256 13.9657 3.99429 14.2574C4.09632 14.2915 4.21396 14.3153 4.34372 14.3153C4.66172 14.3153 5.05161 14.1716 5.45725 13.6826C5.95202 13.0874 6.46382 12.5067 6.99202 11.9411C7.33472 12.1255 7.71119 12.2285 8.09623 12.2389C8.09699 12.249 8.09797 12.2591 8.09888 12.2691C8.0326 12.3484 7.9677 12.4288 7.9042 12.5103C7.63741 12.8499 7.58189 12.9206 6.72311 13.0979C6.47882 13.1485 5.83002 13.2826 5.82047 13.7386C5.81017 14.2369 6.58744 14.4462 6.67599 14.4684C6.9846 14.5458 7.28192 14.5841 7.56545 14.5841C8.255 14.5841 8.86184 14.3568 9.34679 13.9171C9.33187 15.6934 9.40572 17.4439 9.61843 17.9772C9.79265 18.4138 10.2182 19.4808 11.5625 19.4807C11.7597 19.4807 11.9768 19.4577 12.2157 19.4063C13.6186 19.1048 14.2279 18.483 14.4636 17.1121C14.5897 16.3795 14.8061 14.6301 14.9079 13.6917C15.1227 13.7589 15.3993 13.7897 15.6983 13.7896C16.3219 13.7896 17.0414 13.6567 17.4927 13.4467C17.9996 13.2106 18.9143 12.6314 18.7484 12.1281ZM15.4074 5.78695C15.4028 6.06397 15.3648 6.31548 15.3245 6.57799C15.2811 6.86033 15.2362 7.15225 15.2249 7.5066C15.2138 7.85145 15.2567 8.20998 15.2982 8.55674C15.3822 9.25709 15.4683 9.9781 15.1349 10.6895C15.0796 10.5911 15.0302 10.4894 14.9872 10.385C14.9458 10.2843 14.8558 10.1225 14.7312 9.89856C14.2465 9.02685 13.1113 6.98552 13.6924 6.15254C13.8655 5.90461 14.3048 5.64969 15.4074 5.78695ZM14.0709 1.09363C15.6869 1.12941 16.9653 1.73564 17.8703 2.8954C18.5645 3.78496 17.8001 7.83262 15.5872 11.3246C15.565 11.2962 15.5426 11.2679 15.5201 11.2397L15.4921 11.2046C16.0639 10.2576 15.9521 9.32066 15.8526 8.48997C15.8117 8.14906 15.773 7.82707 15.7829 7.5246C15.793 7.20405 15.8353 6.92908 15.8762 6.66322C15.9264 6.3356 15.9776 5.9966 15.9635 5.59697C15.974 5.55504 15.9783 5.50552 15.9727 5.44673C15.9367 5.06351 15.5004 3.9166 14.6111 2.87853C14.1247 2.31073 13.4153 1.67533 12.4466 1.24677C12.8633 1.16018 13.433 1.07943 14.0709 1.09363ZM5.02797 13.3246C4.58105 13.8635 4.27244 13.7602 4.17094 13.7263C3.50964 13.5051 2.74229 12.1035 2.06577 9.88094C1.48037 7.9578 1.13828 6.02394 1.11116 5.48167C1.02572 3.76665 1.4403 2.57143 2.34347 1.92911C3.81332 0.88391 6.2299 1.50951 7.20094 1.8268C7.187 1.84062 7.17246 1.85353 7.15867 1.86759C5.56519 3.48127 5.60299 6.2383 5.60693 6.40686C5.60678 6.47188 5.61223 6.56394 5.61966 6.69056C5.64708 7.1543 5.69814 8.01735 5.56179 8.99472C5.43513 9.90297 5.71435 10.7919 6.32769 11.4337C6.39064 11.4994 6.4568 11.562 6.52593 11.6212C6.25293 11.9144 5.65958 12.5628 5.02797 13.3246ZM6.73076 11.0464C6.23642 10.5291 6.01189 9.80962 6.11468 9.0722C6.25861 8.03976 6.20551 7.14055 6.17695 6.65745C6.17294 6.58984 6.16938 6.53059 6.16733 6.48388C6.40011 6.27689 7.47887 5.69732 8.24819 5.87407C8.59921 5.95467 8.81313 6.1944 8.90206 6.6067C9.36232 8.7414 8.96296 9.63111 8.64209 10.3461C8.57596 10.4934 8.51346 10.6326 8.46013 10.7767L8.41878 10.888C8.31409 11.1695 8.21667 11.4313 8.1563 11.6798C7.63075 11.6783 7.11951 11.4532 6.73076 11.0463V11.0464ZM6.81143 13.9253C6.65796 13.8868 6.51995 13.8201 6.43897 13.7647C6.50662 13.7328 6.62698 13.6893 6.83575 13.6462C7.84603 13.4377 8.00207 13.2905 8.3428 12.8567C8.4209 12.7572 8.50945 12.6444 8.63209 12.5071L8.63224 12.5069C8.81487 12.3018 8.89843 12.3366 9.04992 12.3997C9.17272 12.4506 9.29233 12.6049 9.34081 12.7748C9.36376 12.855 9.38951 13.0072 9.3052 13.1257C8.59346 14.125 7.55628 14.1122 6.81143 13.9253ZM12.0987 18.859C10.8628 19.1245 10.4252 18.4922 10.1368 17.7693C9.95067 17.3026 9.85916 15.198 9.92408 12.8739C9.92492 12.843 9.92052 12.8131 9.91204 12.785C9.90445 12.7295 9.8929 12.6746 9.87749 12.6208C9.78099 12.2826 9.54578 11.9998 9.26362 11.8825C9.15151 11.8359 8.94577 11.7505 8.69852 11.8139C8.75124 11.596 8.84267 11.35 8.94183 11.0836L8.98342 10.9716C9.03023 10.8452 9.08901 10.7144 9.15113 10.5758C9.48693 9.82777 9.94681 8.80315 9.44769 6.48844C9.26074 5.62143 8.63641 5.19803 7.68998 5.2964C7.12262 5.35527 6.6035 5.58482 6.34459 5.71646C6.28891 5.74471 6.23801 5.77206 6.19043 5.79865C6.2627 4.92511 6.5357 3.29259 7.55697 2.25969C8.20001 1.60948 9.05636 1.28832 10.0997 1.30564C12.1556 1.33936 13.474 2.39733 14.218 3.27899C14.8591 4.03866 15.2063 4.80396 15.3448 5.21672C14.3029 5.11045 13.5942 5.31668 13.235 5.83169C12.4535 6.95194 13.6626 9.12621 14.2437 10.1712C14.3502 10.3627 14.4422 10.5282 14.4711 10.5985C14.6604 11.0584 14.9053 11.3654 15.0842 11.5895C15.139 11.6582 15.1922 11.7248 15.2326 11.783C14.9171 11.8742 14.3502 12.085 14.4019 13.1386C14.3602 13.6673 14.064 16.1425 13.9135 17.017C13.7148 18.1724 13.2908 18.6027 12.0987 18.8591V18.859ZM17.2576 12.939C16.9349 13.0892 16.3949 13.2018 15.8819 13.226C15.3153 13.2526 15.0268 13.1624 14.959 13.1069C14.9271 12.4503 15.1708 12.3817 15.4288 12.3091C15.4693 12.2977 15.5088 12.2865 15.547 12.2731C15.5707 12.2925 15.5967 12.3117 15.6252 12.3306C16.0806 12.632 16.8929 12.6645 18.0396 12.4271L18.0522 12.4246C17.8975 12.5696 17.6329 12.7642 17.2576 12.939Z" fill="white"/>
</svg>
