<svg width="20" height="20" viewBox="0 0 20 20" fill="none" xmlns="http://www.w3.org/2000/svg">
<path d="M9.92794 0C4.85069 0 5.16771 2.2018 5.16771 2.2018L5.17335 4.48292H10.0185V5.16778H3.24893C3.24893 5.16778 0 4.79931 0 9.92222C0 15.0453 2.83575 14.8636 2.83575 14.8636H4.52812V12.4863C4.52812 12.4863 4.43688 9.65055 7.3186 9.65055H12.1241C12.1241 9.65055 14.824 9.69417 14.824 7.04121V2.65469C14.824 2.65469 15.234 0 9.92794 0ZM7.25634 1.53401C7.37083 1.53391 7.48422 1.55639 7.59002 1.60015C7.69582 1.64392 7.79195 1.70812 7.87291 1.78908C7.95387 1.87004 8.01807 1.96617 8.06184 2.07197C8.1056 2.17776 8.12808 2.29115 8.12798 2.40565C8.12808 2.52014 8.1056 2.63353 8.06184 2.73933C8.01807 2.84513 7.95387 2.94126 7.87291 3.02222C7.79195 3.10318 7.69582 3.16738 7.59002 3.21114C7.48422 3.25491 7.37083 3.27738 7.25634 3.27728C7.14185 3.27738 7.02846 3.25491 6.92266 3.21114C6.81686 3.16738 6.72073 3.10318 6.63977 3.02222C6.55881 2.94126 6.49461 2.84513 6.45084 2.73933C6.40708 2.63353 6.3846 2.52014 6.38471 2.40565C6.3846 2.29115 6.40708 2.17776 6.45084 2.07197C6.49461 1.96617 6.55881 1.87004 6.63977 1.78908C6.72073 1.70812 6.81686 1.64392 6.92266 1.60015C7.02846 1.55639 7.14185 1.53391 7.25634 1.53401Z" fill="url(#paint0_linear_2004_7673)"/>
<path d="M10.0719 19.8957C15.1492 19.8957 14.8322 17.6939 14.8322 17.6939L14.8265 15.4128H9.98131V14.728H16.7508C16.7508 14.728 19.9998 15.0964 19.9998 9.97335C19.9998 4.85036 17.164 5.03205 17.164 5.03205H15.4717V7.40927C15.4717 7.40927 15.5629 10.245 12.6812 10.245H7.87568C7.87568 10.245 5.1758 10.2014 5.1758 12.8544V17.2411C5.1758 17.2411 4.76583 19.8957 10.0718 19.8957H10.0719ZM12.7435 18.3618C12.629 18.3619 12.5156 18.3394 12.4098 18.2957C12.304 18.2519 12.2079 18.1877 12.127 18.1067C12.046 18.0258 11.9818 17.9297 11.938 17.8239C11.8943 17.7181 11.8718 17.6047 11.8719 17.4902C11.8718 17.3757 11.8942 17.2623 11.938 17.1565C11.9818 17.0507 12.046 16.9545 12.1269 16.8736C12.2079 16.7926 12.304 16.7284 12.4098 16.6846C12.5156 16.6408 12.629 16.6184 12.7435 16.6185C12.858 16.6184 12.9714 16.6408 13.0772 16.6846C13.183 16.7284 13.2791 16.7926 13.3601 16.8735C13.441 16.9545 13.5052 17.0506 13.549 17.1564C13.5928 17.2622 13.6153 17.3756 13.6152 17.4901C13.6153 17.6046 13.5928 17.718 13.549 17.8238C13.5052 17.9296 13.441 18.0257 13.3601 18.1067C13.2791 18.1876 13.183 18.2518 13.0772 18.2956C12.9714 18.3394 12.858 18.3618 12.7435 18.3617V18.3618Z" fill="url(#paint1_linear_2004_7673)"/>
<defs>
<linearGradient id="paint0_linear_2004_7673" x1="1.92199" y1="1.78952" x2="11.8334" y2="11.602" gradientUnits="userSpaceOnUse">
<stop stop-color="#387EB8"/>
<stop offset="1" stop-color="#366994"/>
</linearGradient>
<linearGradient id="paint1_linear_2004_7673" x1="8.00539" y1="8.0902" x2="18.6491" y2="18.152" gradientUnits="userSpaceOnUse">
<stop stop-color="#FFE052"/>
<stop offset="1" stop-color="#FFC331"/>
</linearGradient>
</defs>
</svg>
