<svg width="21" height="20" viewBox="0 0 21 20" fill="none" xmlns="http://www.w3.org/2000/svg">
<path d="M10.4615 8.23718C11.4353 8.23718 12.2247 9.02661 12.2247 10.0004C12.2247 10.9742 11.4353 11.7637 10.4615 11.7637C9.48767 11.7637 8.69824 10.9742 8.69824 10.0004C8.69824 9.02661 9.48767 8.23718 10.4615 8.23718Z" fill="#61DAFB"/>
<path d="M10.4613 6.3873C15.6867 6.3873 19.9226 8.00467 19.9226 9.9998C19.9226 11.9949 15.6867 13.6123 10.4613 13.6123C5.23598 13.6123 1 11.9949 1 9.9998C1 8.00467 5.23598 6.3873 10.4613 6.3873Z" stroke="#61DAFB" stroke-width="0.951241"/>
<path d="M7.33251 8.19375C9.94518 3.66847 13.4639 0.80869 15.1917 1.80626C16.9195 2.80382 16.2022 7.28097 13.5895 11.8063C10.9769 16.3315 7.4582 19.1913 5.73037 18.1937C4.00253 17.1962 4.71983 12.719 7.33251 8.19375Z" stroke="#61DAFB" stroke-width="0.951241"/>
<path d="M7.3331 11.8065C4.72043 7.28117 4.00312 2.80402 5.73096 1.80646C7.45879 0.808891 10.9775 3.66867 13.5901 8.19395C16.2028 12.7192 16.9201 17.1964 15.1923 18.1939C13.4644 19.1915 9.94577 16.3317 7.3331 11.8065Z" stroke="#61DAFB" stroke-width="0.951241"/>
</svg>
