<svg width="20" height="20" viewBox="0 0 20 20" fill="none" xmlns="http://www.w3.org/2000/svg">
<path d="M9.05521 0H12.3299V15.0092C10.6526 15.3265 9.41773 15.4513 8.08166 15.4513C4.08201 15.4472 2 13.6603 2 10.2285C2 6.92201 4.20844 4.77608 7.63069 4.77608C8.16175 4.77608 8.56631 4.81788 9.05521 4.94308V0ZM9.16996 7.64792C8.78642 7.52265 8.47037 7.48092 8.06574 7.48092C6.40944 7.48092 5.45274 8.49122 5.45274 10.2618C5.45274 11.9856 6.36734 12.9375 8.04472 12.9375C8.40712 12.9375 8.70215 12.9171 9.16996 12.8544V7.64792Z" fill="#2BA977"/>
<path d="M17.6853 5.17905V12.694C17.6853 15.2819 17.4915 16.5265 16.9225 17.5995C16.3914 18.6311 15.6918 19.2815 14.2462 20L11.2075 18.568C12.6531 17.8962 13.3527 17.3026 13.7995 16.3967C14.2673 15.4703 14.4148 14.3973 14.4148 11.575V5.17911H17.6853V5.17905ZM14.0848 0H17.3595V3.32741H14.0848V0Z" fill="#2BA977"/>
</svg>
