<svg width="14" height="20" viewBox="0 0 14 20" fill="none" xmlns="http://www.w3.org/2000/svg">
<path d="M6.6665 0H9.99987C11.8399 0 13.3332 1.49334 13.3332 3.33336C13.3332 5.17337 11.8399 6.66671 9.99987 6.66671H6.6665V0Z" fill="#FF7262"/>
<path d="M3.33336 19.9997C5.17337 19.9997 6.66672 18.5064 6.66672 16.6664V13.333H3.33336C1.49334 13.333 0 14.8263 0 16.6664C0 18.5064 1.49334 19.9997 3.33336 19.9997Z" fill="#0ACF83"/>
<path d="M0 10.0003C0 8.16033 1.49334 6.66699 3.33336 6.66699H6.66672V13.3337H3.33336C1.49334 13.3337 0 11.8404 0 10.0003Z" fill="#A259FF"/>
<path d="M0 3.33336C0 1.49334 1.49334 0 3.33336 0H6.66672V6.66671H3.33336C1.49334 6.66671 0 5.17337 0 3.33336Z" fill="#F24E1E"/>
<path d="M13.3332 10.0003C13.3332 11.8404 11.8399 13.3337 9.99987 13.3337C8.15985 13.3337 6.6665 11.8404 6.6665 10.0003C6.6665 8.16033 8.15985 6.66699 9.99987 6.66699C11.8399 6.66699 13.3332 8.16033 13.3332 10.0003Z" fill="#1ABCFE"/>
</svg>
