<svg width="20" height="20" viewBox="0 0 20 20" fill="none" xmlns="http://www.w3.org/2000/svg">
<path d="M10 0C4.47788 0 0 4.4771 0 10C0 14.4184 2.86531 18.1668 6.83866 19.4891C7.33841 19.5817 7.52193 19.2722 7.52193 19.008C7.52193 18.7696 7.5126 17.9818 7.50836 17.1462C4.72626 17.7511 4.13923 15.9663 4.13923 15.9663C3.68434 14.8105 3.02891 14.5032 3.02891 14.5032C2.12165 13.8825 3.0973 13.8952 3.0973 13.8952C4.1015 13.9658 4.63027 14.9257 4.63027 14.9257C5.52216 16.4546 6.96964 16.0125 7.54028 15.7571C7.63 15.1107 7.88921 14.6696 8.17516 14.4199C5.95406 14.1669 3.61909 13.3095 3.61909 9.47778C3.61909 8.38606 4.00974 7.49393 4.64948 6.79364C4.54564 6.54173 4.20338 5.52467 4.74634 4.14723C4.74634 4.14723 5.58608 3.87845 7.49707 5.17229C8.29469 4.95065 9.15019 4.83959 10 4.83583C10.8499 4.83959 11.706 4.95065 12.5052 5.17229C14.4139 3.87845 15.2525 4.14723 15.2525 4.14723C15.7968 5.52467 15.4544 6.54173 15.3505 6.79364C15.9917 7.49393 16.3797 8.38598 16.3797 9.47778C16.3797 13.3186 14.0403 14.1644 11.8135 14.4119C12.1722 14.7222 12.4918 15.3308 12.4918 16.2637C12.4918 17.6017 12.4802 18.6786 12.4802 19.008C12.4802 19.2741 12.6602 19.586 13.1671 19.4878C17.1383 18.164 20 14.4169 20 10C20 4.4771 15.5227 0 10 0Z" fill="#161614"/>
<path d="M3.74538 14.2457C3.72342 14.2954 3.64515 14.3103 3.57401 14.2763C3.50146 14.2436 3.46068 14.1759 3.48421 14.126C3.50578 14.0748 3.58405 14.0606 3.65644 14.0949C3.72914 14.1275 3.77055 14.1959 3.74538 14.2457ZM4.23728 14.6846C4.1896 14.7289 4.09635 14.7083 4.03305 14.6384C3.96764 14.5687 3.95541 14.4755 4.0038 14.4306C4.05297 14.3864 4.1434 14.4071 4.20897 14.4769C4.27438 14.5474 4.28708 14.64 4.2372 14.6847L4.23728 14.6846ZM4.57476 15.2462C4.51343 15.2888 4.4132 15.2488 4.35132 15.1599C4.29006 15.0711 4.29007 14.9644 4.35265 14.9216C4.41477 14.8789 4.51343 14.9173 4.57617 15.0056C4.63735 15.096 4.63735 15.2027 4.57468 15.2463L4.57476 15.2462ZM5.14541 15.8966C5.09059 15.957 4.97389 15.9408 4.8884 15.8583C4.80103 15.7777 4.77664 15.6633 4.83162 15.6028C4.88706 15.5422 5.00447 15.5593 5.09059 15.6411C5.17741 15.7215 5.20392 15.8368 5.14549 15.8966H5.14541ZM5.88295 16.1162C5.85888 16.1945 5.74641 16.2301 5.63316 16.1968C5.52006 16.1625 5.44603 16.0708 5.46885 15.9916C5.49238 15.9128 5.60532 15.8757 5.71943 15.9113C5.83237 15.9455 5.90656 16.0365 5.88303 16.1162H5.88295ZM6.72245 16.2093C6.72528 16.2918 6.6292 16.3602 6.5103 16.3617C6.3907 16.3643 6.294 16.2975 6.29274 16.2164C6.29274 16.1331 6.38662 16.0654 6.50615 16.0634C6.62505 16.0611 6.72245 16.1273 6.72245 16.2093ZM7.54705 16.1777C7.56133 16.2581 7.47866 16.3408 7.36063 16.3628C7.24455 16.3839 7.13711 16.3343 7.12228 16.2545C7.10785 16.172 7.19209 16.0894 7.30792 16.068C7.4262 16.0475 7.532 16.0959 7.54705 16.1777Z" fill="#161614"/>
</svg>
