<svg width="20" height="20" viewBox="0 0 20 20" fill="none" xmlns="http://www.w3.org/2000/svg">
<path d="M20 0H0V20H20V0Z" fill="#F7DF1E"/>
<path d="M13.435 15.6254C13.8379 16.2832 14.362 16.7666 15.289 16.7666C16.0677 16.7666 16.5652 16.3774 16.5652 15.8397C16.5652 15.1952 16.0541 14.967 15.1969 14.592L14.7271 14.3905C13.3709 13.8127 12.4699 13.0889 12.4699 11.5587C12.4699 10.1492 13.5439 9.07617 15.2223 9.07617C16.4172 9.07617 17.2763 9.49204 17.8953 10.5809L16.4318 11.5206C16.1096 10.9428 15.762 10.7152 15.2223 10.7152C14.6718 10.7152 14.3229 11.0644 14.3229 11.5206C14.3229 12.0844 14.6721 12.3127 15.4785 12.6619L15.9483 12.8632C17.5452 13.5479 18.4467 14.246 18.4467 15.8155C18.4467 17.5076 17.1175 18.4346 15.3325 18.4346C13.5871 18.4346 12.4594 17.6028 11.9077 16.5127L13.435 15.6254ZM6.79595 15.7882C7.09119 16.312 7.35976 16.7549 8.00548 16.7549C8.62294 16.7549 9.01246 16.5133 9.01246 15.5739V9.18347H10.8918V15.5993C10.8918 17.5454 9.75088 18.4311 8.08548 18.4311C6.58072 18.4311 5.70929 17.6524 5.26611 16.7144L6.79595 15.7882Z" fill="black"/>
</svg>
