<svg width="20" height="20" viewBox="0 0 20 20" fill="none" xmlns="http://www.w3.org/2000/svg">
<path d="M7.75065 15.467C7.75065 15.467 6.98639 15.9115 8.29457 16.0618C9.87943 16.2426 10.6894 16.2167 12.4359 15.8862C12.4359 15.8862 12.8951 16.1741 13.5363 16.4235C9.62117 18.1014 4.67543 16.3262 7.75065 15.467ZM7.27222 13.2773C7.27222 13.2773 6.41502 13.9119 7.72419 14.0473C9.41716 14.2219 10.7541 14.2362 13.0676 13.7907C13.0676 13.7907 13.3876 14.1151 13.8908 14.2926C9.15704 15.6768 3.88454 14.4017 7.27222 13.2773Z" fill="#5382A1"/>
<path d="M11.3053 9.56303C12.27 10.6737 11.0518 11.6732 11.0518 11.6732C11.0518 11.6732 13.5013 10.4087 12.3764 8.82512C11.3257 7.34849 10.5199 6.61469 14.8819 4.08496C14.8819 4.08496 8.03508 5.79496 11.3053 9.56298" fill="#E76F00"/>
<path d="M16.4835 17.0867C16.4835 17.0867 17.0491 17.5527 15.8606 17.9132C13.6007 18.5979 6.45463 18.8046 4.46946 17.9405C3.75587 17.6301 5.09411 17.1993 5.51503 17.1088C5.95403 17.0136 6.20494 17.0314 6.20494 17.0314C5.41132 16.4723 1.07535 18.1292 4.0025 18.6036C11.9852 19.8982 18.5541 18.0207 16.4835 17.0867ZM8.11801 11.0086C8.11801 11.0086 4.48313 11.872 6.83085 12.1855C7.82211 12.3182 9.79819 12.2882 11.6389 12.134C13.1432 12.0071 14.6537 11.7373 14.6537 11.7373C14.6537 11.7373 14.1233 11.9645 13.7395 12.2265C10.0483 13.1973 2.91749 12.7457 4.97036 11.7526C6.70647 10.9135 8.11807 11.0086 8.11807 11.0086H8.11801ZM14.6387 14.6535C18.3911 12.7036 16.6561 10.8298 15.4452 11.0823C15.1483 11.144 15.016 11.1975 15.016 11.1975C15.016 11.1975 15.1262 11.025 15.3366 10.9503C17.7323 10.108 19.5747 13.4343 14.5633 14.7517C14.5633 14.7518 14.6214 14.6999 14.6387 14.6535Z" fill="#5382A1"/>
<path d="M12.3766 5.79063e-05C12.3766 5.79063e-05 14.4547 2.07892 10.4056 5.27545C7.15871 7.83969 9.66522 9.30173 10.4043 10.9722C8.50899 9.26218 7.11806 7.75682 8.05123 6.35582C9.42079 4.29914 13.215 3.30203 12.3766 0" fill="#E76F00"/>
<path d="M8.48673 19.9367C12.0885 20.1672 17.6194 19.8087 17.7504 18.1045C17.7504 18.1045 17.4986 18.7506 14.7737 19.2637C11.6995 19.8422 7.908 19.7746 5.65918 19.4039C5.65924 19.4039 6.11954 19.7849 8.48679 19.9367" fill="#5382A1"/>
</svg>
