<svg width="26" height="25" viewBox="0 0 26 25" fill="none" xmlns="http://www.w3.org/2000/svg">
<path d="M21.2504 7.29973C21.136 6.93379 20.8616 6.63647 20.5185 6.4535L13.5429 3.11435C13.3599 3.02287 13.1541 3 12.9711 3C12.7882 3 12.5823 3 12.3993 3.04574L5.42373 6.40776C5.08066 6.56786 4.82908 6.86518 4.7376 7.25398L3.02228 14.7785C2.95367 15.1673 3.04516 15.5561 3.27386 15.8763L8.09962 21.8456C8.37407 22.1201 8.76288 22.303 9.15168 22.3259H16.8363C17.248 22.3716 17.6368 22.1887 17.8884 21.8456L22.7141 15.8763C22.9428 15.5561 23.0343 15.1673 22.9886 14.7785L21.2504 7.29973Z" fill="white" stroke="white" stroke-width="5" stroke-miterlimit="10"/>
<path d="M21.2504 7.29973C21.136 6.93379 20.8616 6.63647 20.5185 6.4535L13.5429 3.11435C13.3599 3.02287 13.1541 3 12.9711 3C12.7882 3 12.5823 3 12.3993 3.04574L5.42373 6.40776C5.08066 6.56786 4.82908 6.86518 4.7376 7.25398L3.02228 14.7785C2.95367 15.1673 3.04516 15.5561 3.27386 15.8763L8.09962 21.8456C8.37407 22.1201 8.76288 22.303 9.15168 22.3259H16.8363C17.248 22.3716 17.6368 22.1887 17.8884 21.8456L22.7141 15.8763C22.9428 15.5561 23.0343 15.1673 22.9886 14.7785L21.2504 7.29973Z" fill="#326DE6"/>
<path d="M20.1754 14.4808C20.1526 14.4808 20.1297 14.4808 20.1297 14.4579C20.1297 14.435 20.084 14.435 20.0382 14.435C19.9467 14.4122 19.8553 14.4122 19.7638 14.4122C19.718 14.4122 19.6723 14.4122 19.6265 14.3893H19.6037C19.3521 14.3664 19.0776 14.3207 18.8261 14.2521C18.7574 14.2292 18.6888 14.1606 18.666 14.092L18.483 14.0462C18.5745 13.383 18.5287 12.6968 18.3915 12.0336C18.2314 11.3703 17.957 10.7299 17.591 10.1582L17.7283 10.0209V9.99807C17.7283 9.92946 17.7511 9.83797 17.7969 9.79223C18.0027 9.60927 18.2085 9.47204 18.4373 9.33482C18.483 9.31194 18.5287 9.28907 18.5745 9.2662C18.666 9.22046 18.7346 9.17472 18.8261 9.12898C18.8489 9.10611 18.8718 9.10611 18.8947 9.08324C18.9175 9.06036 18.8947 9.06036 18.8947 9.03749C19.1005 8.8774 19.1463 8.60295 18.9862 8.39711C18.9175 8.30563 18.7803 8.23701 18.666 8.23701C18.5516 8.23701 18.4373 8.28275 18.3458 8.35137L18.3229 8.37424C18.3 8.39711 18.2772 8.41998 18.2543 8.41998C18.1857 8.48859 18.1171 8.55721 18.0713 8.62582C18.0485 8.67156 18.0027 8.69443 17.9798 8.7173C17.8197 8.90027 17.6139 9.08324 17.4081 9.22046C17.3623 9.24333 17.3166 9.2662 17.2708 9.2662C17.248 9.2662 17.2022 9.2662 17.1794 9.24333H17.1565L16.9735 9.35769C16.7906 9.17472 16.5847 8.99175 16.4017 8.80878C15.5555 8.14553 14.5035 7.73385 13.4285 7.6195L13.4057 7.43653V7.4594C13.3371 7.41366 13.3142 7.34505 13.2913 7.27644C13.2913 7.02486 13.2913 6.77328 13.3371 6.49883V6.47595C13.3371 6.43021 13.3599 6.38447 13.3599 6.33873C13.3828 6.24725 13.3828 6.15576 13.4057 6.06428V5.92705C13.4285 5.69834 13.2456 5.46964 13.0169 5.44676C12.8796 5.42389 12.7424 5.49251 12.6281 5.60686C12.5366 5.69834 12.4908 5.8127 12.4908 5.92705V6.04141C12.4908 6.13289 12.5137 6.22438 12.5366 6.31586C12.5594 6.3616 12.5594 6.40734 12.5594 6.45308V6.47595C12.6052 6.72753 12.6052 6.97911 12.6052 7.25356C12.5823 7.32218 12.5594 7.39079 12.4908 7.43653V7.48227L12.468 7.66524C12.2164 7.68811 11.9648 7.73385 11.6903 7.77959C10.6154 8.0083 9.63197 8.58008 8.87723 9.38056L8.74 9.28907H8.71713C8.69426 9.28907 8.67139 9.31194 8.62565 9.31194C8.57991 9.31194 8.53417 9.28907 8.48842 9.2662C8.28259 9.10611 8.07675 8.92314 7.91665 8.74017C7.89378 8.69443 7.84804 8.67156 7.82517 8.64869C7.75656 8.58008 7.71081 8.51146 7.6422 8.44285C7.61933 8.41998 7.59646 8.41998 7.57359 8.39711C7.55072 8.37424 7.55072 8.37424 7.55072 8.37424C7.45923 8.30563 7.34488 8.25988 7.23053 8.25988C7.0933 8.25988 6.97895 8.30563 6.91033 8.41998C6.77311 8.62582 6.81885 8.90027 7.00182 9.06036C7.02469 9.06036 7.02469 9.08324 7.02469 9.08324C7.02469 9.08324 7.07043 9.12898 7.0933 9.12898C7.16191 9.17472 7.2534 9.22046 7.34488 9.2662C7.39062 9.28907 7.43636 9.31194 7.48211 9.33482C7.71081 9.47204 7.93952 9.60927 8.12249 9.79223C8.16823 9.83797 8.21397 9.92946 8.1911 9.99807V9.9752L8.32833 10.1124C8.30546 10.1582 8.28259 10.181 8.25971 10.2268C7.55072 11.3475 7.2534 12.674 7.45923 13.9776L7.27627 14.0233C7.27627 14.0462 7.2534 14.0462 7.2534 14.0462C7.23053 14.1148 7.16191 14.1606 7.0933 14.2063C6.84172 14.2749 6.59014 14.3207 6.31569 14.3435C6.26995 14.3435 6.22421 14.3435 6.17846 14.3664C6.08698 14.3664 5.9955 14.3893 5.90401 14.3893C5.88114 14.3893 5.85827 14.4122 5.81253 14.4122C5.78966 14.4122 5.78966 14.4122 5.76679 14.435C5.51521 14.4808 5.35511 14.7095 5.40085 14.9611C5.4466 15.1669 5.65243 15.3041 5.85827 15.2812C5.90401 15.2812 5.92688 15.2812 5.97263 15.2584C5.9955 15.2584 5.9955 15.2584 5.9955 15.2355C5.9955 15.2126 6.06411 15.2355 6.08698 15.2355C6.17846 15.2126 6.26995 15.1669 6.33856 15.144C6.3843 15.1211 6.43004 15.0983 6.47579 15.0983H6.49866C6.75024 15.0068 6.97895 14.9382 7.2534 14.8924H7.27627C7.34488 14.8924 7.41349 14.9153 7.45923 14.9611C7.4821 14.9611 7.48211 14.9839 7.48211 14.9839L7.68794 14.9611C8.03101 16.0131 8.67139 16.9508 9.56336 17.6369C9.76919 17.797 9.95216 17.9343 10.1809 18.0486L10.0665 18.2087C10.0665 18.2316 10.0894 18.2316 10.0894 18.2316C10.1351 18.3002 10.1351 18.3917 10.1123 18.4603C10.0208 18.689 9.88355 18.9177 9.74632 19.1236V19.1464C9.72345 19.1922 9.70058 19.215 9.65484 19.2608C9.6091 19.3065 9.56336 19.398 9.49474 19.4895C9.47187 19.5124 9.47187 19.5352 9.449 19.5581C9.449 19.5581 9.449 19.581 9.42613 19.581C9.31178 19.8097 9.40326 20.0841 9.6091 20.1985C9.65484 20.2214 9.72345 20.2442 9.76919 20.2442C9.95216 20.2442 10.1123 20.1299 10.2037 19.9698C10.2037 19.9698 10.2037 19.9469 10.2266 19.9469C10.2266 19.924 10.2495 19.9012 10.2724 19.8783C10.2952 19.7868 10.341 19.7182 10.3638 19.6267L10.4096 19.4895C10.4782 19.2379 10.5925 19.0092 10.7069 18.7805C10.7526 18.7119 10.8213 18.6661 10.8899 18.6433C10.9127 18.6433 10.9127 18.6433 10.9127 18.6204L11.0042 18.4374C11.6446 18.689 12.3079 18.8034 12.994 18.8034C13.4057 18.8034 13.8173 18.7576 14.229 18.6433C14.4806 18.5975 14.7322 18.506 14.9609 18.4374L15.0524 18.5975C15.0752 18.5975 15.0752 18.5975 15.0752 18.6204C15.1439 18.6433 15.2125 18.689 15.2582 18.7576C15.3726 18.9863 15.4869 19.215 15.5555 19.4666V19.4895L15.6013 19.6267C15.6241 19.7182 15.647 19.8097 15.6928 19.8783C15.7156 19.9012 15.7156 19.924 15.7385 19.9469C15.7385 19.9469 15.7385 19.9698 15.7614 19.9698C15.8528 20.1299 16.0129 20.2442 16.1959 20.2442C16.2645 20.2442 16.3103 20.2214 16.3789 20.1985C16.4704 20.1527 16.5618 20.0613 16.5847 19.9469C16.6076 19.8326 16.6076 19.7182 16.5618 19.6038C16.5618 19.581 16.539 19.581 16.539 19.581C16.539 19.5581 16.5161 19.5352 16.4932 19.5124C16.4475 19.4209 16.4017 19.3523 16.3331 19.2836C16.3103 19.2379 16.2874 19.215 16.2417 19.1693V19.1236C16.0816 18.9177 15.9672 18.689 15.8757 18.4603C15.8528 18.3917 15.8528 18.3002 15.8986 18.2316C15.8986 18.2087 15.9215 18.2087 15.9215 18.2087L15.8528 18.0258C17.0193 17.3168 17.9112 16.219 18.3229 14.9153L18.5059 14.9382C18.5287 14.9382 18.5287 14.9153 18.5287 14.9153C18.5745 14.8696 18.6431 14.8467 18.7117 14.8467H18.7346C18.9862 14.8924 19.2377 14.9611 19.4664 15.0525H19.4893C19.5351 15.0754 19.5808 15.0983 19.6265 15.0983C19.718 15.144 19.7866 15.1898 19.8781 15.2126C19.901 15.2126 19.9239 15.2355 19.9696 15.2355C19.9925 15.2355 19.9925 15.2355 20.0153 15.2584C20.0611 15.2812 20.084 15.2812 20.1297 15.2812C20.3355 15.2812 20.5185 15.144 20.5871 14.9611C20.5642 14.7095 20.3813 14.5265 20.1754 14.4808ZM13.5658 13.7718L12.9482 14.0691L12.3307 13.7718L12.1706 13.1085L12.6052 12.5596H13.2913L13.7259 13.1085L13.5658 13.7718ZM17.2937 12.2852C17.4081 12.7654 17.4309 13.2457 17.3852 13.726L15.2125 13.1085C15.0066 13.0628 14.8923 12.8569 14.938 12.6511C14.9609 12.5825 14.9838 12.5367 15.0295 12.491L16.7448 10.9358C16.9964 11.3475 17.1794 11.8049 17.2937 12.2852ZM16.0587 10.0896L14.1833 11.4161C14.0232 11.5075 13.7945 11.4847 13.6801 11.3246C13.6344 11.2788 13.6115 11.2331 13.6115 11.1645L13.4743 8.85453C14.4806 8.96888 15.3726 9.40343 16.0587 10.0896ZM11.9191 8.92314L12.3765 8.83166L12.2621 11.1187C12.2621 11.3246 12.0792 11.4847 11.8733 11.4847C11.8047 11.4847 11.759 11.4618 11.6903 11.4389L9.79206 10.0896C10.3867 9.51778 11.1186 9.10611 11.9191 8.92314ZM9.12881 10.9358L10.8213 12.4453C10.9813 12.5825 11.0042 12.8112 10.867 12.9713C10.8213 13.0399 10.7755 13.0628 10.684 13.0856L8.46555 13.726C8.39694 12.7654 8.62565 11.782 9.12881 10.9358ZM8.74 14.801L11.0042 14.4122C11.1872 14.4122 11.3702 14.5265 11.393 14.7095C11.4159 14.7781 11.4159 14.8696 11.3702 14.9382L10.5011 17.0423C9.70058 16.5163 9.0602 15.7158 8.74 14.801ZM13.9317 17.6369C13.6115 17.7056 13.2913 17.7513 12.9482 17.7513C12.468 17.7513 11.9648 17.6598 11.5074 17.5226L12.6281 15.4871C12.7424 15.3499 12.9254 15.3041 13.0855 15.3956C13.1541 15.4413 13.1998 15.4871 13.2684 15.5557L14.3662 17.5455C14.229 17.5683 14.0918 17.5912 13.9317 17.6369ZM16.7219 15.6472C16.3789 16.1961 15.8986 16.6764 15.3497 17.0194L14.4577 14.8696C14.412 14.6866 14.5035 14.5036 14.6636 14.435C14.7322 14.4122 14.8008 14.3893 14.8694 14.3893L17.1565 14.7781C17.0421 15.0983 16.9049 15.3956 16.7219 15.6472Z" fill="white"/>
</svg>
