<svg width="20" height="20" viewBox="0 0 20 20" fill="none" xmlns="http://www.w3.org/2000/svg">
<path d="M18.4221 15.4133C17.3339 15.3857 16.4905 15.4962 15.7832 15.7999C15.5791 15.8827 15.2526 15.8828 15.2254 16.1451C15.3343 16.2556 15.3479 16.4351 15.4431 16.587C15.6065 16.8631 15.892 17.2359 16.1504 17.4293C16.436 17.6502 16.7218 17.8711 17.0209 18.0644C17.5515 18.3958 18.1501 18.5891 18.667 18.9205C18.9663 19.1136 19.2654 19.3624 19.5647 19.5694C19.7143 19.6797 19.8095 19.8594 20 19.9284V19.887C19.9047 19.7627 19.8775 19.5832 19.7823 19.4451C19.6465 19.3071 19.5103 19.1828 19.3742 19.0447C18.9798 18.5063 18.4901 18.0368 17.9596 17.6502C17.5244 17.3464 16.5721 16.9322 16.3953 16.4213C16.3953 16.4213 16.3816 16.4075 16.3681 16.3937C16.6673 16.3661 17.0209 16.2556 17.3067 16.1728C17.7692 16.0484 18.1908 16.0761 18.667 15.9518C18.8845 15.8966 19.1022 15.8275 19.3198 15.7585V15.6343C19.0751 15.3857 18.8982 15.0544 18.6397 14.8196C17.946 14.2119 17.1842 13.6183 16.3953 13.1213C15.9736 12.8451 15.4294 12.6656 14.9806 12.4309C14.8175 12.3479 14.5453 12.3066 14.4502 12.1685C14.2052 11.8648 14.0692 11.4644 13.8924 11.1054C13.498 10.3458 13.117 9.50365 12.7769 8.70287C12.5322 8.16431 12.3826 7.62576 12.0833 7.12878C10.6822 4.78146 9.15872 3.35927 6.81913 1.96463C6.31578 1.67471 5.71728 1.55043 5.07797 1.39861C4.73802 1.38472 4.39784 1.35718 4.05782 1.34329C3.84015 1.24663 3.62249 0.984334 3.43203 0.860052C2.65683 0.362921 0.657111 -0.713957 0.0858178 0.70823C-0.281492 1.60567 0.629981 2.4893 0.942718 2.94508C1.17414 3.26261 1.47328 3.62157 1.63653 3.98061C1.73175 4.21521 1.75888 4.46393 1.85411 4.71242C2.07186 5.31978 2.27576 5.99651 2.56153 6.56269C2.71117 6.8526 2.87434 7.15632 3.0648 7.4187C3.17363 7.57052 3.36401 7.63964 3.4049 7.88813C3.21452 8.16431 3.20084 8.57859 3.09193 8.92374C2.60226 10.484 2.79279 12.4171 3.48645 13.5631C3.70403 13.9081 4.22099 14.6678 4.91472 14.3777C5.5269 14.1292 5.39086 13.3422 5.56756 12.6518C5.60853 12.486 5.58132 12.3756 5.66286 12.2652V12.2929C5.85332 12.6794 6.0437 13.0523 6.22055 13.4389C6.64228 14.1154 7.37674 14.8196 7.98885 15.2891C8.31542 15.5375 8.57382 15.9656 8.98195 16.1175V16.076H8.95466C8.87304 15.9517 8.7506 15.8966 8.64184 15.7998C8.39705 15.5514 8.12489 15.2476 7.93451 14.9714C7.3633 14.1981 6.85987 13.3421 6.41101 12.4584C6.19342 12.0305 6.00289 11.561 5.82611 11.133C5.74441 10.9671 5.74441 10.7187 5.60845 10.6359C5.40439 10.9396 5.10518 11.202 4.95553 11.5748C4.69721 12.1685 4.66992 12.9003 4.57469 13.6597C4.52028 13.6736 4.54741 13.6597 4.5202 13.6874C4.08503 13.5768 3.93538 13.1213 3.77205 12.7346C3.36393 11.7543 3.29591 10.1802 3.6497 9.04802C3.74492 8.75803 4.15305 7.84678 3.9898 7.5706C3.90817 7.30822 3.63601 7.15632 3.48645 6.94927C3.30967 6.68689 3.11914 6.35563 2.99678 6.06556C2.67028 5.29232 2.50703 4.43623 2.1534 3.663C1.99015 3.30396 1.70462 2.93127 1.47328 2.59985C1.21488 2.22708 0.929192 1.96463 0.725131 1.52281C0.657189 1.37099 0.561882 1.12243 0.670715 0.956716C0.697923 0.846242 0.752261 0.804894 0.861172 0.777276C1.03803 0.625296 1.54138 0.818624 1.71807 0.901479C2.22142 1.10846 2.64307 1.30195 3.0648 1.59186C3.25518 1.72995 3.45924 1.99232 3.70403 2.06137H3.98972C4.42505 2.15796 4.91464 2.08899 5.32276 2.21319C6.04378 2.44787 6.69662 2.7931 7.28159 3.16595C9.06357 4.31195 10.5325 5.94127 11.5256 7.88813C11.6888 8.20558 11.7568 8.49573 11.9064 8.827C12.1922 9.50365 12.5458 10.194 12.8314 10.8568C13.117 11.5057 13.389 12.1685 13.7972 12.7071C14.0012 12.9969 14.8173 13.1489 15.1846 13.3008C15.4567 13.425 15.8784 13.5355 16.1232 13.6874C16.5857 13.9772 17.0481 14.3088 17.4835 14.6262C17.7011 14.7919 18.3812 15.1372 18.4221 15.4133Z" fill="#00546B"/>
<path d="M4.54736 3.41406C4.31617 3.41406 4.15299 3.44184 3.98975 3.48319V3.51081H4.01695C4.12586 3.73175 4.31617 3.88365 4.45213 4.0769C4.56104 4.29777 4.65619 4.5188 4.7651 4.73974C4.77862 4.72585 4.79223 4.71212 4.79223 4.71212C4.98276 4.57395 5.07791 4.35309 5.07791 4.02167C4.99629 3.92508 4.98269 3.82842 4.91467 3.73175C4.83312 3.59358 4.65619 3.52462 4.54736 3.41406Z" fill="#00546B"/>
</svg>
