<svg width="20" height="20" viewBox="0 0 20 20" fill="none" xmlns="http://www.w3.org/2000/svg">
<path fill-rule="evenodd" clip-rule="evenodd" d="M11.7762 0C11.6316 0 11.4973 0.0309912 11.3734 0.0723105C11.6368 0.247921 11.7814 0.480349 11.8537 0.743765C11.8589 0.77992 11.8692 0.805746 11.8744 0.841899C11.8796 0.87289 11.8847 0.90388 11.8847 0.934871C11.9054 1.38939 11.7659 1.44621 11.6678 1.71479C11.518 2.06085 11.5593 2.43273 11.7401 2.7323C11.7556 2.76846 11.7762 2.80978 11.8021 2.84593C11.6058 1.53918 12.6956 1.34291 12.897 0.934871C12.9125 0.578484 12.6181 0.340892 12.3857 0.175611C12.1636 0.0413205 11.9622 0 11.7762 0ZM13.4187 0.294407C13.398 0.413202 13.4135 0.382212 13.4084 0.444193C13.4032 0.485512 13.4032 0.537164 13.3981 0.578483C13.3877 0.619804 13.3774 0.661123 13.3619 0.702446C13.3516 0.743765 13.3361 0.785085 13.3206 0.826404C13.2999 0.867727 13.2844 0.90388 13.2638 0.945201C13.2483 0.965869 13.238 0.98652 13.2225 1.00718C13.2121 1.02268 13.2018 1.03817 13.1915 1.05367C13.1656 1.08982 13.1398 1.12598 13.114 1.15697C13.083 1.18796 13.0572 1.22411 13.021 1.24994V1.25511C12.99 1.28094 12.959 1.31193 12.9229 1.33775C12.8144 1.42039 12.6905 1.48237 12.5768 1.55985C12.5407 1.58567 12.5045 1.60633 12.4735 1.63732C12.4374 1.66315 12.4064 1.68897 12.3754 1.71996C12.3392 1.75095 12.3134 1.78194 12.2824 1.8181C12.2566 1.84909 12.2256 1.88524 12.2049 1.9214C12.1791 1.95755 12.1533 1.99371 12.1326 2.02986C12.112 2.07118 12.0965 2.10734 12.0758 2.14866C12.0603 2.18998 12.0448 2.22614 12.0345 2.26745C12.019 2.31394 12.0087 2.35526 11.9983 2.39658C11.9932 2.41725 11.9932 2.44307 11.988 2.46373C11.9828 2.4844 11.9828 2.50505 11.9777 2.52571C11.9777 2.56703 11.9725 2.61351 11.9725 2.65483C11.9725 2.68582 11.9725 2.71681 11.9777 2.7478C11.9777 2.78912 11.9829 2.83044 11.9932 2.87693C11.9984 2.91825 12.0087 2.95957 12.019 3.00089C12.0345 3.04221 12.0448 3.08353 12.0603 3.12485C12.0707 3.15068 12.0862 3.1765 12.0965 3.19716L10.9085 2.73747C10.7071 2.68066 10.5108 2.62901 10.3094 2.58252C10.2009 2.5567 10.0925 2.53087 9.984 2.50505C9.67409 2.44307 9.35903 2.39658 9.04396 2.36559C9.03364 2.36559 9.02847 2.36042 9.01814 2.36042C8.70823 2.32943 8.4035 2.31394 8.0936 2.31394C7.86633 2.31394 7.63907 2.32426 7.41698 2.33976C7.10191 2.36043 6.78684 2.40174 6.47178 2.45339C6.3943 2.46371 6.31682 2.47922 6.23935 2.49471C6.07923 2.5257 5.92428 2.56186 5.7745 2.59801C5.69702 2.61868 5.61954 2.63933 5.54207 2.65999C5.46459 2.69098 5.39228 2.72714 5.31997 2.75813C5.26316 2.78395 5.20634 2.80978 5.14953 2.8356C5.13921 2.84078 5.12886 2.84078 5.1237 2.84593C5.07205 2.87175 5.02557 2.89241 4.97908 2.91824C4.96359 2.92341 4.95326 2.92856 4.94293 2.93373C4.88611 2.95956 4.8293 2.99055 4.78281 3.01637C4.74665 3.03187 4.7105 3.05253 4.67951 3.06802C4.66402 3.07834 4.64335 3.08869 4.63302 3.09385C4.58654 3.11967 4.54005 3.1455 4.49873 3.17132C4.45225 3.19715 4.41093 3.22297 4.37477 3.2488C4.33862 3.27462 4.30246 3.29528 4.27147 3.32111C4.2663 3.32628 4.26115 3.32628 4.25598 3.33143C4.22499 3.3521 4.18883 3.37791 4.15784 3.40374C4.15784 3.40374 4.15267 3.40891 4.14752 3.41406C4.1217 3.43473 4.09587 3.45538 4.07004 3.47604C4.05972 3.48121 4.04938 3.49154 4.03905 3.49671C4.01323 3.51738 3.9874 3.5432 3.96158 3.56386C3.95641 3.57418 3.94608 3.57935 3.94091 3.58453C3.90992 3.61552 3.87893 3.64134 3.84794 3.67233C3.84277 3.67233 3.84277 3.6775 3.83762 3.68265C3.80663 3.70848 3.77564 3.73947 3.74465 3.77046C3.73947 3.77563 3.73947 3.78078 3.73432 3.78078C3.7085 3.8066 3.68268 3.83243 3.65685 3.86342C3.64653 3.87374 3.63102 3.88409 3.62069 3.89441C3.59487 3.9254 3.56388 3.95639 3.53289 3.98738C3.52772 3.9977 3.51739 4.00288 3.51222 4.01321C3.4709 4.05453 3.43475 4.09585 3.39343 4.13717C3.38825 4.14234 3.3831 4.14749 3.37793 4.15266C3.29529 4.24047 3.20748 4.32827 3.11451 4.40575C3.02154 4.48839 2.92341 4.56586 2.82527 4.63301C2.72197 4.70532 2.62384 4.7673 2.51537 4.82928C2.41207 4.88609 2.3036 4.93775 2.18997 4.98423C2.08151 5.03072 1.96788 5.07204 1.85425 5.10819C1.63731 5.15468 1.41522 5.24248 1.22411 5.25798C1.18279 5.25798 1.13631 5.2683 1.09499 5.27347C1.0485 5.28379 1.00718 5.29414 0.965861 5.30446C0.924542 5.31996 0.883219 5.33545 0.8419 5.35095C0.80058 5.36644 0.75926 5.3871 0.71794 5.40776C0.681784 5.43359 0.640464 5.45425 0.604308 5.48007C0.568154 5.5059 0.531998 5.53689 0.501007 5.56788C0.464853 5.59371 0.428697 5.62986 0.397707 5.66085C0.366716 5.69701 0.335726 5.728 0.309901 5.76415C0.284077 5.80547 0.253086 5.84163 0.232425 5.88295C0.206601 5.9191 0.180776 5.96042 0.160115 6.00174C0.139447 6.04823 0.118795 6.08955 0.1033 6.13603C0.087805 6.17735 0.0723098 6.22384 0.0568147 6.27032C0.0464927 6.31164 0.0361463 6.35296 0.0309902 6.39428C0.0309902 6.39946 0.0258172 6.40461 0.0258172 6.40978C0.0154951 6.45627 0.0154951 6.51825 0.0103219 6.54924C0.00514892 6.58539 0 6.61638 0 6.65254C0 6.67321 1.60791e-08 6.69902 0.00517299 6.71968C0.010346 6.75584 0.0154949 6.78683 0.0258413 6.81782C0.0361633 6.84881 0.0465097 6.8798 0.0619952 6.91079V6.91596C0.0774904 6.94695 0.0981515 6.97794 0.11881 7.00893C0.139479 7.03992 0.160132 7.07091 0.185957 7.10191C0.211781 7.12773 0.242772 7.15872 0.273762 7.18454C0.304753 7.21553 0.335743 7.24136 0.371897 7.26718C0.495858 7.37565 0.526849 7.41181 0.686965 7.49444C0.712789 7.50994 0.738616 7.52027 0.769607 7.53577C0.77478 7.53577 0.779929 7.54094 0.785102 7.54094C0.785102 7.55126 0.785102 7.55643 0.790275 7.56677C0.795448 7.60809 0.805771 7.6494 0.8161 7.69073C0.826422 7.73721 0.841927 7.77853 0.857422 7.81469C0.872917 7.84568 0.883247 7.87667 0.898742 7.90766C0.903915 7.91798 0.909064 7.92833 0.914237 7.93348C0.934906 7.9748 0.955557 8.01096 0.976216 8.04711C1.00204 8.08327 1.02787 8.11942 1.05369 8.15558C1.07952 8.18657 1.11051 8.22272 1.1415 8.25371C1.17249 8.28471 1.20348 8.31053 1.23963 8.34152C1.23963 8.34152 1.24481 8.3467 1.24996 8.3467C1.28095 8.37252 1.31194 8.39835 1.34293 8.41901C1.37908 8.44483 1.41524 8.46549 1.45656 8.48615C1.49271 8.50682 1.53403 8.52747 1.57535 8.54297C1.60634 8.55846 1.6425 8.56879 1.67865 8.57912C1.68383 8.5843 1.68898 8.5843 1.69932 8.58945C1.71999 8.59463 1.7458 8.59977 1.76647 8.60494C1.75097 8.88385 1.7458 9.14727 1.78713 9.24024C1.83362 9.34354 2.06088 9.02847 2.28814 8.66692C2.25715 9.02331 2.23649 9.44168 2.28814 9.56564C2.34496 9.69476 2.65486 9.29189 2.92344 8.8477C6.58545 8.00064 9.92722 10.5315 10.2784 14.1057C10.2113 13.5479 9.52435 13.238 9.20928 13.3154C9.05433 13.6977 8.79092 14.1883 8.36738 14.4931C8.40354 14.1522 8.38805 13.801 8.31574 13.4601C8.2021 13.9353 7.98001 14.3794 7.67527 14.7617C7.18459 14.7978 6.69391 14.5602 6.43566 14.2038C6.41499 14.1883 6.40983 14.1573 6.39434 14.1367C6.37884 14.1005 6.36335 14.0644 6.35302 14.0282C6.33752 13.9921 6.3272 13.9559 6.32203 13.9198C6.31686 13.8836 6.31686 13.8474 6.31686 13.8061C6.31686 13.7803 6.31686 13.7545 6.31686 13.7287C6.32203 13.6925 6.33235 13.6563 6.34268 13.6202C6.353 13.584 6.36335 13.5479 6.37884 13.5117C6.39951 13.4756 6.41499 13.4394 6.44082 13.4033C6.52862 13.1553 6.52862 12.9539 6.36851 12.8351C6.33752 12.8144 6.30653 12.7989 6.27037 12.7835C6.2497 12.7783 6.22388 12.768 6.20323 12.7628C6.18773 12.7576 6.1774 12.7525 6.16191 12.7473C6.12575 12.737 6.08959 12.7266 6.05344 12.7215C6.01728 12.7111 5.98113 12.706 5.94497 12.706C5.90882 12.7008 5.8675 12.6956 5.83134 12.6956C5.80552 12.6956 5.77969 12.7008 5.75387 12.7008C5.71255 12.7008 5.67639 12.706 5.64024 12.7163C5.60408 12.7215 5.56793 12.7266 5.53177 12.737C5.49562 12.7473 5.45946 12.7576 5.4233 12.7731C5.38715 12.7886 5.35616 12.8041 5.32 12.8196C5.28902 12.8351 5.25803 12.8558 5.22187 12.8713C4.01842 13.6564 4.73636 15.4951 5.5576 16.0271C5.24769 16.0839 4.93263 16.1511 4.84482 16.2182C4.83965 16.2234 4.8345 16.2285 4.8345 16.2285C5.0566 16.3628 5.28902 16.4765 5.53178 16.5746C5.86234 16.6831 6.21356 16.7812 6.36851 16.8225V16.8277C6.79721 16.9155 7.23108 16.9465 7.6701 16.9207C9.95821 16.7605 11.8331 15.0199 12.174 12.7266C12.1843 12.7731 12.1947 12.8145 12.205 12.8609C12.2205 12.9539 12.2412 13.052 12.2515 13.1502V13.1554C12.2618 13.2018 12.267 13.2483 12.2722 13.2896V13.3103C12.2773 13.3568 12.2825 13.4033 12.2825 13.4446C12.2876 13.5014 12.2928 13.5582 12.2928 13.6151V13.6977C12.2928 13.7235 12.298 13.7545 12.298 13.7803C12.298 13.8113 12.2928 13.8423 12.2928 13.8733V13.9456C12.2928 13.9818 12.2876 14.0128 12.2876 14.0489C12.2876 14.0696 12.2876 14.0902 12.2824 14.1161C12.2824 14.1522 12.2773 14.1884 12.2773 14.2297C12.2721 14.2452 12.2721 14.2607 12.2721 14.2762C12.2669 14.3175 12.2618 14.3537 12.2566 14.395C12.2566 14.4105 12.2566 14.426 12.2514 14.4415C12.2462 14.4931 12.2359 14.5396 12.2308 14.5912V14.5964V14.6016C12.2204 14.6481 12.2101 14.6997 12.1998 14.7462V14.7617C12.1894 14.8082 12.1791 14.8547 12.1688 14.9012C12.1688 14.9063 12.1636 14.9167 12.1636 14.9218C12.1533 14.9683 12.1429 15.0148 12.1275 15.0613V15.0768C12.112 15.1284 12.0965 15.1749 12.0861 15.2214C12.081 15.2266 12.081 15.2317 12.081 15.2317C12.0655 15.2834 12.05 15.335 12.0345 15.3867C12.0138 15.4383 11.9983 15.4848 11.9777 15.5365C11.957 15.5881 11.9415 15.6398 11.9208 15.6863C11.9002 15.7379 11.8795 15.7844 11.8589 15.836H11.8537C11.833 15.8825 11.8124 15.9342 11.7865 15.9807C11.7814 15.9962 11.7762 16.0065 11.771 16.0168C11.7659 16.022 11.7659 16.0271 11.7607 16.0323C11.425 16.7089 10.9292 17.3029 10.3094 17.7678C10.268 17.7936 10.2267 17.8246 10.1854 17.8556C10.1751 17.8659 10.1596 17.8711 10.1492 17.8814C10.1131 17.9072 10.0769 17.933 10.0356 17.9589L10.0511 17.9899H10.0563C10.1286 17.9795 10.2009 17.9692 10.2732 17.9589H10.2784C10.4127 17.9382 10.547 17.9124 10.6812 17.8866C10.7174 17.8814 10.7587 17.8711 10.7949 17.8607C10.8207 17.8555 10.8414 17.8504 10.8672 17.8452C10.9033 17.8401 10.9395 17.8297 10.9757 17.8246C11.0066 17.8142 11.0376 17.8091 11.0686 17.7987C11.5851 17.6748 12.0861 17.5043 12.5665 17.3029C11.7452 18.4237 10.6451 19.3276 9.359 19.9216C9.95298 19.8802 10.547 19.7821 11.1203 19.6168C13.2018 19.0022 14.9527 17.6025 16.0012 15.7172C15.7895 16.9104 15.3143 18.0467 14.6118 19.0383C15.1128 18.7078 15.5725 18.3256 15.9909 17.8917C17.1479 16.6831 17.9071 15.1491 18.1654 13.5014C18.341 14.3175 18.3926 15.1594 18.3152 15.991C22.0443 10.7898 18.6251 5.3975 17.1944 3.97712C17.1892 3.9668 17.184 3.96162 17.184 3.95129C17.1789 3.95647 17.1789 3.95647 17.1789 3.96162C17.1789 3.95644 17.1789 3.95644 17.1737 3.95129C17.1737 4.01327 17.1685 4.07525 17.1634 4.13723C17.1479 4.25603 17.1324 4.36966 17.1117 4.48329C17.0859 4.59692 17.0549 4.71055 17.0239 4.82418C16.9877 4.93265 16.9464 5.04628 16.8999 5.15475C16.8535 5.25804 16.8018 5.36651 16.745 5.46981C16.6882 5.56795 16.6262 5.67125 16.559 5.76422C16.4919 5.86236 16.4196 5.95532 16.3473 6.04313C16.2698 6.1361 16.1872 6.21874 16.1045 6.30138C16.0529 6.34787 16.0064 6.38919 15.9547 6.43051C15.9134 6.46666 15.8773 6.49765 15.8359 6.53381C15.743 6.60612 15.65 6.67326 15.5467 6.73524C15.4486 6.79722 15.3453 6.8592 15.242 6.91086C15.1335 6.96251 15.025 7.00899 14.9166 7.05548C14.8081 7.09679 14.6945 7.13295 14.5808 7.16394C14.4672 7.19493 14.3484 7.22076 14.2348 7.24142C14.116 7.26208 13.9972 7.27241 13.8836 7.28274C13.8009 7.28791 13.7183 7.29306 13.6356 7.29306C13.5168 7.29306 13.3981 7.28274 13.2844 7.27239C13.1656 7.26207 13.0468 7.24656 12.9332 7.22074C12.8144 7.20007 12.7008 7.16909 12.5871 7.13294H12.582C12.6956 7.12261 12.8092 7.11227 12.9229 7.09161C13.0417 7.07095 13.1553 7.04513 13.2689 7.01414C13.3825 6.98315 13.4962 6.94699 13.6046 6.90567C13.7183 6.86435 13.8267 6.8127 13.93 6.76105C14.0385 6.7094 14.1366 6.65259 14.2399 6.59061C14.3381 6.52346 14.4362 6.45632 14.5292 6.384C14.6222 6.3117 14.71 6.23422 14.7926 6.15158C14.8804 6.0741 14.9579 5.9863 15.0354 5.89849C15.1128 5.80552 15.1851 5.71255 15.2523 5.61958C15.2626 5.60408 15.273 5.58343 15.2833 5.56793C15.3349 5.48529 15.3866 5.40265 15.4331 5.32001C15.4899 5.21671 15.5415 5.11341 15.588 5.00494C15.6345 4.89648 15.6758 4.78801 15.712 4.67438C15.7481 4.56591 15.774 4.45228 15.7998 4.33865C15.8205 4.21986 15.8411 4.10623 15.8514 3.9926C15.8618 3.8738 15.8721 3.75501 15.8721 3.64138C15.8721 3.55873 15.8669 3.47609 15.8618 3.39345C15.8515 3.27466 15.836 3.16103 15.8205 3.0474C15.7998 2.9286 15.774 2.81497 15.743 2.70134C15.7068 2.59287 15.6707 2.47924 15.6294 2.37078C15.588 2.26231 15.5364 2.15385 15.4847 2.05054C15.4279 1.94724 15.3711 1.84394 15.3091 1.74581C15.242 1.64767 15.1748 1.5547 15.1025 1.46173C15.025 1.37393 14.9476 1.28612 14.8649 1.19832C14.8236 1.157 14.7771 1.11051 14.7306 1.06919C14.4982 0.888414 14.2555 0.717967 14.0127 0.563017C13.9765 0.542349 13.9456 0.526861 13.9094 0.511365C13.7389 0.402901 13.5788 0.346056 13.4187 0.294407Z" fill="#E0234E"/>
</svg>
