<svg width="20" height="20" viewBox="0 0 20 20" fill="none" xmlns="http://www.w3.org/2000/svg">
<path d="M9.2557 0.213372C9.75161 -0.0704825 10.3975 -0.0717647 10.893 0.213372C13.3857 1.62189 15.8792 3.0282 18.3715 4.43757C18.8403 4.70162 19.1538 5.22331 19.1491 5.76345V14.2376C19.1526 14.8001 18.808 15.3343 18.3135 15.5924C15.8289 16.9931 13.3457 18.3956 10.8616 19.7963C10.3554 20.0857 9.69655 20.0634 9.20619 19.7503C8.46133 19.3185 7.71519 18.8889 6.97026 18.4575C6.81804 18.3667 6.64645 18.2945 6.53896 18.1469C6.63398 18.0188 6.80387 18.0029 6.94191 17.947C7.25283 17.8481 7.5384 17.6894 7.82403 17.5354C7.89626 17.486 7.98445 17.5049 8.05368 17.5491C8.69063 17.9143 9.32194 18.2902 9.96103 18.6519C10.0974 18.7306 10.2354 18.6261 10.3519 18.5611C12.79 17.1832 15.2311 15.8104 17.6688 14.432C17.7591 14.3886 17.809 14.2927 17.8017 14.1938C17.8034 11.3983 17.8021 8.60235 17.8025 5.80691C17.8129 5.69465 17.7479 5.59143 17.6464 5.54549C15.1705 4.15115 12.6959 2.75467 10.2204 1.35997C10.1775 1.33049 10.1267 1.31467 10.0746 1.31459C10.0226 1.31451 9.97173 1.33018 9.92876 1.35955C7.45328 2.75467 4.97908 4.15243 2.5036 5.5467C2.40245 5.59271 2.33457 5.69422 2.34661 5.80691C2.34703 8.60235 2.34661 11.3983 2.34661 14.1942C2.34231 14.2425 2.35292 14.2909 2.37699 14.3329C2.40106 14.375 2.43744 14.4087 2.48123 14.4295C3.14183 14.8041 3.80327 15.176 4.4643 15.5493C4.83669 15.7498 5.29392 15.8689 5.70421 15.7153C6.06627 15.5855 6.32007 15.216 6.31316 14.8315C6.31658 12.0524 6.31145 9.27285 6.31572 6.49414C6.30668 6.37077 6.42371 6.26884 6.54366 6.28045C6.86107 6.27831 7.1789 6.27617 7.4963 6.2813C7.62879 6.27831 7.71997 6.41116 7.70358 6.53545C7.7023 9.33218 7.707 12.129 7.70145 14.9257C7.7023 15.6711 7.39608 16.4821 6.70664 16.8468C5.85728 17.2868 4.80748 17.1935 3.96839 16.7716C3.24198 16.409 2.54876 15.9811 1.83524 15.5927C1.3394 15.3361 0.996571 14.7998 1.00006 14.2377V5.76345C0.994861 5.21213 1.32088 4.68096 1.80426 4.42076C4.28836 3.01886 6.77203 1.6159 9.2557 0.213372Z" fill="#8CC84B"/>
<path d="M11.4227 6.08329C12.5061 6.01355 13.666 6.04197 14.6409 6.5757C15.3958 6.98471 15.8142 7.84311 15.8276 8.68171C15.8065 8.79483 15.6882 8.85722 15.5802 8.84946C15.2659 8.84903 14.9515 8.85373 14.6371 8.84732C14.5038 8.85245 14.4263 8.72951 14.4096 8.61162C14.3192 8.21038 14.1004 7.81298 13.7228 7.61945C13.143 7.32918 12.4708 7.34379 11.8386 7.34984C11.3771 7.37434 10.8809 7.4143 10.4899 7.68569C10.1897 7.89126 10.0985 8.30625 10.2057 8.64047C10.3067 8.88044 10.5837 8.95787 10.8104 9.02925C12.116 9.37073 13.4996 9.33675 14.7803 9.78614C15.3106 9.96935 15.8293 10.3255 16.0108 10.8807C16.2482 11.6248 16.1441 12.5141 15.6147 13.1115C15.1854 13.603 14.5601 13.8706 13.9365 14.0159C13.1069 14.2009 12.2459 14.2056 11.4034 14.1235C10.6112 14.0331 9.78677 13.825 9.17518 13.2852C8.6522 12.8311 8.39677 12.1236 8.42213 11.4407C8.42818 11.3254 8.54301 11.2449 8.65349 11.2544C8.97004 11.2519 9.28658 11.251 9.60313 11.2548C9.72957 11.2458 9.82331 11.3551 9.82979 11.4742C9.8882 11.8565 10.0319 12.2578 10.3652 12.4844C11.0086 12.8995 11.8158 12.8711 12.5525 12.8827C13.1628 12.8556 13.8479 12.8474 14.346 12.444C14.6087 12.214 14.6866 11.829 14.6156 11.4979C14.5386 11.2183 14.2462 11.088 13.995 11.0028C12.7061 10.5951 11.307 10.7431 10.0306 10.282C9.51239 10.0988 9.01128 9.75259 8.81219 9.22022C8.53439 8.46674 8.66168 7.53475 9.24655 6.95757C9.81683 6.38345 10.64 6.16235 11.4227 6.08321V6.08329Z" fill="#8CC84B"/>
</svg>
