<svg width="20" height="20" viewBox="0 0 20 20" fill="none" xmlns="http://www.w3.org/2000/svg">
<path fill-rule="evenodd" clip-rule="evenodd" d="M10 15.1355C15.5229 15.1355 20 12.8665 20 10.0677C20 7.26898 15.5229 5 10 5C4.47725 5 0 7.26898 0 10.0677C0 12.8665 4.47725 15.1355 10 15.1355Z" fill="#6E81B6"/>
<path fill-rule="evenodd" clip-rule="evenodd" d="M12.0266 11.706L12.5226 9.15305C12.6346 8.57685 12.5414 8.1471 12.246 7.87551C11.9598 7.61274 11.4739 7.48493 10.7607 7.48493H9.90171L10.1474 6.22008C10.152 6.19654 10.1514 6.17228 10.1455 6.14902C10.1396 6.12577 10.1286 6.1041 10.1134 6.08559C10.0981 6.06707 10.079 6.05215 10.0573 6.04192C10.0356 6.03168 10.0119 6.02637 9.98793 6.02637H8.80229C8.72442 6.02637 8.65755 6.08163 8.64268 6.15805L8.11582 8.86828C8.06793 8.56331 7.94991 8.30115 7.76103 8.08482C7.41326 7.68675 6.86319 7.48493 6.12593 7.48493H3.82793C3.75005 7.48493 3.68318 7.54019 3.66831 7.61649L2.60214 13.1025C2.59283 13.1502 2.60528 13.1993 2.63624 13.2368C2.66708 13.2744 2.71303 13.2961 2.76176 13.2961H3.95671C4.03458 13.2961 4.10145 13.2408 4.11633 13.1643L4.37425 11.8374H5.26375C5.73051 11.8374 6.12278 11.7869 6.42896 11.6872C6.74202 11.5854 7.03018 11.4127 7.28412 11.175C7.48932 10.9865 7.65885 10.7753 7.78933 10.5476L7.57639 11.6437C7.56707 11.6914 7.57953 11.7408 7.61049 11.778C7.64132 11.8156 7.68739 11.8373 7.736 11.8373H8.92164C8.99952 11.8373 9.06639 11.782 9.08126 11.7057L9.6664 8.69439H10.48C10.8266 8.69439 10.9282 8.76344 10.9559 8.79306C10.9809 8.82015 11.0329 8.91556 10.9745 9.21629L10.5029 11.6436C10.4984 11.6671 10.4991 11.6913 10.5051 11.7146C10.511 11.7378 10.522 11.7594 10.5372 11.7779C10.5525 11.7964 10.5716 11.8113 10.5933 11.8215C10.6149 11.8318 10.6386 11.8371 10.6626 11.8372H11.8671C11.9047 11.8372 11.9413 11.8242 11.9704 11.8002C11.9995 11.7763 12.0194 11.743 12.0266 11.706ZM6.52969 9.59659C6.4552 9.97931 6.31493 10.2522 6.1125 10.4079C5.90694 10.5664 5.57815 10.6467 5.13521 10.6467H4.60558L4.98854 8.67589H5.67332C6.17635 8.67589 6.37902 8.78339 6.4604 8.87348C6.57322 8.99851 6.59716 9.2487 6.52969 9.59659ZM17.0208 8.08482C16.6731 7.68675 16.123 7.48493 15.3858 7.48493H13.0878C13.0098 7.48493 12.943 7.54019 12.9281 7.61649L11.8621 13.1025C11.8527 13.1502 11.8651 13.1993 11.8961 13.2368C11.927 13.2743 11.9731 13.2961 12.0215 13.2961H13.2165C13.2945 13.2961 13.3613 13.2408 13.3762 13.1643L13.6341 11.8374H14.5237C14.9906 11.8374 15.3825 11.7869 15.6888 11.6872C16.002 11.5854 16.2901 11.4127 16.544 11.175C16.7558 10.9804 16.9301 10.7617 17.0621 10.5255C17.1942 10.2894 17.2888 10.026 17.3441 9.74254C17.4799 9.04349 17.3712 8.4858 17.0208 8.08482ZM15.8574 9.59659C15.7828 9.97931 15.6425 10.2522 15.4403 10.4079C15.2346 10.5664 14.9058 10.6467 14.463 10.6467H13.9333L14.3161 8.67589H15.001C15.504 8.67589 15.7067 8.78339 15.7882 8.87348C15.9008 8.99851 15.9248 9.2487 15.8574 9.59659Z" fill="white"/>
<path fill-rule="evenodd" clip-rule="evenodd" d="M5.63923 8.51271C6.09317 8.51271 6.39584 8.59651 6.54711 8.76411C6.69826 8.93171 6.7343 9.2195 6.65521 9.62713C6.5725 10.0517 6.41337 10.3547 6.17757 10.5363C5.94177 10.718 5.58288 10.8087 5.10112 10.8087H4.37414L4.82034 8.51271H5.63923ZM2.72754 13.1329H3.92249L4.20605 11.6745H5.22966C5.68131 11.6745 6.0529 11.6269 6.34456 11.532C6.63623 11.4371 6.90141 11.2781 7.13999 11.0547C7.34024 10.8708 7.50227 10.6677 7.62634 10.4456C7.75029 10.2236 7.83832 9.97877 7.89043 9.71093C8.01692 9.06061 7.92151 8.55407 7.60445 8.1913C7.28752 7.82842 6.78315 7.64704 6.09184 7.64704H3.79383L2.72754 13.1329ZM8.76809 6.18848H9.95373L9.67029 7.64704H10.7267C11.391 7.64704 11.8497 7.76288 12.1019 7.99469C12.3542 8.22649 12.4297 8.6022 12.3289 9.12156L11.8329 11.6745H10.6284L11.1 9.24707C11.1535 8.97089 11.1339 8.78261 11.0407 8.68213C10.9475 8.58176 10.749 8.53146 10.4458 8.53146H9.49822L8.88744 11.6745H7.7018L8.76809 6.18848ZM14.9669 8.51271C15.4209 8.51271 15.7234 8.59651 15.8748 8.76411C16.026 8.93171 16.0619 9.2195 15.9828 9.62713C15.9003 10.0517 15.7412 10.3547 15.5053 10.5363C15.2696 10.718 14.9106 10.8087 14.4291 10.8087H13.7021L14.1482 8.51271H14.9669ZM12.055 13.1329H13.2501L13.5335 11.6745H14.5571C15.0089 11.6745 15.3805 11.6269 15.6721 11.532C15.9638 11.4371 16.229 11.2781 16.4676 11.0547C16.6678 10.8708 16.8299 10.6677 16.9538 10.4456C17.0777 10.2236 17.1659 9.97877 17.2181 9.71093C17.3445 9.06061 17.2491 8.55407 16.9322 8.1913C16.615 7.82842 16.1107 7.64704 15.4194 7.64704H13.1214L12.055 13.1329Z" fill="black"/>
</svg>
