<svg width="20" height="20" viewBox="0 0 20 20" fill="none" xmlns="http://www.w3.org/2000/svg">
<path d="M18.2118 1.14938C17.9244 1.84793 17.5529 2.46721 17.1417 3.02208C15.3284 1.17415 12.7918 0 9.99269 0C4.49349 0 0 4.46872 0 9.98774C0 12.8711 1.2336 15.4671 3.19053 17.3002L3.56209 17.6321C5.29112 19.0936 7.54035 19.9804 9.98774 19.9804C15.2392 19.9804 19.5643 15.8833 19.9358 10.7111C20.2331 8.19926 19.4701 4.98396 18.2118 1.14938ZM4.63716 17.3844C4.34982 17.756 3.81476 17.7956 3.44319 17.5083C3.07163 17.2209 3.03199 16.6859 3.31934 16.3143C3.60668 15.9427 4.14174 15.9031 4.51331 16.1904C4.86506 16.4778 4.92451 17.0128 4.63716 17.3844ZM18.1523 14.397C15.7 17.6718 10.4287 16.562 7.06969 16.7255C7.06969 16.7255 6.47023 16.7651 5.87572 16.8494C5.87572 16.8494 6.10362 16.7453 6.39096 16.6413C8.75909 15.8189 9.87379 15.6504 11.3155 14.9122C14.0155 13.53 16.7106 10.503 17.2506 7.3719C16.2202 10.3791 13.0891 12.9751 10.2454 14.0254C8.28844 14.7488 4.76597 15.4473 4.76597 15.4473L4.6223 15.3631C2.23436 14.1889 2.15014 8.99689 6.51977 7.32731C8.43706 6.58418 10.2503 6.99538 12.3311 6.50491C14.5357 5.98967 17.0921 4.33991 18.1176 2.17986C19.2621 5.66269 20.6641 11.0579 18.1523 14.397Z" fill="#6CB52D"/>
<path d="M4.63717 17.3849C4.34982 17.7565 3.81476 17.7961 3.4432 17.5087C3.07163 17.2214 3.03199 16.6863 3.31934 16.3148C3.60669 15.9432 4.14174 15.9036 4.51331 16.1909C4.86506 16.4783 4.92451 17.0133 4.63717 17.3849Z" fill="#6CB52D"/>
</svg>
