<svg width="20" height="20" viewBox="0 0 20 20" fill="none" xmlns="http://www.w3.org/2000/svg">
<path d="M17.5902 2.64616C15.732 -0.0118734 12.0618 -0.799736 9.40842 0.890164L4.74868 3.85901C4.43521 4.05597 4.14276 4.28499 3.87669 4.54238C3.61029 4.79977 3.37159 5.0842 3.16428 5.391C2.95696 5.6978 2.78203 6.0253 2.64215 6.36815C2.50261 6.71116 2.39901 7.06772 2.33301 7.4321C2.27793 7.73756 2.24789 8.04737 2.24388 8.35784C2.23954 8.66864 2.26124 8.97912 2.30831 9.28592C2.35538 9.59305 2.42783 9.89584 2.52464 10.191C2.62145 10.4861 2.74264 10.7725 2.88686 11.0476C2.78764 11.1984 2.69606 11.354 2.61244 11.514C2.52865 11.6739 2.4532 11.8381 2.3861 12.0057C2.31899 12.1733 2.26057 12.3442 2.21083 12.5178C2.16109 12.6914 2.12036 12.8674 2.08831 13.045C1.95514 13.7918 1.97274 14.5578 2.14006 15.2977C2.22352 15.6666 2.34336 16.0265 2.49827 16.3717C2.65317 16.7169 2.84179 17.046 3.06212 17.3538C4.92028 20.0119 8.59018 20.7997 11.2435 19.1098L15.9033 16.1533C16.2168 15.956 16.5085 15.7267 16.7746 15.469C17.0406 15.2114 17.2793 14.9271 17.4867 14.6204C17.694 14.3139 17.8689 13.9864 18.0088 13.6435C18.1487 13.301 18.2525 12.9445 18.319 12.5803C18.374 12.2748 18.4037 11.9653 18.4078 11.6548C18.4118 11.3444 18.3901 11.0339 18.3427 10.7271C18.2956 10.4203 18.2231 10.1178 18.126 9.82273C18.0288 9.52795 17.9077 9.24152 17.7634 8.96643C17.8626 8.81587 17.9544 8.65996 18.0382 8.50006C18.1217 8.34015 18.1974 8.1759 18.2645 8.00831C18.3316 7.84072 18.3904 7.66979 18.4405 7.4962C18.4902 7.32293 18.5316 7.147 18.564 6.9694C18.6301 6.59683 18.6588 6.21859 18.6501 5.84035C18.6414 5.46211 18.595 5.08587 18.5116 4.71664C18.4281 4.34775 18.3083 3.98787 18.1534 3.64268C17.9987 3.29743 17.81 2.96842 17.5902 2.66052" fill="#FF3E00"/>
<path d="M8.95329 17.6113C8.58859 17.706 8.21157 17.7445 7.83526 17.7255C7.45902 17.7061 7.08779 17.63 6.73459 17.4988C6.38137 17.3678 6.05019 17.1837 5.75243 16.953C5.45492 16.722 5.19432 16.4471 4.97959 16.1377C4.84706 15.9524 4.73355 15.7548 4.64074 15.5472C4.54767 15.3396 4.47553 15.1234 4.42542 14.9015C4.37568 14.6795 4.34763 14.4532 4.34263 14.2258C4.33762 13.9985 4.35531 13.7711 4.39537 13.5471C4.40172 13.5107 4.40906 13.4743 4.41707 13.4383C4.42475 13.4019 4.43343 13.3658 4.44278 13.3301C4.45179 13.2941 4.46181 13.2583 4.47249 13.2226C4.48284 13.1872 4.49419 13.1518 4.50587 13.1168L4.59367 12.8487L4.83304 13.0273C4.97024 13.1275 5.11179 13.222 5.25701 13.3101C5.40223 13.3986 5.55113 13.4807 5.70336 13.5561C5.85525 13.6319 6.01082 13.7014 6.16873 13.7638C6.32664 13.8265 6.48721 13.8823 6.65013 13.9314L6.82873 13.9831L6.81271 14.1617C6.8041 14.2833 6.81675 14.4054 6.8501 14.5226C6.86645 14.5814 6.88815 14.6381 6.91453 14.6929C6.9409 14.7476 6.97195 14.8 7.00733 14.8494C7.07217 14.9426 7.15087 15.0254 7.24069 15.0948C7.33016 15.1642 7.42998 15.2197 7.53647 15.2591C7.64297 15.2984 7.75447 15.3211 7.86797 15.3268C7.98115 15.3328 8.09465 15.3211 8.20448 15.2924C8.22986 15.2858 8.25456 15.2781 8.27926 15.2694C8.30397 15.2607 8.32834 15.2514 8.35204 15.2407C8.37608 15.2303 8.39945 15.219 8.42282 15.2066C8.44585 15.1946 8.46822 15.1816 8.49025 15.1676L13.143 12.1984C13.2 12.1626 13.2532 12.121 13.3016 12.0742C13.35 12.0271 13.393 11.9754 13.4307 11.9196C13.4685 11.8639 13.4999 11.8041 13.5252 11.7417C13.5503 11.6793 13.569 11.6145 13.581 11.5484C13.5927 11.4806 13.5977 11.4122 13.596 11.3434C13.5943 11.275 13.5856 11.2069 13.5703 11.1398C13.5553 11.073 13.5332 11.0079 13.5049 10.9452C13.4768 10.8827 13.4421 10.8233 13.402 10.7676C13.3373 10.6744 13.2588 10.592 13.169 10.5225C13.0792 10.4531 12.9794 10.3977 12.8732 10.3583C12.7668 10.3189 12.655 10.2959 12.5417 10.2902C12.4282 10.2845 12.3147 10.2962 12.2049 10.3246C12.1798 10.3312 12.1548 10.3389 12.1301 10.3476C12.1054 10.3563 12.0814 10.3656 12.0573 10.376C12.0333 10.3866 12.0099 10.398 11.9869 10.4104C11.9639 10.4224 11.9412 10.4357 11.9191 10.4497L10.1324 11.5841C10.0596 11.6302 9.98485 11.6736 9.90874 11.7143C9.83229 11.7547 9.75484 11.7925 9.67572 11.8272C9.5966 11.8619 9.51614 11.8936 9.43468 11.922C9.35323 11.9507 9.27077 11.9761 9.18731 11.9984C8.82309 12.0926 8.44685 12.1306 8.07128 12.1113C7.69571 12.0919 7.32548 12.0155 6.97295 11.8849C6.62041 11.7541 6.28991 11.5701 5.9928 11.3398C5.69568 11.1094 5.43528 10.8353 5.22062 10.5265C5.08876 10.3412 4.97559 10.1433 4.88311 9.93563C4.7903 9.72798 4.71853 9.51165 4.66879 9.28998C4.61905 9.06798 4.59167 8.84164 4.587 8.61429C4.58199 8.38728 4.59968 8.15993 4.64008 7.93626C4.719 7.49588 4.88887 7.07678 5.13883 6.70572C5.38897 6.33467 5.71383 6.01993 6.09261 5.78165L10.7597 2.81281C10.8321 2.76674 10.9062 2.72334 10.982 2.68261C11.0578 2.64222 11.1353 2.60449 11.2137 2.56978C11.2923 2.53504 11.3723 2.50341 11.4534 2.47496C11.5342 2.44625 11.6163 2.42055 11.6995 2.39818C12.064 2.3037 12.4409 2.26498 12.8168 2.28401C13.1931 2.30337 13.5639 2.37949 13.9172 2.51069C14.2704 2.64155 14.6012 2.82583 14.899 3.05651C15.1964 3.28758 15.4569 3.56259 15.6715 3.87209C15.8037 4.05703 15.9175 4.25467 16.0107 4.46232C16.1038 4.66997 16.1759 4.88596 16.2263 5.10796C16.2764 5.32997 16.3044 5.55631 16.3094 5.78366C16.3148 6.011 16.2974 6.23835 16.2574 6.46236C16.2504 6.49908 16.243 6.5358 16.2347 6.57219C16.2267 6.60858 16.218 6.64497 16.2086 6.68102C16.1996 6.71741 16.1896 6.75346 16.1792 6.78919C16.1689 6.82524 16.1582 6.86096 16.1465 6.89635L16.0574 7.16442L15.8197 6.98582C15.6822 6.88466 15.5403 6.78985 15.3947 6.70072C15.2492 6.61192 15.0996 6.52912 14.947 6.45267C14.6416 6.30031 14.3239 6.17389 13.9973 6.07477L13.8183 6.02302L13.8347 5.84442C13.8397 5.78332 13.8394 5.7219 13.8337 5.66114C13.8284 5.60038 13.8173 5.53995 13.8013 5.48086C13.785 5.42211 13.7639 5.36435 13.7375 5.30927C13.7115 5.25385 13.6805 5.20111 13.6451 5.15103C13.5799 5.05953 13.5012 4.97848 13.4117 4.91066C13.3223 4.84254 13.223 4.7885 13.1173 4.75042C12.9048 4.67333 12.6738 4.66296 12.4553 4.72071C12.4299 4.72739 12.4049 4.73506 12.3805 4.74341C12.3558 4.75209 12.3314 4.76177 12.3074 4.77212C12.2837 4.78247 12.26 4.79415 12.2369 4.80617C12.2139 4.81852 12.1912 4.83154 12.1692 4.84557L7.50776 7.8094C7.45101 7.84512 7.39793 7.88685 7.34985 7.93359C7.30178 7.98033 7.25838 8.03207 7.22066 8.08749C7.18325 8.14323 7.1516 8.20263 7.12618 8.26476C7.10081 8.32719 7.08212 8.39162 7.0701 8.45772C7.05841 8.52549 7.0534 8.59426 7.05507 8.66303C7.05908 8.80069 7.09004 8.93623 7.14621 9.06197C7.17453 9.12457 7.20886 9.18427 7.2487 9.24024C7.31313 9.33238 7.39125 9.41451 7.48039 9.48328C7.56934 9.55237 7.66829 9.60753 7.77383 9.64686C7.98607 9.72576 8.21724 9.73845 8.43684 9.68325C8.46187 9.67624 8.48691 9.66856 8.51162 9.65988C8.53599 9.6512 8.56036 9.64152 8.58439 9.63117C8.60832 9.62076 8.63182 9.60941 8.65483 9.59712C8.67787 9.5851 8.70057 9.57208 8.7226 9.55806L10.5093 8.42567C10.5824 8.37893 10.6569 8.33487 10.7333 8.29414C10.8094 8.25308 10.8872 8.21535 10.9667 8.1803C11.0459 8.14556 11.1264 8.11393 11.208 8.08549C11.2898 8.05678 11.3726 8.03141 11.4564 8.00937C11.821 7.91456 12.1975 7.87584 12.5738 7.89453C12.95 7.91356 13.3209 7.98968 13.6741 8.12054C14.027 8.25141 14.3582 8.43535 14.6556 8.66637C14.9534 8.89705 15.2138 9.1718 15.4284 9.48127C15.5606 9.66656 15.6741 9.86419 15.7673 10.0718C15.8604 10.2794 15.9327 10.4956 15.983 10.7175C16.033 10.9392 16.0611 11.1655 16.0664 11.3928C16.0718 11.6205 16.0541 11.8479 16.0143 12.0715C15.975 12.2912 15.9129 12.5061 15.8291 12.7128C15.7453 12.9197 15.6401 13.1172 15.5152 13.3021C15.3907 13.487 15.2472 13.6586 15.0869 13.8139C14.9267 13.9691 14.7507 14.1073 14.5618 14.2261L9.90006 17.195C9.82695 17.2414 9.75217 17.2851 9.67605 17.3259C9.5996 17.3666 9.52182 17.4043 9.44236 17.439C9.36324 17.4741 9.28279 17.5058 9.201 17.5345C9.11954 17.5632 9.03675 17.5889 8.95329 17.6113Z" fill="white"/>
</svg>
