<svg width="20" height="20" viewBox="0 0 20 20" fill="none" xmlns="http://www.w3.org/2000/svg">
<path d="M4.44379 0H15.5176C16.0564 0 16.5797 0.0859375 17.0873 0.265625C17.8214 0.53125 18.4852 1 18.985 1.60938C19.4926 2.21875 19.8284 2.96875 19.9455 3.75C19.9924 4.03906 20.0002 4.32812 20.0002 4.61719V15.4219C20.0002 15.7656 19.9846 16.1172 19.9143 16.4531C19.7581 17.2266 19.3911 17.9531 18.86 18.5391C18.3368 19.125 17.6496 19.5625 16.9077 19.7969C16.4547 19.9375 15.9862 20 15.5098 20C15.2989 20 4.41255 20 4.24855 19.9922C3.45198 19.9531 2.66323 19.6953 1.99943 19.25C1.35124 18.8125 0.8202 18.2031 0.476584 17.5C0.179825 16.8984 0.0314458 16.2266 0.0314458 15.5547V4.44531C0.0158269 3.78125 0.156397 3.125 0.445347 2.53125C0.781153 1.82813 1.30439 1.21094 1.95257 0.773438C2.61637 0.320312 3.39732 0.0546875 4.19388 0.015625C4.27198 0 4.35788 0 4.44379 0Z" fill="url(#paint0_linear_2007_11095)"/>
<path d="M16.8684 16.3594C16.7981 16.25 16.72 16.1406 16.6341 16.0391C16.4389 15.8047 16.2124 15.6016 15.9625 15.4297C15.6501 15.2188 15.2831 15.0859 14.9082 15.0703C14.6427 15.0547 14.3772 15.1016 14.1273 15.1953C13.8774 15.2812 13.6353 15.4062 13.401 15.5312C13.1277 15.6719 12.8543 15.8125 12.5654 15.9297C12.2218 16.0703 11.8625 16.1797 11.4955 16.2578C11.0347 16.3438 10.5662 16.375 10.1054 16.3672C9.26981 16.3516 8.4342 16.2266 7.63763 15.9922C6.93478 15.7812 6.26317 15.4922 5.63061 15.125C5.07614 14.8047 4.56071 14.4375 4.07653 14.0234C3.67825 13.6797 3.3112 13.3125 2.96759 12.9219C2.7333 12.6484 2.50683 12.3594 2.29598 12.0625C2.21007 11.9453 2.13198 11.8203 2.06169 11.6953L0 9.46875V4.42969C0 1.98438 1.97579 0 4.42014 0H8.36391L11.2846 2.96875C17.8758 7.45312 15.7438 12.3984 15.7438 12.3984C15.7438 12.3984 17.6181 14.5078 16.8684 16.3594Z" fill="url(#paint1_linear_2007_11095)"/>
<path d="M11.3001 2.96875C17.8912 7.45312 15.7593 12.3984 15.7593 12.3984C15.7593 12.3984 17.6335 14.5156 16.876 16.3672C16.876 16.3672 16.1029 15.0703 14.8065 15.0703C13.557 15.0703 12.8229 16.3672 10.3083 16.3672C4.70892 16.3672 2.06152 11.6875 2.06152 11.6875C7.10641 15.0078 10.5504 12.6562 10.5504 12.6562C8.27783 11.3359 3.44379 5.02344 3.44379 5.02344C7.65307 8.60938 9.47267 9.55469 9.47267 9.55469C8.38716 8.65625 5.34148 4.26562 5.34148 4.26562C7.77802 6.73438 12.6199 10.1797 12.6199 10.1797C13.9943 6.36719 11.3001 2.96875 11.3001 2.96875Z" fill="white"/>
<defs>
<linearGradient id="paint0_linear_2007_11095" x1="11.8933" y1="-0.713672" x2="8.11324" y2="20.7156" gradientUnits="userSpaceOnUse">
<stop stop-color="#FAAE42"/>
<stop offset="1" stop-color="#EF3E31"/>
</linearGradient>
<linearGradient id="paint1_linear_2007_11095" x1="10.2001" y1="0.323125" x2="7.4335" y2="16.0069" gradientUnits="userSpaceOnUse">
<stop stop-color="#E39F3A"/>
<stop offset="1" stop-color="#D33929"/>
</linearGradient>
</defs>
</svg>
