<svg width="20" height="20" viewBox="0 0 20 20" fill="none" xmlns="http://www.w3.org/2000/svg">
<path d="M0 0H20V20H0V0Z" fill="#017ACB"/>
<path d="M9.60313 7.40605H10.5625V9.0623H7.96876V16.4311L7.90001 16.4498C7.80626 16.4748 6.57188 16.4748 6.30625 16.4467L6.09375 16.4279V9.0623H3.5V7.40605L4.32188 7.39668C4.77188 7.39043 5.92813 7.39043 6.89063 7.39668C7.85313 7.40293 9.07188 7.40605 9.60313 7.40605ZM16.925 15.6498C16.5438 16.0529 16.1344 16.2779 15.4531 16.4623C15.1563 16.5436 15.1063 16.5467 14.4375 16.5436C13.7688 16.5404 13.7156 16.5404 13.3906 16.4561C12.55 16.2404 11.8719 15.8186 11.4094 15.2217C11.2781 15.0529 11.0625 14.7029 11.0625 14.6592C11.0625 14.6467 11.0938 14.6186 11.1344 14.5998C11.175 14.5811 11.2594 14.5279 11.3281 14.4873C11.3969 14.4467 11.5219 14.3717 11.6063 14.3279C11.6906 14.2842 11.9344 14.1404 12.1469 14.0123C12.3594 13.8842 12.5531 13.7811 12.575 13.7811C12.5969 13.7811 12.6375 13.8248 12.6688 13.8779C12.8563 14.1936 13.2938 14.5967 13.6031 14.7342C13.7938 14.8154 14.2156 14.9061 14.4188 14.9061C14.6063 14.9061 14.95 14.8248 15.1344 14.7404C15.3313 14.6498 15.4313 14.5592 15.55 14.3779C15.6313 14.2498 15.6406 14.2154 15.6375 13.9717C15.6375 13.7467 15.625 13.6842 15.5625 13.5811C15.3875 13.2936 15.15 13.1436 14.1875 12.7186C13.1938 12.2779 12.7469 12.0154 12.3844 11.6623C12.1156 11.3998 12.0625 11.3279 11.8938 10.9998C11.675 10.5779 11.6469 10.4404 11.6438 9.8123C11.6406 9.37168 11.65 9.22793 11.6969 9.07793C11.7625 8.85293 11.975 8.41855 12.0719 8.30918C12.2719 8.0748 12.3438 8.00293 12.4844 7.8873C12.9094 7.5373 13.5719 7.30605 14.2063 7.28418C14.2781 7.28418 14.5156 7.29668 14.7375 7.3123C15.375 7.36543 15.8094 7.52168 16.2281 7.85605C16.5438 8.10605 17.0219 8.69355 16.975 8.77168C16.9438 8.81855 15.6969 9.6498 15.6156 9.6748C15.5656 9.69043 15.5313 9.67168 15.4625 9.59043C15.0375 9.08105 14.8656 8.97168 14.4531 8.94668C14.1594 8.92793 14.0031 8.9623 13.8063 9.09355C13.6 9.23105 13.5 9.44043 13.5 9.73105C13.5031 10.1561 13.6656 10.3561 14.2656 10.6529C14.6531 10.8436 14.9844 10.9998 15.0094 10.9998C15.0469 10.9998 15.85 11.3998 16.0594 11.5248C17.0344 12.0967 17.4313 12.6842 17.5344 13.6967C17.6094 14.4592 17.3938 15.1561 16.925 15.6498Z" fill="white"/>
</svg>
